<svg id="katman_1" data-name="katman 1" xmlns="http://www.w3.org/2000/svg" viewBox="0 0 591 591">
  <defs>
    <style>
      .cls-1 {
        fill: #844b6a;
      }

      .cls-2 {
        fill: #c37181;
      }

      .cls-3 {
        fill: #f2f2f3;
      }

      .cls-4 {
        fill: #222223;
      }

      .cls-5 {
        fill: #e1e0e1;
      }

      .cls-6 {
        fill: #1d1d1b;
      }
    </style>
  </defs>
  <g>
    <path class="cls-1" d="M445.529,278.624c-18.7.019-37.417-.528-56.084.229-10.815.438-16.793-2.862-21.174-13.319-13.982-33.367-39.585-51.252-76.065-51.314-36.915-.063-61.249,19.764-75.705,52.25-3.713,8.344-6.905,12.6-16.926,12.439-40.055-.637-80.128-.183-120.193-.4-4.818-.026-11.766,2.511-13.424-4.915a38.919,38.919,0,0,1,4.7-28.968c3.894-6.285,9.415.724,13.752,2.426,36.659,14.388,69.132,3.195,97-19.65,45.394-37.217,70.475-83.384,50.645-144.163-2.558-7.838.982-8.9,6.963-10.391,34.948-8.735,69.88-8.748,105-1.012,9.218,2.03,11.731,5.254,8.059,15.033-26.853,71.518,40.812,159.656,113.346,166.4,12.24,1.137,23.763-1.789,35.137-6.146,4.417-1.691,9.562-8.6,13.888-2.457,5.913,8.4,6.419,18.994,4.614,28.906-1.339,7.352-8.587,4.838-13.429,4.91C485.6,278.778,465.562,278.605,445.529,278.624Z"/>
    <path class="cls-2" d="M507.434,175.817c6.206,33.717-21.063,53.21-57.6,40.02-40.958-14.788-64.868-46.569-70.758-89.5-5.153-37.567,20.9-57.737,57.586-46.9C476.3,91.134,507.314,133.381,507.434,175.817ZM136.286,216.052c36.564-12.17,69.211-56.068,70.158-94.334.85-34.345-21.43-51.956-54.707-43.243-39.972,10.465-74.228,54.27-75.088,96.02C75.873,212.162,99.181,228.4,136.286,216.052Zm-11.348-99.389c-1.2-11.349,21.49-28.381,38.739-29.048,6.907-.267,13.875.556,14.9,9.333,1.322,11.289-21.979,28.407-38.793,28.861C132.9,125.892,125.905,125.845,124.938,116.663Zm-15.551,35.865c-5.9.753-10.24-2.922-10.233-9.125.007-7.369,4.181-12.484,11.606-13.43,6.287-.8,9.237,3.571,10.586,9.358C120.554,146.536,116.576,151.61,109.387,152.528Z"/>
    <path class="cls-3" d="M138.873,311.661c20.055-.007,40.119.361,60.159-.172,9.152-.243,13.4,1.981,17.041,11.666,12.659,33.7,43.352,55.385,76.6,54.218,36.88-1.294,63.286-19.728,76.494-54.339,3.671-9.62,8.276-11.609,17.363-11.524,39.437.367,78.9.912,118.309-.261,16.045-.478,16.521,5.781,14.834,18.68-12.407,94.846-90.03,174.8-187.129,191.912A229.246,229.246,0,0,1,89.1,401.831a232.369,232.369,0,0,1-24.121-75.8c-1.631-11.8,2.351-15.028,13.741-14.581C98.742,312.234,118.819,311.668,138.873,311.661ZM178.58,96.948c-1.028-8.777-8-9.6-14.9-9.333-17.249.667-39.934,17.7-38.739,29.048.967,9.182,7.959,9.229,14.843,9.156C156.6,125.355,179.9,108.237,178.58,96.948Zm-67.82,33.025c-7.425.946-11.6,6.061-11.606,13.43-.007,6.2,4.331,9.878,10.233,9.125,7.189-.918,11.167-5.992,11.959-13.2C120,133.544,117.047,129.172,110.76,129.973Z"/>
    <path class="cls-4" d="M292.85,334.615c-22.039.118-39.377-16.882-39.467-38.7a39.629,39.629,0,0,1,38.972-39.647c21.469-.193,38.837,17.228,39.047,39.166C331.618,317.906,315.294,334.5,292.85,334.615Zm-.516-64.934c-14.643.21-26.434,12.44-25.907,26.873s13.323,26.769,27.532,25.324c15.171-1.542,24.13-10.308,24.641-25.949C319.086,281.058,307.136,269.469,292.334,269.681Z"/>
    <path class="cls-5" d="M350.532,296.107c-.3,31.055-26.452,57.308-57.357,57.586-31.752.285-58.936-26.874-58.5-58.449a58.1,58.1,0,0,1,59.371-57.251C325.394,238.753,350.835,264.927,350.532,296.107ZM292.85,334.615c22.444-.12,38.768-16.709,38.552-39.178-.21-21.938-17.578-39.359-39.047-39.166a39.629,39.629,0,0,0-38.972,39.647C253.473,317.733,270.811,334.733,292.85,334.615Zm-26.423-38.061c.528,14.438,13.323,26.769,27.532,25.324,15.171-1.542,24.13-10.308,24.641-25.949.486-14.871-11.464-26.46-26.266-26.248C277.691,269.891,265.9,282.121,266.427,296.554Z"/>
    <path class="cls-6" d="M539.132,152.672c0-3.655-1.43-6.6-1.43-10.251-3.572-5.98-3.379-8.379-5.172-12.316-29.385-64.544-73.753-89.534-144.523-80.769-5.113.634-8.957-1.925-13.338-3.276C337.835,34.7,300.18,29.687,261.891,34.91c-32.373,4.416-63.4,12.133-97.472,10.311C105.691,42.077,42.6,108.25,43.637,172.066c.532,32.782-8.665,62.615-11.833,93.961-.536,5.309-1.591,10.582-1.877,15.9-6.4,119.649,71.078,228.787,188.027,264.945,112.541,34.8,235.992-12.938,298.6-114.732,7.706-12.527,13.524-24.224,22.576-37.858,0-3.436,4.012-5.91,4.012-9.346C558.265,350.2,577.163,268.582,539.132,152.672ZM436.666,79.43c39.63,11.7,70.649,53.951,70.768,96.387,6.207,33.716-21.062,53.21-57.6,40.02-40.958-14.788-64.868-46.57-70.758-89.5C373.929,88.767,399.984,68.6,436.666,79.43Zm-284.929-.956c33.277-8.712,55.557,8.9,54.707,43.243-.949,38.267-33.595,82.164-70.159,94.335-37.1,12.351-60.41-3.89-59.636-41.557C77.51,132.745,111.764,88.94,151.737,78.474ZM70.657,244.628c3.893-6.285,9.417.724,13.751,2.426,36.66,14.388,69.133,3.194,97-19.651,45.392-37.216,70.474-83.383,50.644-144.162-2.557-7.839.984-8.9,6.962-10.392,34.948-8.734,69.88-8.746,105-1.012,9.218,2.031,11.731,5.255,8.059,15.034-26.852,71.517,40.812,159.656,113.346,166.4,12.241,1.137,23.764-1.79,35.137-6.146,4.418-1.692,9.562-8.6,13.89-2.457,5.913,8.4,6.418,18.994,4.613,28.9-1.339,7.353-8.587,4.839-13.428,4.911-20.028.3-40.064.125-60.1.125-18.7.038-37.416-.509-56.085.249-10.813.438-16.791-2.861-21.175-13.319-13.98-33.367-39.583-51.252-76.063-51.315-36.915-.062-61.249,19.764-75.705,52.251-3.713,8.344-6.9,12.6-16.927,12.439-40.055-.637-80.127-.184-120.191-.4-4.819-.025-11.768,2.512-13.424-4.915A38.912,38.912,0,0,1,70.657,244.628Zm279.874,51.479c-.3,31.055-26.451,57.308-57.356,57.585-31.753.287-58.936-26.873-58.5-58.448a58.1,58.1,0,0,1,59.37-57.251C325.394,238.752,350.834,264.927,350.531,296.107Zm169.145,33.821c-12.406,94.847-90.027,174.8-187.128,191.914A229.247,229.247,0,0,1,89.1,401.831a232.39,232.39,0,0,1-24.121-75.8c-1.631-11.8,2.352-15.028,13.741-14.581,20.024.786,40.1.22,60.156.22s40.117.355,60.159-.178c9.151-.243,13.4,1.98,17.04,11.666,12.66,33.7,43.352,55.385,76.6,54.218,36.881-1.294,63.288-19.729,76.5-54.339,3.67-9.621,8.276-11.609,17.362-11.525,39.438.367,78.9.913,118.308-.26C520.891,310.771,521.365,317.03,519.676,329.928Z"/>
  </g>
</svg>
