<svg id="katman_1" data-name="katman 1" xmlns="http://www.w3.org/2000/svg" viewBox="0 0 591 591">
  <defs>
    <style>
      .cls-1 {
        fill: #171413;
      }

      .cls-2 {
        fill: #c37181;
      }

      .cls-3 {
        fill: #f7efab;
      }

      .cls-4 {
        fill: #f2f2f3;
      }

      .cls-5 {
        fill: #222223;
      }

      .cls-6 {
        fill: #e1e0e1;
      }
    </style>
  </defs>
  <g>
    <path class="cls-1" d="M576.345,294.913C577.1,450.053,451.918,576,296.309,576.655c-154,.653-280.857-124.619-281.653-278.139C13.843,141.691,138.245,15.535,294.87,14.351,449.172,13.184,575.589,139.191,576.345,294.913ZM101.477,146.58c7.708,0,12.61-.071,17.508.01,51.53.856,73.216,36.728,50.389,82.381-5.69,11.381-9.033,23.939-13.363,35.99-1.424,3.963-3.616,8.322,0,12,8.263,8.409,53.079-1.312,57.8-12.2,15.421-35.553,42.9-55.65,81.293-56.329,35.9-.635,64.13,17.332,78.53,49.924,7.49,16.954,15.868,22.852,32.906,20.38,6.3-.915,12.87-.388,19.29-.035,9.794.538,12.658-3.119,10-12.829-4.363-15.947-10.967-30.83-18.12-45.67-16.09-33.383,5.488-70.334,42.587-73.354,8.9-.725,17.9-.108,28.308-.108C407.254,23.654,193.31,17.273,101.477,146.58ZM84.322,313.6c-37.2-.016-37.346.017-28.961,36.829,2.055,9.022,5.233,17.805,8.18,26.6C97.975,479.811,199.807,547.332,311.5,541.5c105.291-5.5,200.559-85.755,223.885-188.6,8.9-39.234,8.9-39.234-30.209-39.318-2.865-.007-5.8.376-8.586-.083-16.594-2.733-23.817,2.689-27.969,20.714-19.268,83.636-89.609,139.23-172.751,139.142-83.774-.088-154.045-55.379-173.143-138.708-4.049-17.667-10.469-24.266-27.672-21.13C91.584,314.145,87.9,313.6,84.322,313.6Zm102.4-.169c-36.115.108-35.912.039-25.47,30.572a126.132,126.132,0,0,0,22.778,41c36.124,42.75,82.367,61.885,137.517,51.079,58.342-11.432,96.273-47.494,112.282-105.254,1.374-4.958,5.958-10.864.933-15.9-8.422-8.446-53.084,1.535-57.883,12.6-14.741,33.979-40.535,53.308-77.535,55.136-37.272,1.841-66.116-15.085-81.187-48.573C210.185,316.362,201.144,309.864,186.724,313.426Zm320.1-34.789c35.677-.013,35.736-.024,29.333-34.756a166.05,166.05,0,0,0-4.608-18.669c-13.941-45.331-16.143-46.814-63.647-44.08-19.246,1.108-25.627,11.037-16.77,28.223,8.229,15.966,16.31,32.251,18.131,49.906,1.748,16.954,9.37,21.756,24.71,19.469C498.17,278.105,502.537,278.635,506.826,278.637ZM84.737,278.6c6.429,0,12.912-.534,19.274.121,10.469,1.077,14.759-2.319,16.418-13.56,2.913-19.735,10.271-38.3,19.636-56.176,8.89-16.97,2.291-26.79-17.085-27.852-47.145-2.583-49.434-1-63.311,44.4-1.664,5.445-3.25,10.934-4.469,16.491C47.176,278.626,47.212,278.634,84.737,278.6Zm212.07,78.737c34.832-.572,61.278-28.582,60.248-63.812-.98-33.511-29.529-60.838-62.588-59.907A62.348,62.348,0,0,0,233.918,295.9C233.976,330.654,261.876,357.913,296.807,357.34Z"/>
    <path class="cls-2" d="M101.477,146.58c91.833-129.307,305.777-122.926,387.13.159-10.4,0-19.411-.617-28.308.108-37.1,3.02-58.677,39.971-42.587,73.354,7.153,14.84,13.757,29.723,18.12,45.67,2.657,9.71-.207,13.367-10,12.829-6.42-.353-12.987-.88-19.29.035-17.038,2.472-25.416-3.426-32.906-20.38-14.4-32.592-42.627-50.559-78.53-49.924-38.394.679-65.872,20.776-81.293,56.329-4.723,10.889-49.539,20.61-57.8,12.2-3.615-3.678-1.423-8.037,0-12,4.33-12.051,7.673-24.609,13.363-35.99,22.827-45.653,1.141-81.525-50.389-82.381C114.087,146.509,109.185,146.58,101.477,146.58ZM302.768,96.127a23.574,23.574,0,0,1,6.12.075c13.561,2.559,27.705,3.442,28.841-14.65,1.125-17.924-14.4-18.5-27.175-19.621-22.852-2.006-45.358.923-67.749,5.55-12.325,2.548-23.111,6.992-19.875,21.86,3.134,14.4,13.932,15.16,26.814,12.1C266.284,97.513,283.137,94.383,302.768,96.127ZM199.094,110.858c-1.518-9.788-6.94-16.826-17.582-17.725-10.308-.872-31.1,16.542-30.86,25.63.282,10.806,6.816,17.124,17.256,18.116C177.775,137.816,198.749,119.951,199.094,110.858ZM161.254,344a126.132,126.132,0,0,0,22.778,41c36.124,42.75,82.367,61.885,137.517,51.079,58.342-11.432,96.273-47.494,112.282-105.254,1.374-4.958,5.958-10.864.933-15.9-8.422-8.446-53.084,1.535-57.883,12.6-14.741,33.979-40.535,53.308-77.535,55.136-37.272,1.841-66.116-15.085-81.187-48.573-7.974-17.72-17.015-24.218-31.435-20.656C150.609,313.534,150.812,313.465,161.254,344Z"/>
    <path class="cls-3" d="M84.322,313.6c3.582,0,7.262.545,10.729-.087,17.2-3.136,23.623,3.463,27.672,21.13,19.1,83.329,89.369,138.62,173.143,138.708,83.142.088,153.483-55.506,172.751-139.142,4.152-18.025,11.375-23.447,27.969-20.714,2.791.459,5.721.076,8.586.083,39.108.084,39.108.084,30.209,39.318C512.055,455.742,416.787,536,311.5,541.5,199.807,547.332,97.975,479.811,63.541,377.026c-2.947-8.8-6.125-17.58-8.18-26.6C46.976,313.612,47.122,313.579,84.322,313.6Zm451.837-69.719a166.05,166.05,0,0,0-4.608-18.669c-13.941-45.331-16.143-46.814-63.647-44.08-19.246,1.108-25.627,11.037-16.77,28.223,8.229,15.966,16.31,32.251,18.131,49.906,1.748,16.954,9.37,21.756,24.71,19.469,4.195-.625,8.562-.1,12.851-.094C542.5,278.624,542.562,278.613,536.159,243.881ZM104.011,278.724c10.469,1.077,14.759-2.319,16.418-13.56,2.913-19.735,10.271-38.3,19.636-56.176,8.89-16.97,2.291-26.79-17.085-27.852-47.145-2.583-49.434-1-63.311,44.4-1.664,5.445-3.25,10.934-4.469,16.491-8.024,36.6-7.988,36.608,29.537,36.583C91.166,278.6,97.649,278.069,104.011,278.724Z"/>
    <path class="cls-4" d="M302.768,96.127c-19.631-1.744-36.484,1.386-53.024,5.315-12.882,3.059-23.68,2.3-26.814-12.1-3.236-14.868,7.55-19.312,19.875-21.86,22.391-4.627,44.9-7.556,67.749-5.55,12.777,1.122,28.3,1.7,27.175,19.621-1.136,18.092-15.28,17.209-28.841,14.65A23.574,23.574,0,0,0,302.768,96.127ZM181.512,93.133c-10.308-.872-31.1,16.542-30.86,25.63.282,10.806,6.816,17.124,17.256,18.116,9.867.937,30.841-16.928,31.186-26.021C197.576,101.07,192.154,94.032,181.512,93.133Z"/>
    <path class="cls-5" d="M297.053,253.819c22.83.646,42.04,20.905,41.141,43.388-.887,22.175-22.226,42.177-44.018,41.261-22.272-.937-41.857-21.941-41.112-44.091C253.826,271.73,273.961,253.166,297.053,253.819Zm.335,13.6c-15.1-.962-29.936,11.768-29.679,26.993.27,16.007,8.377,26.917,25.133,28.985,15.414,1.9,29.585-10.176,30.845-25.466C324.935,282.772,312.537,268.387,297.388,267.421Z"/>
    <path class="cls-6" d="M296.807,357.34c-34.931.573-62.831-26.686-62.889-61.442a62.348,62.348,0,0,1,60.549-62.277c33.059-.931,61.608,26.4,62.588,59.907C358.085,328.758,331.639,356.768,296.807,357.34Zm.246-103.521c-23.092-.653-43.227,17.911-43.989,40.558-.745,22.15,18.84,43.154,41.112,44.091,21.792.916,43.131-19.086,44.018-41.261C339.093,274.724,319.883,254.465,297.053,253.819Zm-29.344,40.6c.27,16.007,8.377,26.917,25.133,28.985,15.414,1.9,29.585-10.176,30.845-25.466,1.248-15.161-11.15-29.546-26.3-30.512C282.291,266.459,267.452,279.189,267.709,294.414Z"/>
  </g>
</svg>
