<svg id="katman_1" data-name="katman 1" xmlns="http://www.w3.org/2000/svg" viewBox="0 0 591 591">
  <defs>
    <style>
      .cls-1 {
        fill: #f4c718;
      }

      .cls-2 {
        fill: #f2f2f3;
      }

      .cls-3 {
        fill: #3b3b3c;
      }

      .cls-4 {
        fill: #e1e0e1;
      }

      .cls-5 {
        fill: #1d1d1b;
      }
    </style>
  </defs>
  <g>
    <path class="cls-1" d="M118.324,167.874q6.314-16.066,12.625-32.132c10.693,20.626,16.764,22.392,33.778,8.417,16.216-13.317,33.5-24.737,52.947-32.647,11.355-4.619,22.787-10.2,17.1-24.7-6.195-15.779-19-11.188-31.018-6.58-24.458,9.378-44.58,25.851-66.23,39.832,5.874-25.041,21.977-40.545,45.03-50.893,82.431-37,163.033-34.615,241.784,10.2,24.223,13.784,27.957,40.823,37.267,63.388,16.47,39.915,25.116,82.12,30.46,125.041,1.424,11.441-.421,15.6-12.568,14.98-19.351-.982-43.312,6.27-56.92-2.695-14.458-9.526-5.534-35.8-9.121-54.465-2.3-11.964-3.109-24.2-5.154-36.226-10.016-58.892-31.448-78.934-91.685-86.435-32.989-4.108-64.3,1.76-94.5,15.043-17.426,7.664-28.663,19.663-33.972,38.781-9.891,35.617-13.552,72.008-15.409,108.545-.745,14.672-6.036,18.36-19.362,17.468-18.493-1.237-43.624,5.858-53.864-3.617-11.419-10.566,2.6-34.491,3.818-52.778.239-3.577.67-7.142,1-10.716C125.665,200,129.345,187.439,118.324,167.874Z"/>
    <path class="cls-2" d="M130.469,313.323c9.344,0,18.729.57,28.024-.1,28.107-2.044,50.887-1.455,65.73,31.932,13.292,29.9,45.515,40.636,78.891,37.326,34.281-3.4,59.4-21.864,72.046-53.707,4.9-12.351,10.116-15.947,22.744-15.717,41.673.761,83.382.835,125.049-.105,14.264-.321,17.727,3.011,16.3,17.729C527.068,456.805,396.258,558.2,266.584,541.2,155.9,526.7,71.813,447.912,51.1,339.3c-4.95-25.957-4.95-25.963,21.15-25.978Q101.36,313.309,130.469,313.323Zm.48-177.581c10.693,20.626,16.764,22.392,33.778,8.417,16.216-13.317,33.5-24.737,52.947-32.647,11.355-4.619,22.787-10.2,17.1-24.7-6.195-15.779-19-11.188-31.018-6.58-24.458,9.378-44.58,25.851-66.23,39.832Q134.235,127.905,130.949,135.742ZM86.86,209.1c-7.75-12.907,2.846-22.465,6.1-33.364,6.685-8.325,15.239-10.633,25.367-7.867,11.019,19.566,7.339,32.125-14,47.816C97.638,215.8,91.5,214.43,86.86,209.1Z"/>
    <path class="cls-3" d="M204.688,273.29c-6.01-40.825-.076-79.642,13.132-117.5,4.056-11.627,15.961-14.069,25.676-17.782,23.031-8.8,47.116-13.179,71.648-8.292,55.595,11.076,67.4,26.532,71.558,93.174a272.561,272.561,0,0,1-1.935,50.3c-19.454-39.259-47.252-67.481-91.942-66.247C250.4,208.109,221.5,233.124,204.688,273.29Zm312.806-11.48c.337,6.89,4.176,14.557,13.786,12.839,9.287-1.66,7.335-9.816,6.654-15.6-3.975-33.714-16.192-64.476-36.135-93.02C503.866,198.316,515.9,229.121,517.494,261.81ZM92.959,175.74c-3.389-1.827-3.684-5.034-3.732-8.351l0,0c2.854-2.17,4.3-4.908,3.2-8.513-.149-.493-1.036-.762-1.582-1.135L88.527,166.8l.394.332-.394-.332c-26.55,26.438-30.469,61.942-38.154,95.849-1.653,7.3,1.371,12.512,10.218,12.571,8.711.058,9.723-5.181,11.224-12.315,3.825-18.218-1.589-39.166,15.044-53.8C79.11,196.2,89.707,186.639,92.959,175.74Zm200.7,162.62c22.359.581,42.669-19.293,42.976-42.053.32-23.705-17.84-42.606-41.332-43.018-23.669-.414-42.541,17.774-42.829,41.278C252.188,317.724,271.043,337.772,293.658,338.36Zm1.928-71.4c15.508.591,28.038,14.273,26.6,30.037-1.51,16.6-10.994,25.912-27.872,26.3-15.549.36-28.834-13.391-28.428-28.59C266.289,279.683,280.526,266.381,295.586,266.956Z"/>
    <path class="cls-4" d="M356.65,295.425a61.977,61.977,0,0,1-63.241,61.968c-33.759-.457-61.44-28.342-61.421-61.874.019-33.964,29.686-63.161,63.526-62.519C329.03,233.635,356.675,261.862,356.65,295.425Zm-104.177-.858c-.285,23.157,18.57,43.2,41.185,43.793,22.359.581,42.669-19.293,42.976-42.053.32-23.705-17.84-42.606-41.332-43.018C271.633,252.875,252.761,271.063,252.473,294.567ZM294.317,323.3c16.878-.39,26.362-9.7,27.872-26.3,1.435-15.764-11.1-29.446-26.6-30.037-15.06-.575-29.3,12.727-29.7,27.749C265.483,309.9,278.768,323.655,294.317,323.3Z"/>
    <path class="cls-5" d="M455.1,63.368C357.557-3.776,230.19-5.1,133.728,64.12,88.468,96.6,51.559,134.769,35.569,184.065c-9.38,24.753-42.008,123.715-3.631,215.6,11.12,26.629,18.283,39.984,22.781,45.075C111.56,535.468,220.2,589.956,328.142,576.311c118.294-14.953,212.41-99.984,241.6-218.272C596.706,248.758,549.994,128.69,455.1,63.368Zm82.836,195.686c.682,5.779,2.632,13.935-6.655,15.6-9.609,1.718-13.447-5.95-13.786-12.84-1.6-32.689-13.627-63.493-15.7-95.775C521.743,194.578,533.959,225.341,537.934,259.054ZM88.527,166.8l2.311-9.059c.546.373,1.433.642,1.582,1.135,1.1,3.605-.343,6.343-3.2,8.509.057,3.323.352,6.53,3.741,8.357,6.686-8.325,15.238-10.633,25.37-7.868q6.306-16.064,12.619-32.131,3.288-7.836,6.572-15.672C143.4,95.028,159.5,79.524,182.551,69.176c82.431-37,163.034-34.615,241.785,10.2C448.558,93.159,452.29,120.2,461.6,142.763c16.471,39.914,25.115,82.12,30.459,125.041,1.426,11.441-.421,15.6-12.567,14.98-19.353-.983-43.314,6.27-56.921-2.7-14.457-9.525-5.535-35.8-9.12-54.465-2.3-11.963-3.11-24.2-5.157-36.226-10.013-58.891-31.448-78.933-91.682-86.433-32.989-4.109-64.3,1.759-94.506,15.042-17.425,7.664-28.662,19.663-33.973,38.781-9.89,35.618-13.549,72.008-15.407,108.544-.746,14.672-6.036,18.361-19.362,17.47-18.493-1.238-43.625,5.856-53.863-3.618-11.421-10.566,2.595-34.491,3.816-52.778.24-3.578.669-7.143,1.013-10.713-6.695.11-12.831-1.263-17.474-6.588-16.633,14.633-11.219,35.581-15.044,53.8-1.5,7.134-2.513,12.373-11.224,12.315-8.847-.059-11.871-5.273-10.218-12.571C58.058,228.74,61.977,193.236,88.527,166.8Zm204.3,40.14c-42.43,1.171-71.325,26.186-88.137,66.352-6.01-40.824-.077-79.642,13.132-117.505,4.056-11.626,15.96-14.068,25.676-17.781,23.03-8.8,47.115-13.179,71.649-8.292,55.6,11.077,67.4,26.531,71.557,93.174a272.375,272.375,0,0,1-1.935,50.3C365.313,233.926,337.515,205.7,292.825,206.938Zm63.826,88.487a61.978,61.978,0,0,1-63.243,61.967c-33.759-.457-61.44-28.342-61.42-61.873.018-33.964,29.686-63.161,63.526-62.52C329.032,233.634,356.675,261.862,356.651,295.425Zm182.607,35.25c-12.192,126.13-143,227.52-272.674,210.527C155.9,526.7,71.815,447.911,51.1,339.3c-4.951-25.956-4.951-25.963,21.149-25.977q29.111-.016,58.219,0c9.344,0,18.728.572,28.024-.105,28.107-2.044,50.887-1.454,65.731,31.934,13.292,29.9,45.516,40.635,78.89,37.325,34.28-3.4,59.4-21.864,72.045-53.708,4.905-12.35,10.117-15.947,22.744-15.716,41.673.76,83.384.835,125.05-.105C537.216,312.625,540.68,315.958,539.258,330.675Z"/>
  </g>
</svg>
