<svg id="katman_1" data-name="katman 1" xmlns="http://www.w3.org/2000/svg" viewBox="0 0 591 591">
  <defs>
    <style>
      .cls-1 {
        fill: #f09426;
      }

      .cls-2 {
        fill: #f2f2f3;
      }

      .cls-3 {
        fill: #171413;
      }

      .cls-4 {
        fill: #f4c718;
      }

      .cls-5 {
        fill: #e1e0e1;
      }

      .cls-6 {
        fill: #1d1d1b;
      }
    </style>
  </defs>
  <g>
    <path class="cls-1" d="M453.09,279.243c-8.234.015-16.469-.05-24.7.027-27.149.252-48.456,1.673-66.9-31.206-31.571-56.264-112.407-46.682-141.752,12.564-7.154,14.443-14.707,19.691-30.774,19.069-35.629-1.378-71.39-1.494-107.013-.054-18.293.739-21.967-5.547-19.6-22.22C76.475,158.131,165.209,72.759,266.037,62.248c126.629-13.2,233.555,64.047,260.425,188.141,6.247,28.847,6.247,28.846-23.965,28.841Q477.794,279.225,453.09,279.243Zm-158.844-97.11c25.455.57,47.436-20.774,47.584-46.205.137-23.7-21.929-46.4-45.426-46.719-25.024-.344-47.4,21.589-47.6,46.659C248.612,160.094,269.719,181.583,294.246,182.133ZM239.6,101.9c.019-12.259-9.458-18.687-23.3-13.91-26.178,9.033-49.293,23.59-69.585,42.452-7.551,7.019-9.287,15.242-2.277,23.544,7.146,8.463,15.52,7.95,23.33.949,18.041-16.173,38.5-28.281,60.82-37.491C235.4,114.628,240.022,109.971,239.6,101.9ZM111.309,219.181c9.451-.214,23.718-18.449,22.923-29.925-.644-9.313-5.77-15.173-15.387-15.855-9.484-.672-24.051,17.037-23.848,29.076C95.172,212.9,100.442,218.908,111.309,219.181Z"/>
    <path class="cls-2" d="M137.351,312.839c10.966,0,21.969.576,32.892-.113,24.789-1.564,44.442-1.459,57.186,28.879,12.445,29.624,43.6,40.482,76.277,37.076,32.543-3.392,56.62-20.654,68.493-51.363,4.56-11.792,10.077-15.022,22.049-14.775,37.681.775,75.428,1.32,113.066-.154,19.068-.747,23.9,4.028,20.675,23.313-15.9,95.2-97.02,177.9-189.974,191.936C230.809,543.833,131.276,494.58,85.607,403.016a261.211,261.211,0,0,1-23.535-71.754c-2.32-13.147-.59-20.077,15.68-18.8C97.505,314.021,117.475,312.835,137.351,312.839ZM216.3,87.986c-26.178,9.033-49.293,23.59-69.585,42.452-7.551,7.019-9.287,15.242-2.277,23.544,7.146,8.463,15.52,7.95,23.33.949,18.041-16.173,38.5-28.281,60.82-37.491,6.812-2.812,11.435-7.469,11-15.553C239.619,89.637,230.142,83.209,216.3,87.986ZM111.294,219.2c-10.852-.288-16.122-6.292-16.3-16.719-.2-12.039,14.364-29.748,23.848-29.076,9.617.682,14.743,6.542,15.387,15.855C135.027,200.732,120.76,218.967,111.294,219.2Z"/>
    <path class="cls-3" d="M294.246,182.133c-24.527-.55-45.634-22.039-45.441-46.265.2-25.07,22.575-47,47.6-46.659,23.5.323,45.563,23.018,45.426,46.719C341.682,161.359,319.7,182.7,294.246,182.133Zm.547-67.487c-12.178,1.262-20.918,8.1-19.758,20.871.951,10.465,5.274,21.571,19.461,21.6,14.358.032,21.994-8.6,21.872-21.743C316.254,123.123,308.359,115.513,294.793,114.646Zm40.38,180.291c.376,22.51-17.151,41.257-38.992,41.708-21.726.448-40.4-17.787-40.946-39.976A39.671,39.671,0,0,1,294.4,255.6C317.248,255.219,334.793,272.144,335.173,294.937Zm-13.142.706c-.008-14.825-12.664-27.407-27.225-27.068-14.452.336-27.517,13.744-26.261,28.186,1.358,15.615,10.273,24.832,26.321,25.564C310.136,323.021,322.04,310.993,322.031,295.643Z"/>
    <path class="cls-4" d="M294.793,114.646c13.566.867,21.461,8.477,21.575,20.73.122,13.145-7.514,21.775-21.872,21.743-14.187-.031-18.51-11.137-19.461-21.6C273.875,122.744,282.615,115.908,294.793,114.646Z"/>
    <path class="cls-5" d="M295.793,354.8c-33.261.1-60.3-26.721-60.041-59.552.251-31.553,27.516-58.771,59.1-58.992,32.518-.228,60.235,27.605,59.836,60.088A59.242,59.242,0,0,1,295.793,354.8Zm39.38-59.86c-.38-22.793-17.925-39.718-40.772-39.333a39.671,39.671,0,0,0-39.166,41.065c.542,22.189,19.22,40.424,40.946,39.976C318.022,336.194,335.549,317.447,335.173,294.937Zm-40.367-26.362c-14.452.336-27.517,13.744-26.261,28.186,1.358,15.615,10.273,24.832,26.321,25.564,15.27.7,27.174-11.332,27.165-26.682C322.023,280.818,309.367,268.236,294.806,268.575Z"/>
    <path class="cls-6" d="M548.288,389.4c29.28-76.664,15.878-145.451,0-188.731,0-.817-.552-1.5-.552-2.32-.653-.479-.5-1.234-1.034-1.777-10.428-27.107-20.83-39.579-20.83-39.579h0C468.783,62.218,354.9,9.472,246.018,30.888,122.578,55.167,30.55,160.8,25.63,283.853c-4.9,122.656,76.334,236.162,193.25,270.008C326.2,584.93,436.886,548.6,504.87,464.178c5.92-5.653,7.568-6.065,30.3-45.312,3.265-5.636,5.359-11.468,7.862-17.178M62.349,257.422C76.475,158.131,165.209,72.759,266.038,62.248c126.627-13.2,233.553,64.047,260.426,188.141,6.243,28.847,6.243,28.845-23.969,28.841q-24.7,0-49.405,0c-8.233.029-16.47-.036-24.7.041-27.149.252-48.457,1.673-66.9-31.206-31.572-56.264-112.407-46.682-141.755,12.564-7.152,14.443-14.705,19.691-30.772,19.069-35.63-1.378-71.389-1.494-107.012-.054C63.649,280.382,59.978,274.1,62.349,257.422Zm292.337,38.919A59.246,59.246,0,0,1,295.793,354.8c-33.261.1-60.3-26.721-60.041-59.552.25-31.554,27.517-58.771,59.1-58.992C327.365,236.024,355.085,263.858,354.686,296.341Zm-16.671,231.3C230.809,543.833,131.275,494.58,85.608,403.016a261.18,261.18,0,0,1-23.536-71.754c-2.321-13.148-.592-20.078,15.681-18.8,19.751,1.556,39.72.37,59.6.37,10.966.007,21.968.58,32.891-.109,24.789-1.565,44.444-1.459,57.187,28.879,12.446,29.624,43.6,40.482,76.278,37.076,32.541-3.392,56.618-20.655,68.494-51.363,4.557-11.792,10.075-15.022,22.046-14.776,37.682.775,75.43,1.321,113.067-.153,19.068-.747,23.9,4.027,20.675,23.314C512.085,430.9,430.97,513.6,338.015,527.639Z"/>
  </g>
</svg>
