<svg id="katman_1" data-name="katman 1" xmlns="http://www.w3.org/2000/svg" viewBox="0 0 591 591">
  <defs>
    <style>
      .cls-1 {
        fill: #171413;
      }

      .cls-2 {
        fill: #1b75b8;
      }

      .cls-3 {
        fill: #f4c718;
      }

      .cls-4 {
        fill: #f2f2f3;
      }

      .cls-5 {
        fill: #222223;
      }

      .cls-6 {
        fill: #e1e0e1;
      }
    </style>
  </defs>
  <g>
    <path class="cls-1" d="M296.561,44.709C434.219,45.041,546.609,158.25,546.527,296.5c-.083,137.377-113.742,250.089-251.9,249.8C157.128,546,43.806,431.953,44.476,294.537,45.148,156.861,158.648,44.376,296.561,44.709ZM187.513,156.46a53.429,53.429,0,0,1,18.945-12.731c6.263,6.329,13.119,12.185,18.647,19.1,7.78,9.734,13.963,9.764,22.417.372,11.47-12.741,24.653-23.931,36.313-36.516,8.572-9.254,15.649-8.555,23.922-.021,12.847,13.254,26.285,25.936,39.1,39.219,5.331,5.525,9.215,6.894,15.452.752,18.013-17.741,36.638-34.86,55.245-52.432-13.382-11.214-25.662-16.631-38.063-21.525Q280.215,53.491,186.571,105c-7.155,3.946-14.175,7.679-3.706,15.661l-19.018,13.152c-18.772-22.313-22.389,5.429-32.468,10.4-8.745,4.314-7.624,11.032-.127,17.915,14.079,12.926,27.247,26.842,40.8,40.342,17.907,17.84,17.268,17.134,35.542.5,10.9-9.924,12.578-16.775.141-26.227C200.2,171.026,194.2,163.291,187.513,156.46Zm-66.369,27.289c-4.331-4.3-8.423-11.449-14.092-1.34-15.663,27.928-26.814,57.349-29.367,89.561-.288,3.636-.842,9,4.607,8.206,21.94-3.21,45.437,6.908,64.8-15.932,26.938-31.77,28.776-30.214-3.81-56.37C147.835,185.16,143.354,180.277,121.144,183.749Zm295.61,293.408c-17.773-16.951-35.945-32.9-52.344-50.5-8.287-8.894-12.771-6.861-19.622.419-11.778,12.515-24.26,24.365-36.261,36.674-8.893,9.119-17.026,9.29-26.012-.224-12.234-12.953-25.167-25.246-37.665-37.954-4.084-4.153-7.191-9.226-13.784-2.821-18.892,18.357-38.116,36.372-57.982,55.256C253.979,527.435,348.539,526.807,416.754,477.157ZM158.875,307.168c14.124,14.2,27.15,23.673,37.17,35.18,28.459,32.683,61,61.188,90.42,92.792,6.252,6.716,9.648,3.724,15.512-.8,29.887-23.041,53.951-52.046,81.21-77.751,15.946-15.038,32.045-29.914,48.075-44.862-13.214-4.574-23.3-3.736-33.184-4.764-16.171-1.68-25.827,2-31.97,19.712-9.631,27.774-49.3,54.482-74.787,50.455-26.7-4.219-52.755-17.569-61.947-43.252-9.724-27.167-26.4-29.112-48.91-26.8C174.9,307.654,169.229,307.168,158.875,307.168Zm3.465-28.054,1.535,5.025c15.659,0,31.322-.239,46.973.108,7.1.157,7.92-4.57,9.6-9.536,11.868-35.073,36.067-55.08,73.322-56.89,35.1-1.7,60.509,17.677,77.01,56.981,2.065,4.919,3.272,9.453,10.013,9.354,15.547-.228,31.1-.072,46.649-.072q1.1-2.469,2.195-4.939c-42.5-41.866-85.175-83.568-127.355-125.758-7.111-7.113-10.312-2.833-15.026,1.854Q224.879,217.26,162.34,279.114Zm-55.458,31.493c-4.575,0-7.166.321-9.653-.052C80.855,308.1,74.413,312.917,78.468,330.9c5.9,26.167,13.767,51.272,26.994,74.731,4.38,7.768,7.419,10.735,14.837,2.939,14.881-15.639,30.521-30.554,45.645-45.967,3.223-3.285,9.437-7.237,3.116-12.322C149.343,334.42,138.621,303.775,106.882,310.607ZM477.607,417.941c20.083-30.933,31.832-60.623,35.1-93.434.464-4.66,2.827-10.223-3.608-13.363-6.755-3.3-48.134.562-53.408,5.607-10.58,10.12-20.678,20.746-31.32,30.8-5.22,4.933-5.739,8.512-.343,14.015C441.775,379.671,459.007,398.286,477.607,417.941Zm5.716-138.057c9.6,0,16.607.07,23.611-.023,5.4-.072,7.923-2.183,7.094-8.3-4.32-31.842-13.6-61.937-30.352-89.552-3.344-5.511-5.783-6.81-11.174-1.1-15.718,16.643-32.263,32.507-48.481,48.679-3.131,3.122-7.819,6.823-2.475,10.835C441.716,255.571,451.888,287.286,483.323,279.884ZM240.31,295.162c-.377,29.4,24.5,55.117,54.026,55.855,30.189.755,56.365-24.733,56.67-55.182.3-29.8-24.061-54.79-54.053-55.446A55.339,55.339,0,0,0,240.31,295.162ZM398.438,219.87c4.21-2.39,6.071-2.99,7.309-4.218q29.215-28.975,58.3-58.083c4.641-4.619,1.522-7.983-1.7-11.267-4.909-5.008-10.507-9.455-14.788-14.937-7.179-9.193-12.359-6.836-19.333.656C413.9,147.42,398.365,161.7,383.97,177.05c-4.159,4.433-14.687,7.7-9.038,16.1C381.567,203.011,390.663,211.222,398.438,219.87Zm68.85,217.323c-2.755-3.012-5.212-5.908-7.887-8.587-16.2-16.226-32.849-32.033-48.52-48.753-7.66-8.172-13-7.488-19.38.725a67.443,67.443,0,0,1-10.747,10.835c-7.952,6.45-9.264,11.567-.591,19.467,16.46,14.993,31.557,31.472,47.552,46.992,3.95,3.832,7.149,12.815,15.038,6.028C451.806,456.111,461.127,448.363,467.288,437.193Zm-313.721,30c2.944-2.522,5.487-4.423,7.708-6.646,17.107-17.13,33.974-34.5,51.315-51.392,5.694-5.545,7.157-9.748.374-15.353a80.84,80.84,0,0,1-13.453-13.53c-6.8-9.11-12.046-7.781-19.316-.063-14.847,15.764-30.857,30.433-45.809,46.1-3.793,3.975-13.567,7.026-8.238,14.624A93.437,93.437,0,0,0,153.567,467.19Z"/>
    <path class="cls-2" d="M416.754,477.157c-68.215,49.65-162.775,50.278-243.67.848,19.866-18.884,39.09-36.9,57.982-55.256,6.593-6.405,9.7-1.332,13.784,2.821,12.5,12.708,25.431,25,37.665,37.954,8.986,9.514,17.119,9.343,26.012.224,12-12.309,24.483-24.159,36.261-36.674,6.851-7.28,11.335-9.313,19.622-.419C380.809,444.255,398.981,460.206,416.754,477.157ZM215.322,104.516c10.524-5.242,21.593-8.6,27.293,5.356,5.175,12.668-4.266,18.036-14.452,22.4-7.5,3.213-14.5,7.6-21.712,11.459,6.27,6.327,13.126,12.183,18.654,19.1,7.78,9.734,13.963,9.764,22.417.372,11.47-12.741,24.653-23.931,36.313-36.516,8.572-9.254,15.649-8.555,23.922-.021,12.847,13.254,26.285,25.936,39.1,39.219,5.331,5.525,9.215,6.894,15.452.752,18.013-17.741,36.638-34.86,55.245-52.432-13.382-11.214-25.662-16.631-38.063-21.525Q280.215,53.491,186.571,105c-7.155,3.946-14.175,7.679-3.724,15.685Q199.085,112.6,215.322,104.516ZM106.882,310.607c31.739-6.832,42.461,23.813,62.178,39.676,6.321,5.085.107,9.037-3.116,12.322-15.124,15.413-30.764,30.328-45.645,45.967-7.418,7.8-10.457,4.829-14.837-2.939C92.235,382.174,84.369,357.069,78.468,330.9c-4.055-17.985,2.387-22.8,18.761-20.347C99.716,310.928,102.307,310.607,106.882,310.607ZM477.607,417.941c-18.6-19.655-35.832-38.27-53.583-56.375-5.4-5.5-4.877-9.082.343-14.015,10.642-10.054,20.74-20.68,31.32-30.8,5.274-5.045,46.653-8.9,53.408-5.607,6.435,3.14,4.072,8.7,3.608,13.363C509.439,357.318,497.69,387.008,477.607,417.941Zm5.716-138.057c-31.435,7.4-41.607-24.313-61.777-39.458-5.344-4.012-.656-7.713,2.475-10.835,16.218-16.172,32.763-32.036,48.481-48.679,5.391-5.709,7.83-4.41,11.174,1.1,16.751,27.615,26.032,57.71,30.352,89.552.829,6.113-1.69,8.224-7.094,8.3C499.93,279.954,492.924,279.884,483.323,279.884Zm-340.038-72.01c32.586,26.156,30.748,24.6,3.81,56.37-19.366,22.84-42.863,12.722-64.8,15.932-5.449.8-4.895-4.57-4.607-8.206,2.553-32.212,13.7-61.633,29.367-89.561,5.669-10.109,9.761-2.962,14.081,1.341-3.724,6.552-8.222,12.8-10.943,19.735-3.05,7.779-.973,14.936,6.989,19.258,7.319,3.973,13.387,1.59,18.363-4.281C138.362,215.135,140.719,211.416,143.285,207.874Z"/>
    <path class="cls-3" d="M158.875,307.168c10.354,0,16.026.486,21.589-.085,22.514-2.313,39.186-.368,48.91,26.8,9.192,25.683,35.246,39.033,61.947,43.252,25.489,4.027,65.156-22.681,74.787-50.455,6.143-17.716,15.8-21.392,31.97-19.712,9.888,1.028,19.97.19,33.184,4.764-16.03,14.948-32.129,29.824-48.075,44.862-27.259,25.7-51.323,54.71-81.21,77.751-5.864,4.52-9.26,7.512-15.512.8-29.417-31.6-61.961-60.109-90.42-92.792C186.025,330.841,173,321.37,158.875,307.168Zm5-23.029c15.659,0,31.322-.239,46.973.108,7.1.157,7.92-4.57,9.6-9.536,11.868-35.073,36.067-55.08,73.322-56.89,35.1-1.7,60.509,17.677,77.01,56.981,2.065,4.919,3.272,9.453,10.013,9.354,15.547-.228,31.1-.072,46.649-.072q1.1-2.469,2.195-4.939c-42.5-41.866-85.175-83.568-127.355-125.758-7.111-7.113-10.312-2.833-15.026,1.854Q224.879,217.26,162.34,279.114Zm241.872-68.487q29.215-28.975,58.3-58.083c4.641-4.619,1.522-7.983-1.7-11.267-4.909-5.008-10.507-9.455-14.788-14.937-7.179-9.193-12.359-6.836-19.333.656C413.9,147.42,398.365,161.7,383.97,177.05c-4.159,4.433-14.687,7.7-9.038,16.1,6.635,9.865,15.731,18.076,23.506,26.724C402.648,217.48,404.509,216.88,405.747,215.652ZM459.4,428.606c-16.2-16.226-32.849-32.033-48.52-48.753-7.66-8.172-13-7.488-19.38.725a67.443,67.443,0,0,1-10.747,10.835c-7.952,6.45-9.264,11.567-.591,19.467,16.46,14.993,31.557,31.472,47.552,46.992,3.95,3.832,7.149,12.815,15.038,6.028,9.053-7.789,18.374-15.537,24.535-26.707C464.533,434.181,462.076,431.285,459.4,428.606ZM161.275,460.544c17.107-17.13,33.974-34.5,51.315-51.392,5.694-5.545,7.157-9.748.374-15.353a80.84,80.84,0,0,1-13.453-13.53c-6.8-9.11-12.046-7.781-19.316-.063-14.847,15.764-30.857,30.433-45.809,46.1-3.793,3.975-13.567,7.026-8.238,14.624a93.437,93.437,0,0,0,27.419,26.256C156.511,464.668,159.054,462.767,161.275,460.544ZM185.74,157.018c-9.268,6.7-18.786,18.662-30.42,6.576-12.149-12.62,2.424-20.672,8.525-29.779-18.77-22.312-22.387,5.43-32.466,10.4-8.745,4.314-7.624,11.032-.127,17.915,14.079,12.926,27.247,26.842,40.8,40.342,17.907,17.84,17.268,17.134,35.542.5,10.9-9.924,12.578-16.775.141-26.227-7.531-5.723-13.531-13.458-20.22-20.289A5.986,5.986,0,0,0,185.74,157.018Z"/>
    <path class="cls-4" d="M187.513,156.46a5.986,5.986,0,0,0-1.773.558c-9.268,6.7-18.786,18.662-30.42,6.576-12.149-12.62,2.424-20.672,8.525-29.779q9.512-6.575,19.011-13.139,16.224-8.067,32.466-16.16c10.524-5.242,21.593-8.6,27.293,5.356,5.175,12.668-4.266,18.036-14.452,22.4-7.5,3.213-14.5,7.6-21.712,11.459A53.433,53.433,0,0,0,187.513,156.46Zm-66.38,27.29c-3.724,6.552-8.222,12.8-10.943,19.735-3.05,7.779-.973,14.936,6.989,19.258,7.319,3.973,13.387,1.59,18.363-4.281,2.82-3.327,5.177-7.046,7.743-10.588C147.835,185.16,143.354,180.277,121.133,183.75Z"/>
    <path class="cls-5" d="M296.005,332.74c-21.33.127-37.575-15.723-37.712-36.794a37.245,37.245,0,1,1,74.482-.8C332.986,316.573,317.3,332.615,296.005,332.74Zm24.451-38c-.482-14.308-11.817-24.938-26.2-23.873-14.992,1.111-22.782,10.188-23.567,24.633-.745,13.713,11.576,25.426,25.305,25.266A24.952,24.952,0,0,0,320.456,294.742Z"/>
    <path class="cls-6" d="M240.31,295.162a55.339,55.339,0,0,1,56.643-54.773c29.992.656,54.352,25.644,54.053,55.446-.3,30.449-26.481,55.937-56.67,55.182C264.813,350.279,239.933,324.557,240.31,295.162Zm55.695,37.578c21.292-.125,36.981-16.167,36.77-37.594a37.245,37.245,0,1,0-74.482.8C258.43,317.017,274.675,332.867,296.005,332.74Zm-1.746-61.871c-14.992,1.111-22.782,10.188-23.567,24.633-.745,13.713,11.576,25.426,25.305,25.266a24.952,24.952,0,0,0,24.459-26.026C319.974,280.434,308.639,269.8,294.259,270.869Z"/>
  </g>
</svg>
