<svg id="katman_1" data-name="katman 1" xmlns="http://www.w3.org/2000/svg" viewBox="0 0 591 591">
  <defs>
    <style>
      .cls-1 {
        fill: #dd282b;
      }

      .cls-2 {
        fill: #f2f2f3;
      }

      .cls-3 {
        fill: #222223;
      }

      .cls-4 {
        fill: #e1e0e1;
      }

      .cls-5 {
        fill: #1d1d1b;
      }
    </style>
  </defs>
  <g>
    <path class="cls-1" d="M140.043,279.4c-19.225.012-38.528-1.059-57.65.342-16.109,1.18-20.6-4.17-17.641-19.627C81.5,172.557,129.719,109.5,213.039,77.134c137.212-53.3,286.505,29.643,316.333,173.815,5.645,27.283,4.69,28.416-23.811,28.407-37.076-.012-74.154-.166-111.229.1-8.967.063-14.134-1.232-18.063-11.548C363.05,233.2,332.035,211.84,297.1,212.97c-37.115,1.2-63.585,19.56-77.358,54.321-3.576,9.026-7.969,12.707-17.908,12.333C181.26,278.852,160.641,279.391,140.043,279.4ZM242.581,101.421c-3.141-11.55-10.147-18.175-23.6-13.149a215.408,215.408,0,0,0-69.365,42.205c-7.3,6.586-10.83,14.787-3.877,23.323,7.345,9.017,16.753,8.767,25.132,1.392a201.568,201.568,0,0,1,58.893-36.1C237.292,116.079,242.387,111.2,242.581,101.421ZM137.672,192.3c-1.324-10.01-5.4-17.654-15.045-17.633-17.662.039-21.906,14.837-25.12,27.836-2.545,10.293,4.977,18.014,15.019,17.717C130.106,219.7,130.938,202.646,137.672,192.3Z"/>
    <path class="cls-2" d="M139.124,313.006c10.985.011,22.039.8,32.941-.148,25.438-2.215,44.664-.427,57.33,29.371,12.259,28.839,42.531,40.439,74.189,38.018,34.236-2.619,59.3-21.332,71.986-53.271,4.362-10.978,8.654-14.455,20.163-14.242,40.493.751,81.023.928,121.506-.036,13.845-.329,15.6,4.239,13.991,16.46C514.72,454.71,394.245,554.641,253.377,528.047,156.08,509.678,82.42,433.666,65.022,336.535c-3.256-18.183.212-26.045,20.591-23.923C103.272,314.451,121.274,312.994,139.124,313.006ZM218.983,88.272a215.408,215.408,0,0,0-69.365,42.205c-7.3,6.586-10.83,14.787-3.877,23.323,7.345,9.017,16.753,8.767,25.132,1.392a201.568,201.568,0,0,1,58.893-36.1c7.526-3.009,12.621-7.892,12.815-17.667C239.44,89.871,232.434,83.246,218.983,88.272Zm-96.356,86.392c-17.662.039-21.906,14.837-25.12,27.836-2.545,10.293,4.977,18.014,15.019,17.717,17.58-.518,18.412-17.571,25.146-27.92C136.348,182.287,132.273,174.643,122.627,174.664Z"/>
    <path class="cls-3" d="M298.375,336.623c-23.013.285-40.258-16.455-40.537-39.35a40.389,40.389,0,0,1,39.323-41.146c21.668-.512,40.6,17.933,40.894,39.843A39.892,39.892,0,0,1,298.375,336.623Zm-.236-12.845a26.9,26.9,0,0,0,26.183-28.017c-.51-15.592-12.4-26.8-28.028-25.663-16.163,1.174-24.506,11.1-25.536,26.5C269.807,310.829,283.825,324.021,298.139,323.778Z"/>
    <path class="cls-4" d="M300.947,237.44c32.02,1.463,57.114,28.929,56.1,61.4-.993,31.724-28.862,58.192-60.436,57.4-32.494-.816-59.752-29.662-58.4-61.8C239.594,261.517,267.767,235.924,300.947,237.44Zm-2.572,99.183a39.892,39.892,0,0,0,39.68-40.653c-.294-21.91-19.226-40.355-40.894-39.843a40.389,40.389,0,0,0-39.323,41.146C258.117,320.168,275.362,336.908,298.375,336.623Zm25.947-40.862c-.51-15.592-12.4-26.8-28.028-25.663-16.163,1.174-24.506,11.1-25.536,26.5-.951,14.226,13.067,27.418,27.381,27.175A26.9,26.9,0,0,0,324.322,295.761Z"/>
    <path class="cls-5" d="M429.484,62.687c-96.13-54.556-194.058-49.4-284.9,13.677C111.333,99.453,83,126.14,64.681,158.448l-2.886.465s-73.74,128.5-15.332,238.74c5.416,10.225,9.913,17.973,13.633,23.654,44.3,81.837,113.119,130.22,208.464,142.511,148.557,19.149,290.779-98.258,298.055-248.136C572.01,204.583,526.161,117.555,429.484,62.687Zm101.745,266.47c-16.51,125.552-136.984,225.484-277.851,198.889-97.3-18.368-170.957-94.381-188.357-191.512-3.256-18.182.212-26.044,20.59-23.922,17.66,1.839,35.664.382,53.512.382,10.986.023,22.039.813,32.943-.136,25.436-2.215,44.664-.427,57.329,29.371,12.26,28.838,42.532,40.439,74.19,38.018,34.236-2.619,59.294-21.333,71.986-53.271,4.361-10.978,8.654-14.456,20.162-14.243,40.492.752,81.022.929,121.506-.035C531.084,312.369,532.837,316.936,531.229,329.157ZM238.208,294.435c1.385-32.918,29.558-58.511,62.738-56.995,32.022,1.463,57.115,28.93,56.1,61.4-.993,31.723-28.864,58.192-60.438,57.4C264.114,355.423,236.856,326.576,238.208,294.435Zm267.354-15.079c-37.078-.013-74.155-.166-111.231.094-8.966.063-14.133-1.232-18.063-11.548-13.217-34.707-44.233-56.062-79.174-54.932-37.114,1.2-63.584,19.56-77.356,54.321-3.577,9.026-7.969,12.706-17.91,12.333-20.569-.773-41.186-.232-61.785-.232-19.226.024-38.527-1.047-57.65.353-16.108,1.181-20.6-4.17-17.64-19.626C81.5,172.557,129.718,109.5,213.039,77.135,350.251,23.83,499.545,106.777,529.373,250.949,535.016,278.232,534.063,279.364,505.562,279.356Z"/>
  </g>
</svg>
