<svg id="katman_1" data-name="katman 1" xmlns="http://www.w3.org/2000/svg" viewBox="0 0 591 591">
  <defs>
    <style>
      .cls-1 {
        fill: #e3091e;
      }

      .cls-2 {
        fill: #fff;
      }

      .cls-3 {
        fill: #060405;
      }
    </style>
  </defs>
  <g>
    <path class="cls-1" d="M455.442,276.342c-20.693,0-41.387-.053-62.079.059-3.022.017-4.253-.643-5.179-3.906-11.054-38.957-36.432-63.258-76.161-71.027-48.376-9.459-96.492,21.887-108.83,70.016-1.046,4.079-2.645,4.968-6.582,4.953q-61.339-.231-122.68-.039c-3.172.006-4.483-.374-4.091-4.162,3.61-34.94,14.478-67.435,33.368-97,35.149-55.01,84.783-89.932,148.853-102.362,122.364-23.741,235.427,53.61,263.728,168.066a294.09,294.09,0,0,1,5.69,32.262c.386,2.928-.837,3.185-3.219,3.177C497.32,276.314,476.381,276.342,455.442,276.342Z"/>
    <path class="cls-2" d="M136.145,314.709c20.69,0,41.381.087,62.07-.093,3.131-.028,4.013,1.028,4.795,3.829,10.861,38.893,36.164,63.175,75.637,70.853,49.571,9.643,97.484-22.035,109.594-71.1.656-2.658,1.422-3.566,4.237-3.56q62.993.145,125.987.007c2.634,0,3.292.61,3.04,3.262-9.176,96.488-80.886,177.634-175.856,198.9A227.006,227.006,0,0,1,76.922,356.588a231.325,231.325,0,0,1-7.294-39.056c-.316-3.049.965-2.845,2.969-2.84q22.538.048,45.075.017Zm159.277-86.057a66.8,66.8,0,1,0,66.85,66.794A66.817,66.817,0,0,0,295.422,228.652ZM295.1,262.5a32.934,32.934,0,1,1,.717,65.862A32.933,32.933,0,0,1,295.1,262.5Z"/>
    <path class="cls-3" d="M295.437,552.862C153.251,552.775,38.111,437.3,38.24,294.923,38.367,153.305,153.524,38.341,295.454,38.138,437.4,37.935,552.925,153.485,552.76,295.5,552.6,437.827,437.488,552.95,295.437,552.862Zm160.005-276.52c20.939,0,41.878-.028,62.818.039,2.382.008,3.605-.249,3.219-3.177a294.09,294.09,0,0,0-5.69-32.262C487.488,126.486,374.425,49.135,252.061,72.876c-64.07,12.43-113.7,47.352-148.853,102.362-18.89,29.563-29.758,62.058-33.368,97-.392,3.788.919,4.168,4.091,4.162q61.34-.126,122.68.039c3.937.015,5.536-.874,6.582-4.953,12.338-48.129,60.454-79.475,108.83-70.016,39.729,7.769,65.107,32.07,76.161,71.027.926,3.263,2.157,3.923,5.179,3.906C414.055,276.289,434.749,276.342,455.442,276.342Zm-319.3,38.367H117.672q-22.537,0-45.075-.017c-2,0-3.285-.209-2.969,2.84a231.325,231.325,0,0,0,7.294,39.056A227.006,227.006,0,0,0,345.649,516.814c94.97-21.269,166.68-102.415,175.856-198.9.252-2.652-.406-3.267-3.04-3.262q-62.994.127-125.987-.007c-2.815-.006-3.581.9-4.237,3.56-12.11,49.061-60.023,80.739-109.594,71.1-39.473-7.678-64.776-31.96-75.637-70.853-.782-2.8-1.664-3.857-4.795-3.829C177.526,314.8,156.835,314.709,136.145,314.709Zm226.127-19.263a66.706,66.706,0,1,0-66.781,66.815A66.877,66.877,0,0,0,362.272,295.446Zm-66.453,32.915a32.933,32.933,0,1,0-33.175-32.712A33.04,33.04,0,0,0,295.819,328.361Z"/>
  </g>
</svg>
