<svg id="katman_1" data-name="katman 1" xmlns="http://www.w3.org/2000/svg" viewBox="0 0 591 591">
  <defs>
    <style>
      .cls-1 {
        fill: #171413;
      }

      .cls-2 {
        fill: #3b3b3c;
      }

      .cls-3 {
        fill: #dd282b;
      }

      .cls-4 {
        fill: #f2f2f3;
      }

      .cls-5 {
        fill: #222223;
      }

      .cls-6 {
        fill: #e1e0e1;
      }
    </style>
  </defs>
  <g>
    <path class="cls-1" d="M570.632,295.276c-.4,154.322-123.423,279.063-274.974,278.813-151.893-.251-275.8-125.712-275.289-278.741C20.886,140.294,144.123,16.562,297.691,16.912,448.154,17.255,571.027,142.569,570.632,295.276ZM146.8,119.162c-6.816,9.221-17.761,18.437-5.322,30.231,11.305,10.719,21.247,3.47,30.346-5.082,1.912-1.8,4.56-2.792,6.87-4.157Q312.258,209.8,436.7,124.621c18.185-12.458,17.282-17.053-1.873-28.527-9.17-5.493-15.81-1.214-23.477,2.218-60.37,27.03-122.409,34.205-186.544,15.628,13.492-8.223,19.84-18.269,8.222-32.9,50.368,12,99.876,12.554,151.908-11.276C326.775,47.6,272.416,47.541,217.509,65.255c-11.306,3.647-4.4,8.163-1.14,12.724L175.722,98.1c-13.847-13.406-21.675,1.575-31.043,7.183C135.773,110.61,142.254,115.089,146.8,119.162ZM133.6,312.412q-18.926,0-37.852,0C50.2,312.4,50.2,312.4,63.059,358.654c31.31,112.6,133.906,188.248,244.724,180.457,118.51-8.332,209.4-93.015,227.091-210.614,2.2-14.617-2.872-16.492-15.256-16.3-39.945.62-79.918.772-119.855-.091-13.56-.294-20.21,2.788-25.795,16.888-12.733,32.141-38.572,50.394-72.63,52.964-32.383,2.443-62.794-9.818-75.711-39.394-13.075-29.937-32.133-33.108-58.4-30.343C156.136,313.389,144.82,312.416,133.6,312.412ZM304.256,206.717c36.955,6.653,60.96,28.677,74.552,63.126,2.543,6.444,7.987,6.976,13.863,6.968q65.075-.085,130.147-.008c8.077.007,12.994-1.252,11.349-12.1-6.359-41.913-21.26-80.062-45.444-114.743-7.284-10.447-13.908-12.217-23.818-3.68C419.022,185.807,365.586,204.73,304.256,206.717Zm-21.314-.341c-54.422-3.465-107.19-21.609-147.441-51.7-22.811-17.055-28.333-15.9-42.6,8.981C75.6,193.816,63.57,225.64,58.4,260.485c-1.9,12.782-.487,16.562,12.2,16.448,42.023-.381,84.051-.147,126.077-.141,6.339,0,13.287.679,15.929-7.014C224.391,235.46,250.294,217.214,282.942,206.376Zm72.96,88.4c-.412-34.513-27.954-61.4-61.972-60.5-33.017.872-58.971,28.227-58.711,61.878.256,33.166,27.36,60.7,60.054,61.006C328.506,357.467,356.309,328.86,355.9,294.774Z"/>
    <path class="cls-2" d="M304.256,206.717c61.33-1.987,114.766-20.91,160.649-60.433,9.91-8.537,16.534-6.767,23.818,3.68,24.184,34.681,39.085,72.83,45.444,114.743,1.645,10.844-3.272,12.1-11.349,12.1q-65.073-.051-130.147.008c-5.876.008-11.32-.524-13.863-6.968C365.216,235.394,341.211,213.37,304.256,206.717ZM135.5,154.673c-22.811-17.055-28.333-15.9-42.6,8.981C75.6,193.816,63.57,225.64,58.4,260.485c-1.9,12.782-.487,16.562,12.2,16.448,42.023-.381,84.051-.147,126.077-.141,6.339,0,13.287.679,15.929-7.014,11.786-34.318,37.689-52.564,70.337-63.4C228.52,202.911,175.752,184.767,135.5,154.673Zm-4.557,29.239c1.648,12.236-13.99,33.494-24.356,32.9-9.665-.555-15.515-6.5-16.56-16.071-1.249-11.451,13.8-31.13,24.247-31.725C123.094,169.522,129.6,173.918,130.944,183.912ZM233.03,81.037c50.368,12,99.876,12.555,151.908-11.275C326.775,47.6,272.416,47.541,217.509,65.255c-11.306,3.647-4.4,8.163-1.14,12.724Z"/>
    <path class="cls-3" d="M224.813,113.934c64.13,18.583,126.169,11.408,186.539-15.622,7.667-3.432,14.307-7.711,23.477-2.218,19.155,11.474,20.058,16.069,1.873,28.527Q312.358,209.808,178.69,140.155C191.8,127.349,207.024,118.337,224.813,113.934Zm-80.134-8.654c-8.906,5.33-2.425,9.809,2.117,13.886L175.722,98.1C161.875,84.691,154.047,99.672,144.679,105.28Z"/>
    <path class="cls-4" d="M133.6,312.414c11.216,0,22.532.975,33.627-.193,26.263-2.765,45.321.406,58.4,30.343,12.917,29.576,43.328,41.837,75.711,39.394,34.058-2.57,59.9-20.823,72.63-52.964,5.585-14.1,12.235-17.182,25.795-16.888,39.937.863,79.91.711,119.855.091,12.384-.192,17.455,1.683,15.256,16.3C517.186,446.1,426.293,530.779,307.783,539.111,196.965,546.9,94.369,471.249,63.059,358.654,50.2,312.4,50.2,312.4,95.752,312.412Q114.679,312.417,133.6,312.414ZM175.722,98.1,146.8,119.166c-6.814,9.217-17.759,18.433-5.32,30.227,11.305,10.719,21.247,3.47,30.346-5.082,1.912-1.8,4.56-2.792,6.868-4.156,13.11-12.806,28.334-21.818,46.121-26.218,13.489-8.22,19.837-18.266,8.219-32.9l-16.661-3.058ZM90.028,200.739c1.045,9.575,6.895,15.516,16.56,16.071,10.366.6,26-20.662,24.356-32.9-1.345-9.994-7.85-14.39-16.669-14.9C103.825,169.609,88.779,189.288,90.028,200.739Z"/>
    <path class="cls-5" d="M296.7,336.8c-23.188.367-42.058-17.416-42.749-40.285-.665-22.041,18.553-42.389,40.646-43.034,21.787-.637,41.972,18.711,42.745,40.973C338.114,316.848,319.3,336.447,296.7,336.8Zm26.648-40.964c.2-15.148-12.69-28.3-27.9-27.836-16.6.506-25.475,10.2-26.935,26.246-1.4,15.364,11.336,28.8,26.37,29.2C309.848,323.841,323.139,310.949,323.343,295.84Z"/>
    <path class="cls-6" d="M355.9,294.774c.407,34.086-27.4,62.693-60.629,62.38-32.694-.307-59.8-27.84-60.054-61.006-.26-33.651,25.694-61.006,58.711-61.878C327.948,233.371,355.49,260.261,355.9,294.774ZM296.7,336.8c22.608-.357,41.419-19.956,40.642-42.346-.773-22.262-20.958-41.61-42.745-40.973-22.093.645-41.311,20.993-40.646,43.034C254.637,319.388,273.507,337.171,296.7,336.8ZM295.447,268c-16.6.506-25.475,10.2-26.935,26.246-1.4,15.364,11.336,28.8,26.37,29.2,14.966.395,28.257-12.5,28.461-27.606C323.548,280.692,310.653,267.54,295.447,268Z"/>
  </g>
</svg>
