<svg id="katman_1" data-name="katman 1" xmlns="http://www.w3.org/2000/svg" viewBox="0 0 591 591">
  <defs>
    <style>
      .cls-1 {
        fill: #171413;
      }

      .cls-2 {
        fill: #2daae0;
      }

      .cls-3 {
        fill: #e55668;
      }

      .cls-4 {
        fill: #f2f2f3;
      }

      .cls-5 {
        fill: #222223;
      }

      .cls-6 {
        fill: #e1e0e1;
      }
    </style>
  </defs>
  <g>
    <path class="cls-1" d="M295.563,555.5C113.645,555.612-12.5,372.338,52.692,202.659c3.746-9.747,12.085-19.239-2.3-28.428-6.4-4.088-.932-11.123,1.872-15.932,27.265-46.766,63.8-84.034,112.352-109.008,5.617-2.889,13.433-6.723,16.351-2.116,9.71,15.333,20.26,5.818,30.182,2.5q90.057-30.1,178.6,3.7c7.124,2.717,12.7,5.359,18.25-3.035,4.529-6.849,11.185-4.651,17.645-1.274,49.541,25.9,87.23,63.786,114.259,112.445,2.088,3.76,6.647,9.423,1.984,12.538-16.809,11.228-5.1,23.308-1.266,34.207C600.331,378.209,475.443,555.382,295.563,555.5ZM144.434,312.038q-25.823,0-51.644,0c-26.425-.027-26.425-.036-21.229,25.858C91.417,436.828,168.745,508.6,269.845,521.925c117.8,15.528,233.612-72.616,250.887-189.954,2.528-17.176-1.592-21.025-18.413-20.378-35.7,1.375-71.5.884-107.242.262-12.978-.226-20.725,1.731-26.253,16.124-11.077,28.837-34.558,44.713-65.254,47.775-30.777,3.07-61.567-6.75-72.509-34.362-13.212-33.338-35.742-29.805-60.805-29.367C161.651,312.175,153.042,312.049,144.434,312.038Zm61.005-225.71c11.985,21.04,22.445,40.911,34.415,59.828,6.752,10.668,4.58,18.135-3.618,25.94-15.825,15.067-31.94,29.874-47.031,45.652-8.812,9.213-17.03,9.954-28.232,4.856-18.637-8.483-37.991-15.381-56.836-23.429-8.605-3.675-14.142-4.31-18.129,6.579-7.3,19.945-13.211,40.064-16.641,61.068C67.542,278,71.239,280.316,81.7,280.177q60.637-.8,121.29-.061c9.558.109,13.257-3.275,16.847-12.136,13.659-33.71,43.675-54.665,76.433-53.119,36.516,1.722,62.716,19.878,75.465,54.431,3.275,8.877,7.249,10.772,15.471,10.726q61.64-.34,123.281.122c9.4.079,13.081-2.246,11.446-12.569a321.1,321.1,0,0,0-15.611-59.285c-3.888-10.747-8.352-12.945-18.8-8.311-19.911,8.832-40.564,15.994-60.473,24.832-9.33,4.141-16.233,2.807-23.074-4.047-16.836-16.87-33.689-33.726-50.767-50.351-7.4-7.2-7.608-13.779-2.062-22.622C361.67,131,370.491,113.151,380.976,96.338c4.889-7.839,3.824-11.157-4.647-14.159C319.085,61.888,262.605,62.574,205.439,86.328Zm13.114,73.066c-2.607-6-3.445-8.5-4.715-10.766C201.525,126.7,188.9,104.949,176.9,82.854c-4.562-8.4-8.815-9.275-16.933-4.022a267.446,267.446,0,0,0-76.539,74.154c-4.817,7.041-5.763,10.592,3.818,14.009,16.819,6,34.219,11.588,49.416,20.635,26,15.48,45.8,11.894,63.244-12.715C204.673,168.189,212.937,163.938,218.553,159.394Zm293.411,1.252c-1.523-2.274-3.325-4.981-5.144-7.676-13.729-20.34-29.708-38.723-48.771-54.2-35.263-28.641-35.362-28.52-57.958,11.325-.65,1.146-1.345,2.266-2,3.412-25.412,44.773-25.411,44.773,11.929,79.923a13.258,13.258,0,0,1,1.321,1.471c4.727,6.03,9.841,6.8,17.22,3.67,24.849-10.523,50.1-20.092,75.058-30.369C506.75,166.909,511.882,166.884,511.964,160.646ZM295.755,352.632c31.873-.119,57.922-26.506,57.415-58.16-.486-30.327-27.466-56.809-57.591-56.528-30.8.286-57.051,26.257-57.347,56.734A57.337,57.337,0,0,0,295.755,352.632Z"/>
    <path class="cls-2" d="M205.439,86.328c57.166-23.754,113.646-24.44,170.89-4.149,8.471,3,9.536,6.32,4.647,14.159C370.491,113.151,361.67,131,351.143,147.787c-5.546,8.843-5.334,15.423,2.062,22.622,17.078,16.625,33.931,33.481,50.767,50.351,6.841,6.854,13.744,8.188,23.074,4.047,19.909-8.838,40.562-16,60.473-24.832,10.447-4.634,14.911-2.436,18.8,8.311a321.1,321.1,0,0,1,15.611,59.285c1.635,10.323-2.042,12.648-11.446,12.569q-61.638-.516-123.281-.122c-8.222.046-12.2-1.849-15.471-10.726-12.749-34.553-38.949-52.709-75.465-54.431-32.758-1.546-62.774,19.409-76.433,53.119-3.59,8.861-7.289,12.245-16.847,12.136q-60.639-.7-121.29.061c-10.457.139-14.154-2.182-12.329-13.355,3.43-21,9.338-41.123,16.641-61.068,3.987-10.889,9.524-10.254,18.129-6.579,18.845,8.048,38.2,14.946,56.836,23.429,11.2,5.1,19.42,4.357,28.232-4.856,15.091-15.778,31.206-30.585,47.031-45.652,8.2-7.805,10.37-15.272,3.618-25.94C227.884,127.239,217.424,107.368,205.439,86.328Zm122,24.916c9.161,2.169,15.6-1.44,17.737-10.564,2.176-9.3-2.225-15.755-11.215-17.883-12.2-2.888-24.6-5.384-37.279-4.113-8.957.9-14.994,5.546-15.36,15-.375,9.678,5.9,14.606,14.562,15.671C306.323,110.632,316.914,110.668,327.439,111.244Z"/>
    <path class="cls-3" d="M218.553,159.394c-5.616,4.544-13.88,8.795-18.647,15.521-17.444,24.609-37.242,28.2-63.244,12.715-15.2-9.047-32.6-14.636-49.416-20.635-9.581-3.417-8.635-6.968-3.818-14.009a267.446,267.446,0,0,1,76.539-74.154c8.118-5.253,12.371-4.378,16.933,4.022,12,22.1,24.625,43.849,36.938,65.774C215.108,150.889,215.946,153.392,218.553,159.394ZM506.82,152.97c-13.729-20.34-29.708-38.723-48.771-54.2-35.263-28.641-35.362-28.52-57.958,11.325-.65,1.146-1.345,2.266-2,3.412-25.412,44.773-25.411,44.773,11.929,79.923a13.258,13.258,0,0,1,1.321,1.471c4.727,6.03,9.841,6.8,17.22,3.67,24.849-10.523,50.1-20.092,75.058-30.369,3.127-1.288,8.259-1.313,8.341-7.551C510.441,158.372,508.639,155.665,506.82,152.97Z"/>
    <path class="cls-4" d="M144.434,312.043c8.608.006,17.217.132,25.822-.018,25.063-.438,47.593-3.971,60.805,29.367C242,369,272.793,378.824,303.57,375.754c30.7-3.062,54.177-18.938,65.254-47.775,5.528-14.393,13.275-16.35,26.253-16.124,35.743.622,71.54,1.113,107.242-.262,16.821-.647,20.941,3.2,18.413,20.378C503.457,449.309,387.65,537.453,269.845,521.925c-101.1-13.327-178.428-85.1-198.284-184.033-5.2-25.894-5.2-25.885,21.229-25.858Q118.611,312.061,144.434,312.043ZM345.176,100.68c2.176-9.3-2.225-15.755-11.215-17.883-12.2-2.888-24.6-5.384-37.279-4.113-8.957.9-14.994,5.546-15.36,15-.375,9.678,5.9,14.606,14.562,15.671,10.439,1.282,21.03,1.318,31.555,1.894C336.6,113.413,343.041,109.8,345.176,100.68Z"/>
    <path class="cls-5" d="M256.976,295.591c-.045-22.043,16.547-38.728,38.6-38.811,21.893-.082,38.623,16.692,38.645,38.745.022,21.215-17.9,39.65-38.561,39.672C275.044,335.219,257.019,316.763,256.976,295.591Zm37.974,25.744c14.943.39,26.423-10.718,26.489-25.629.065-14.6-11.7-26.939-26.073-26.257-15.442.733-23.934,9.945-25.438,24.875C268.484,308.659,280.385,320.955,294.95,321.335Z"/>
    <path class="cls-6" d="M295.755,352.632a57.337,57.337,0,0,1-57.523-57.954c.3-30.477,26.546-56.448,57.347-56.734,30.125-.281,57.105,26.2,57.591,56.528C353.677,326.126,327.628,352.513,295.755,352.632Zm-38.779-57.041c.043,21.172,18.068,39.628,38.679,39.606,20.664-.022,38.583-18.457,38.561-39.672-.022-22.053-16.752-38.827-38.645-38.745C273.523,256.863,256.931,273.548,256.976,295.591Zm64.463.115c.065-14.6-11.7-26.939-26.073-26.257-15.442.733-23.934,9.945-25.438,24.875-1.444,14.335,10.457,26.631,25.022,27.011C309.893,321.725,321.373,310.617,321.439,295.706Z"/>
  </g>
</svg>
