<?xml version="1.0" encoding="UTF-8"?>
<svg id="bug" xmlns="http://www.w3.org/2000/svg" viewBox="0 0 25.28 21.74">
  <defs>
    <style>
      .cls-1 {
        fill: #231f20;
      }

      .cls-1, .cls-2 {
        fill-rule: evenodd;
      }

      .cls-2 {
        fill: #6baf68;
        stroke: #231f20;
        stroke-miterlimit: 10;
        stroke-width: 1.8px;
      }
    </style>
  </defs>
  <g id="bug-2" data-name="bug">
    <path class="cls-2" d="M20.24,10.87c0,4.2-3.4,7.61-7.61,7.61s-7.61-3.4-7.61-7.61,3.4-7.61,7.61-7.61,7.61,3.4,7.61,7.61Z"/>
    <path class="cls-1" d="M12.53,6.22c2.07,0,3.48,1.55,3.48,1.55,0,0-1.41,1.56-3.37,1.56s-3.56-1.37-3.56-1.37c0,0,.99-1.74,3.44-1.74Z"/>
    <path class="cls-1" d="M8.84,8.59c.61,1.19,1.28,1.44,2.7,1.89.76,2.11-.07,4.56-1.48,4.56-1.72-.93-2.32-4.59-1.21-6.44Z"/>
    <path class="cls-1" d="M16.38,8.59c-.67,1.19-1.41,1.44-2.96,1.89-.83,2.11.07,4.56,1.63,4.56,1.89-.93,2.56-4.59,1.33-6.44Z"/>
  </g>
</svg>