<?xml version="1.0" encoding="UTF-8"?>
<svg id="dark" xmlns="http://www.w3.org/2000/svg" viewBox="0 0 25.28 21.74">
  <defs>
    <style>
      .cls-1 {
        fill: #324754;
        stroke: #231f20;
        stroke-miterlimit: 10;
        stroke-width: 1.8px;
      }

      .cls-1, .cls-2 {
        fill-rule: evenodd;
      }
    </style>
  </defs>
  <g id="dark-2" data-name="dark">
    <path class="cls-1" d="M20.46,10.87c0,4.32-3.5,7.82-7.82,7.82s-7.82-3.5-7.82-7.82,3.5-7.82,7.82-7.82,7.82,3.5,7.82,7.82Z"/>
    <path class="cls-2" d="M11.38,6.83s-.04,0-.06,0c-.31.08-.62.18-.92.33-.41.21-.8.47-1.13.76-.37.33-.68.7-.92,1.15-.37.74-.49,1.52-.37,2.34.14.92.58,1.66,1.29,2.26.39.33.84.6,1.31.82.68.31,1.38.47,2.14.45.33,0,.66-.06.99-.14.55-.14,1.05-.35,1.56-.62.57-.31,1.03-.72,1.38-1.27.49-.72.72-1.52.66-2.4-.02-.31-.08-.62-.19-.94-.25-.7-.68-1.31-1.25-1.79-.57-.47-1.21-.78-1.91-.97-.02,0-.04-.02-.06,0,.02.02.02.04.04.06.21.31.39.64.51.99.12.39.14.76,0,1.15-.1.29-.29.55-.53.76-.45.43-.99.58-1.6.51-.49-.08-.92-.29-1.23-.66-.37-.43-.51-.94-.41-1.5.06-.41.23-.76.49-1.09.08-.06.16-.12.19-.19Z"/>
  </g>
</svg>