<?xml version="1.0" encoding="UTF-8"?>
<svg id="Layer_1_copy_15" data-name="Layer 1 copy 15" xmlns="http://www.w3.org/2000/svg" viewBox="0 0 25.28 21.74">
  <defs>
    <style>
      .cls-1 {
        fill: #ad963d;
        stroke: #231f20;
        stroke-miterlimit: 10;
        stroke-width: 1.8px;
      }

      .cls-1, .cls-2 {
        fill-rule: evenodd;
      }
    </style>
  </defs>
  <g id="dragon">
    <path class="cls-1" d="M20.46,10.87c0,4.32-3.5,7.82-7.82,7.82s-7.82-3.5-7.82-7.82,3.5-7.82,7.82-7.82,7.82,3.5,7.82,7.82Z"/>
    <path class="cls-2" d="M15.03,7.46c-.06-.23-.21-.38-.4-.52-.52-.4-1.11-.67-1.74-.86-.84-.25-1.7-.29-2.54-.02-.9.27-1.62.8-2.12,1.62-.46.78-.57,1.6-.4,2.48.19,1.07.63,2.04,1.3,2.9.63.84,1.43,1.49,2.31,2.04.86.55,1.81.84,2.83.8.63-.02,1.22-.19,1.76-.48.52-.29.97-.71,1.36-1.18.19-.21.17-.31-.04-.5-1.62-1.47-3.23-2.94-4.85-4.43-.23-.21-.46-.42-.69-.63-.02-.02-.02-.04-.06-.02-.02.02-.04.04-.02.06v.04c.31,1.22.63,2.41.94,3.63,0,.02.02.04,0,.08-.08-.04-.15-.06-.21-.1-.76-.36-1.39-.88-1.78-1.64-.29-.57-.5-1.18-.46-1.85.02-.59.27-1.09.73-1.47.5-.42,1.11-.59,1.76-.61.52-.02,1.03.08,1.53.27.25.13.5.25.78.4ZM13.77,11.86c.59.49,1.14,1.03,1.65,1.58-.1-.03-.23-.05-.34-.08-.28-.08-.57-.13-.83-.21-.16-.05-.26-.13-.28-.31-.08-.31-.16-.62-.21-.98Z"/>
  </g>
</svg>