<?xml version="1.0" encoding="UTF-8"?>
<svg id="electricity" xmlns="http://www.w3.org/2000/svg" viewBox="0 0 25.28 21.74">
  <defs>
    <style>
      .cls-1 {
        fill: #fff488;
        stroke: #231f20;
        stroke-miterlimit: 10;
        stroke-width: 1.8px;
      }

      .cls-1, .cls-2 {
        fill-rule: evenodd;
      }

      .cls-2 {
        fill: #231f20;
      }
    </style>
  </defs>
  <g id="electricity-2" data-name="electricity">
    <path class="cls-1" d="M20.24,10.87c0,4.2-3.4,7.61-7.61,7.61s-7.61-3.4-7.61-7.61,3.4-7.61,7.61-7.61,7.61,3.4,7.61,7.61Z"/>
    <path class="cls-2" d="M13.37,10.89s0,.05-.03.08c-.43,1.53-.86,3.07-1.26,4.6-.15.5-.28,1.03-.43,1.53-.03.05,0,.08.05.1.05,0,.05-.05.05-.08,1.79-3.02,3.55-6.01,5.33-9.03,0-.03.03-.05.05-.08-1.63.48-3.27.96-4.9,1.43,0-.03.03-.05.03-.08.3-.96.6-1.89.88-2.84.2-.63.4-1.28.6-1.91,0-.03.03-.05,0-.08-.03,0-.05-.03-.08,0-.03.03-.03.05-.05.05-1.03,1.46-2.09,2.94-3.12,4.4-.78,1.11-1.56,2.19-2.34,3.3-.05.05-.03.1.03.13.03.03.05,0,.08-.03.93-.28,1.86-.58,2.82-.86.78-.18,1.51-.4,2.29-.65Z"/>
  </g>
</svg>