<?xml version="1.0" encoding="UTF-8"?>
<svg id="fairy" xmlns="http://www.w3.org/2000/svg" viewBox="0 0 25.28 21.74">
  <defs>
    <style>
      .cls-1, .cls-2 {
        fill-rule: evenodd;
      }

      .cls-2 {
        fill: #c85ca2;
        stroke: #231f20;
        stroke-miterlimit: 10;
        stroke-width: 1.8px;
      }
    </style>
  </defs>
  <g id="fairy-2" data-name="fairy">
    <path class="cls-2" d="M20.46,10.87c0,4.32-3.5,7.82-7.82,7.82s-7.82-3.5-7.82-7.82,3.5-7.82,7.82-7.82,7.82,3.5,7.82,7.82Z"/>
    <path class="cls-1" d="M17.03,7.35c-.02.19.02.33.07.5.19.59.28,1.18.24,1.8s-.26,1.16-.66,1.63c-.24.28-.55.5-.83.71-.59.45-1.16.9-1.68,1.42-.69.69-1.21,1.49-1.49,2.44-.02.05-.02.09-.05.14,0-.02-.02-.02-.02-.05-.33-1.09-.92-1.99-1.75-2.77-.47-.45-1-.83-1.54-1.21-.52-.36-.92-.78-1.18-1.37-.31-.69-.31-1.37-.19-2.11.05-.24.14-.45.21-.66.05-.14.07-.28.02-.43,0-.05-.02-.05-.05-.02l-.02.02c-.38.38-.62.85-.78,1.37-.36,1.11-.38,2.25-.12,3.39.19.81.55,1.52,1.14,2.11.9.88,1.97,1.47,3.18,1.82.55.17,1.11.24,1.68.12.78-.17,1.56-.4,2.27-.78,1-.52,1.78-1.28,2.25-2.32.47-1.04.62-2.16.47-3.29-.09-.73-.36-1.42-.78-2.04-.12-.14-.24-.28-.38-.43Z"/>
    <path class="cls-1" d="M9.78,7.7c1.42.81,2.25,2.04,2.7,3.6.38-1.54,1.23-2.77,2.56-3.7h-.12c-.21,0-.45,0-.66-.02-.62-.09-1.09-.4-1.35-.97-.12-.24-.19-.47-.26-.73-.05-.14-.09-.26-.17-.4-.02.05-.02.07-.05.09-.14.4-.31.81-.57,1.16-.36.5-.83.83-1.42.92-.24.02-.45.05-.66.05Z"/>
  </g>
</svg>