<?xml version="1.0" encoding="UTF-8"?>
<svg id="fighting" xmlns="http://www.w3.org/2000/svg" viewBox="0 0 25.28 21.74">
  <defs>
    <style>
      .cls-1 {
        fill: #e36334;
        stroke: #231f20;
        stroke-miterlimit: 10;
        stroke-width: 1.8px;
      }

      .cls-1, .cls-2 {
        fill-rule: evenodd;
      }
    </style>
  </defs>
  <g id="fighting-2" data-name="fighting">
    <path class="cls-1" d="M20.46,10.87c0,4.32-3.5,7.82-7.82,7.82s-7.82-3.5-7.82-7.82,3.5-7.82,7.82-7.82,7.82,3.5,7.82,7.82Z"/>
    <path class="cls-2" d="M12.56,15.92h2.02c.24,0,.26-.02.26-.26,0-.17,0-.37.02-.54.06-.32.24-.54.58-.6.11-.02.19-.02.3-.02h.73c.43,0,.79-.39.79-.79v-2.3c0-.43-.37-.79-.79-.79h-2.21c-.54,0-.88.34-.88.88v.9c-.09.32-.34.67-.77.64-.15,0-.3-.02-.45,0-.37.02-.69.37-.71.73v.45c0,.34-.34.75-.71.75-.19,0-.26.09-.24.28,0,.13.02.26,0,.39-.02.26.04.32.3.32.6-.06,1.22-.04,1.76-.04Z"/>
    <path class="cls-2" d="M10.47,10.59h-1.57c-.11,0-.24.02-.34.06-.32.13-.54.41-.54.79v1.22c0,.34-.02.71,0,1.05.02.43.28.71.71.75.45.04.92.02,1.37,0,.49-.02.75-.3.82-.77.02-.17,0-.34.04-.54.06-.34.24-.54.56-.58.17-.02.32-.02.49-.02.34,0,.6-.17.79-.45.04-.06.06-.13.06-.19.02-.21,0-.43-.02-.64-.04-.34-.45-.69-.82-.67-.52-.02-1.03-.02-1.57-.02Z"/>
    <path class="cls-2" d="M12.84,7.97v1.68c0,.28.13.45.39.52.06.02.11.02.17.02h.88c.09,0,.17,0,.24-.02.17-.04.3-.15.34-.34.02-.09.02-.19.02-.28v-3.24c0-.32-.17-.49-.45-.52h-1.16c-.24,0-.39.15-.43.37,0,.06-.02.11-.02.17.02.56.02,1.12.02,1.65Z"/>
    <path class="cls-2" d="M10.39,7.97v1.72c0,.28.15.45.41.49.06,0,.11.02.17.02h.82c.06,0,.13,0,.19-.02.24-.04.39-.17.43-.41.02-.06.02-.15.02-.21v-3.24c0-.3-.15-.47-.45-.49-.39-.02-.77-.02-1.16,0-.24,0-.37.15-.41.39v.15c-.02.52-.02,1.07-.02,1.61Z"/>
    <path class="cls-2" d="M10.06,8.27v-1.37c0-.3-.17-.49-.45-.49-.37-.02-.73-.02-1.1,0-.32.02-.45.17-.47.49v2.83c.02.26.17.43.43.45.39.04.75.02,1.14,0,.26-.02.41-.15.45-.37.02-.06.02-.13.02-.17-.02-.47-.02-.92-.02-1.37Z"/>
    <path class="cls-2" d="M15.18,8.29v1.44c.02.24.17.41.41.43.04,0,.11.02.15.02h.84c.06,0,.13,0,.19-.02.24-.04.37-.15.41-.39.02-.09.02-.17.02-.26v-2.64c-.02-.3-.19-.49-.49-.52-.34-.02-.71-.02-1.05,0-.26.02-.43.15-.47.41-.02.06-.02.13-.02.19.02.45.02.9.02,1.33Z"/>
  </g>
</svg>