<?xml version="1.0" encoding="UTF-8"?>
<svg id="fire" xmlns="http://www.w3.org/2000/svg" viewBox="0 0 25.28 21.74">
  <defs>
    <style>
      .cls-1 {
        fill: #f79d93;
        stroke: #231f20;
        stroke-miterlimit: 10;
        stroke-width: 1.8px;
      }

      .cls-1, .cls-2 {
        fill-rule: evenodd;
      }

      .cls-2 {
        fill: #231f20;
      }
    </style>
  </defs>
  <g id="fire-2" data-name="fire">
    <path class="cls-1" d="M20.24,10.87c0,4.2-3.4,7.61-7.61,7.61s-7.61-3.4-7.61-7.61,3.4-7.61,7.61-7.61,7.61,3.4,7.61,7.61Z"/>
    <path class="cls-2" d="M15.4,12.83c.13.02.28.02.41.02.35-.02.65-.15.96-.33.41-.22.78-.48,1.15-.74.02-.02.04-.02.07-.04,0,.07-.02.13-.02.17-.46,1.85-1.52,3.22-3.26,4.02-.8.37-1.67.52-2.59.48-.74-.04-1.43-.17-2.11-.48-1.37-.63-2.24-1.7-2.65-3.13-.02-.07-.04-.15-.07-.22v-.04c.5.43,1.04.8,1.72,1-.11-.15-.22-.3-.33-.46-.3-.41-.54-.87-.7-1.37-.28-1.04-.04-1.98.65-2.8.22-.24.46-.46.72-.65.02.04,0,.07-.02.09-.13.35-.24.7-.28,1.06-.07.67.17,1.22.72,1.63.04.04.09.07.13.09s.09.07.13.09c0-.04-.02-.07-.02-.09-.13-.28-.24-.57-.24-.89-.02-.39.11-.76.3-1.09.22-.35.5-.63.78-.91.3-.28.65-.54.98-.8.11-.09.2-.2.28-.28.24-.28.28-.61.17-.96-.07-.22-.17-.41-.3-.59-.07-.09-.11-.17-.2-.28.07.02.11.04.15.07.93.35,1.56,1,1.93,1.89.24.57.37,1.15.41,1.76.02.46,0,.89-.04,1.33v.13c0,.13.04.17.17.17.15,0,.33-.04.48-.09.39-.09.78-.22,1.11-.43.35-.24.59-.54.74-.91.02-.07.04-.07.09-.02.26.3.41.65.39,1.06-.02.24-.09.48-.2.7-.2.39-.48.74-.78,1.06-.26.28-.57.54-.85.78.04-.04,0-.04,0,0ZM14.59,12.96s-.02,0-.04-.02c.02,0,.04-.02.04.02.02-.02.02,0,0,0ZM14.59,12.57c-.11.09-.2.17-.28.26-.28.35-.33.72-.17,1.13.07.15.13.28.22.41.11.17.15.35.13.54-.04.26-.22.41-.43.52-.26.13-.52.22-.78.28-.83.2-1.61.09-2.35-.26-.26-.13-.43-.33-.57-.57-.11-.2-.09-.39.07-.57.09-.11.17-.22.26-.35.15-.26.13-.46-.07-.67-.07-.07-.13-.13-.2-.2-.02-.02-.04-.02-.04-.07.39-.04.91.04,1.04.7.35-.22.48-.57.26-.93-.07-.11-.13-.17-.22-.26s-.15-.2-.22-.3c-.11-.2-.09-.39.04-.57.09-.11.2-.2.3-.3.35-.28.74-.46,1.17-.5h.02s-.07.09-.11.13c-.09.13-.2.26-.28.41-.11.22-.09.37.09.54.04.04.11.11.17.15.26.2.39.46.46.78.02.13.02.24.04.39.35-.48.8-.72,1.37-.74.04,0,.07-.02.07.02Z"/>
  </g>
</svg>