<?xml version="1.0" encoding="UTF-8"?>
<svg id="ghost" xmlns="http://www.w3.org/2000/svg" viewBox="0 0 25.28 21.74">
  <defs>
    <style>
      .cls-1, .cls-2 {
        fill: #73799b;
      }

      .cls-1, .cls-2, .cls-3 {
        fill-rule: evenodd;
      }

      .cls-2 {
        stroke: #231f20;
        stroke-miterlimit: 10;
        stroke-width: 1.8px;
      }

      .cls-3 {
        fill: #231f20;
      }
    </style>
  </defs>
  <g id="ghost-2" data-name="ghost">
    <path class="cls-2" d="M20.24,11.08c0,4.2-3.4,7.61-7.61,7.61s-7.61-3.4-7.61-7.61,3.4-7.61,7.61-7.61,7.61,3.4,7.61,7.61Z"/>
    <path class="cls-3" d="M16.28,10.78c0,1.21-.54,2.3-1.4,3.03,0,0,.11.97.99,1.21-1.68.78-7.33.65-7.54-4.24-.09-2.19,1.78-3.97,3.97-3.97s3.97,1.78,3.97,3.97Z"/>
    <path class="cls-1" d="M14.65,9.86l-1.53,1.16s.84.84,1.56.29-.03-1.45-.03-1.45Z"/>
    <path class="cls-1" d="M10.02,9.86l1.52,1.08s-.93.91-1.64.4.12-1.48.12-1.48Z"/>
  </g>
</svg>