<?xml version="1.0" encoding="UTF-8"?>
<svg id="grass" xmlns="http://www.w3.org/2000/svg" viewBox="0 0 25.28 21.74">
  <defs>
    <style>
      .cls-1 {
        fill: #7fb293;
        stroke: #231f20;
        stroke-miterlimit: 10;
        stroke-width: 1.8px;
      }

      .cls-1, .cls-2 {
        fill-rule: evenodd;
      }

      .cls-2 {
        fill: #231f20;
      }
    </style>
  </defs>
  <g id="grass-2" data-name="grass">
    <path class="cls-1" d="M20.24,10.87c0,4.2-3.4,7.61-7.61,7.61s-7.61-3.4-7.61-7.61,3.4-7.61,7.61-7.61,7.61,3.4,7.61,7.61Z"/>
    <path class="cls-2" d="M17.63,11.76c.07.85-.3,1.47-.98,1.97-.59.43-1.24.69-1.91.89-.67.17-1.37.28-2.06.37-.07,0-.11.02-.17.02-.09.02-.13.07-.13.17,0,.17.04.33.04.5.02.17.04.35.04.54v.11c-.02.13-.07.17-.2.15-.11,0-.2-.02-.3-.04-.2-.04-.41-.07-.61-.11-.35-.07-.5-.26-.5-.61,0-.15-.02-.3-.07-.43-.09-.28-.26-.5-.5-.65-.15-.11-.33-.17-.5-.24-.46-.17-.87-.39-1.21-.69-.52-.48-.82-1.06-.91-1.76-.11-.78.09-1.47.43-2.17.41-.76.95-1.39,1.63-1.95.85-.69,1.78-1.26,2.75-1.76.59-.28,1.17-.54,1.78-.76.04-.02.07-.02.11-.04.15-.04.26,0,.35.11.82,1.11,1.58,2.26,2.17,3.51.3.65.54,1.32.69,2.04.02.28.04.56.04.82ZM8.63,11.78s.27-.11.59-.13c0,0,0,0,0,0,.53-.06,1.04.07,1.51.33.13.07.26.13.37.22.02.02.04.04.07-.02.07-.33.13-.63.2-.95.04-.13-.02-.26-.11-.37-.26-.33-.59-.56-.98-.74-.33-.13-.67-.22-1.02-.26.24-.09.5-.13.76-.15h.28c.24,0,.48.09.69.17.2.09.39.22.56.35.04.04.07.02.09-.02.09-.2.17-.39.2-.61.02-.24-.02-.43-.17-.61-.22-.28-.52-.46-.85-.61-.11-.04-.22-.09-.33-.15.11-.04.22-.07.33-.07.26-.02.5.07.72.17.15.07.3.15.43.26.04.04.11.07.17.11.11.04.17.02.24-.07.04-.07.09-.13.11-.2.26-.54.59-1.04.95-1.5.02-.02.02-.04.07-.07-.24.63-.48,1.26-.72,1.89.02.02.04,0,.09-.02.37-.15.7-.25,1.09-.3.83-.1,1.32.17,1.32.17-.13,0-.24,0-.37.02-.69.07-1.37.26-1.97.63-.41.24-.61.61-.63,1.08v.02c1.19-.56,2.36-.56,3.51.13-.11-.02-.22-.04-.33-.07-.63-.12-1.25-.11-1.86.03,0,0-.53.13-1.03.36-.03.01-.06.02-.08.04-.36.17-.57.47-.65.89-.04.17-.04.35-.07.54v.02c0,.11.04.15.15.11.15-.07.3-.11.46-.17.67-.22,1.34-.28,2.04-.22.24.02.48.02.72.09.24.07.46.17.63.35,0,0-.88-.34-2.23,0-.32.08-.63.19-.94.35-.28.15-.54.33-.8.52-.15.11-.22.26-.22.46-.02.43-.07.87-.09,1.28v.04s-.35-.61-.39-.93c-.02-.11-.02-.22-.02-.3.07-.56-.13-1-.59-1.34-.54-.41-1.15-.67-1.82-.74-.02,0-.05,0-.09-.02Z"/>
  </g>
</svg>