<?xml version="1.0" encoding="UTF-8"?>
<svg id="ice" xmlns="http://www.w3.org/2000/svg" viewBox="0 0 25.28 21.74">
  <defs>
    <style>
      .cls-1, .cls-2 {
        fill: none;
        stroke-linecap: round;
      }

      .cls-1, .cls-2, .cls-3 {
        stroke: #231f20;
        stroke-miterlimit: 10;
      }

      .cls-2, .cls-3 {
        fill-rule: evenodd;
      }

      .cls-3 {
        fill: #ceecf2;
        stroke-width: 1.8px;
      }
    </style>
  </defs>
  <g id="grass-2" data-name="grass">
    <path class="cls-3" d="M20.24,10.87c0,4.2-3.4,7.61-7.61,7.61s-7.61-3.4-7.61-7.61,3.4-7.61,7.61-7.61,7.61,3.4,7.61,7.61Z"/>
    <g>
      <line class="cls-1" x1="12.68" y1="10.78" x2="12.68" y2="15.59"/>
      <polyline class="cls-2" points="14.57 14.93 12.68 14 10.87 15.05"/>
      <g>
        <line class="cls-1" x1="12.6" y1="10.83" x2="17.17" y2="12.38"/>
        <polyline class="cls-2" points="17.14 10.37 15.66 11.87 16.07 13.91"/>
      </g>
      <g>
        <line class="cls-1" x1="12.64" y1="10.85" x2="15.62" y2="7.06"/>
        <polyline class="cls-2" points="13.72 6.42 14.63 8.31 16.7 8.61"/>
      </g>
      <line class="cls-1" x1="12.78" y1="10.84" x2="9.7" y2="7.14"/>
      <polyline class="cls-2" points="8.67 8.86 10.72 8.36 11.44 6.4"/>
      <g>
        <line class="cls-1" x1="12.62" y1="10.74" x2="8.13" y2="12.49"/>
        <polyline class="cls-2" points="9.44 14 9.62 11.91 7.98 10.6"/>
      </g>
    </g>
  </g>
</svg>