<?xml version="1.0" encoding="UTF-8"?>
<svg id="normal" xmlns="http://www.w3.org/2000/svg" viewBox="0 0 25.28 21.74">
  <defs>
    <style>
      .cls-1 {
        fill: #faf9da;
        stroke: #231f20;
        stroke-miterlimit: 10;
        stroke-width: 1.8px;
      }

      .cls-1, .cls-2 {
        fill-rule: evenodd;
      }
    </style>
  </defs>
  <g id="normal-2" data-name="normal">
    <path class="cls-1" d="M20.46,10.87c0,4.32-3.5,7.82-7.82,7.82s-7.82-3.5-7.82-7.82,3.5-7.82,7.82-7.82,7.82,3.5,7.82,7.82Z"/>
    <path class="cls-2" d="M17.19,13.44c-.14-.17-.31-.29-.48-.41-.43-.33-.85-.68-1.22-1.1-.17-.19-.33-.39-.45-.64-.12-.23-.1-.45.02-.68.04-.08.1-.17.17-.25.25-.33.54-.64.85-.93.35-.33.72-.64,1.05-.99.02-.02.06-.04.08-.06l-.02-.02h-.02s-.1.02-.14.04c-.52.19-1.05.33-1.59.43-.35.06-.72.12-1.1.1-.35-.02-.64-.17-.83-.48-.06-.1-.12-.23-.19-.35-.25-.6-.39-1.22-.54-1.84-.04-.19-.08-.37-.12-.58v.04c-.08.41-.14.85-.27,1.26-.12.45-.27.89-.45,1.32-.14.31-.35.52-.7.58-.17.04-.33.04-.5.04-.43-.02-.85-.1-1.26-.19-.45-.1-.89-.25-1.32-.39-.02,0-.06-.02-.1-.02.06.06.12.1.19.17.54.45,1.07.93,1.55,1.47.19.19.35.39.5.62.14.27.14.52,0,.79-.04.06-.08.14-.12.21-.23.29-.48.56-.74.81-.35.33-.74.62-1.12.93-.06.04-.1.08-.17.14.04.02.04,0,.06,0,.48-.14.95-.29,1.45-.41.48-.1.95-.19,1.43-.12.35.02.6.19.79.5.08.14.14.29.19.45.23.66.41,1.36.58,2.05,0,.04,0,.08.04.12.02-.1.06-.19.08-.27.12-.54.25-1.05.41-1.57.08-.27.17-.52.29-.76.19-.33.48-.5.85-.52.33-.02.68,0,1.01.06.39.06.79.19,1.18.29.25.04.48.1.7.17Z"/>
  </g>
</svg>