<?xml version="1.0" encoding="UTF-8"?>
<svg id="psychic" xmlns="http://www.w3.org/2000/svg" viewBox="0 0 25.28 21.74">
  <defs>
    <style>
      .cls-1 {
        fill: #8959a5;
        stroke: #231f20;
        stroke-miterlimit: 10;
        stroke-width: 1.8px;
      }

      .cls-1, .cls-2 {
        fill-rule: evenodd;
      }
    </style>
  </defs>
  <g id="pyschic">
    <path class="cls-1" d="M20.45,10.87c0,4.32-3.5,7.81-7.81,7.81s-7.81-3.5-7.81-7.81,3.5-7.81,7.81-7.81,7.81,3.5,7.81,7.81Z"/>
    <path class="cls-2" d="M12.8,15.33c.34-.02.64-.02.94-.07,1.19-.25,2.26-.78,3.16-1.6.73-.66,1.3-1.42,1.78-2.26.11-.18.11-.34.02-.53-.59-1.21-1.37-2.29-2.43-3.13-1.24-1.01-2.63-1.46-4.23-1.28-.64.07-1.26.23-1.85.5-.98.43-1.76,1.12-2.4,1.97-.43.57-.78,1.17-1.14,1.76-.05.07-.07.14-.09.18-.07.18-.07.34.02.53.05.09.09.16.16.25.21.27.41.53.59.8.46.62.96,1.19,1.58,1.65,1.19.89,2.49,1.28,3.89,1.24ZM11.3,11.28c.55.16.98.05,1.26-.46.3-.5.11-.92-.23-1.33.66-.14,1.42.21,1.6.98.21.8-.25,1.58-1.05,1.76-.78.18-1.37-.37-1.58-.96ZM10.87,7.79c-.23.18-.43.37-.59.59-.55.66-.78,1.42-.69,2.29.14,1.26.8,2.13,1.94,2.59,1.53.62,3.29-.21,3.89-1.78.48-1.3.05-2.77-1.08-3.59-.02-.02-.05-.02-.07-.05.09-.05.18-.02.27.02.41.21.8.43,1.17.73.71.57,1.26,1.28,1.69,2.08.07.11.07.23,0,.32-.48.73-1.01,1.4-1.69,1.92-.73.55-1.53.89-2.45,1.01-1.28.16-2.45-.18-3.5-.92-.75-.53-1.37-1.17-1.88-1.94-.11-.16-.11-.3-.02-.48.41-.73.92-1.4,1.56-1.94.39-.32.8-.59,1.26-.8.07-.07.11-.07.18-.05Z"/>
  </g>
</svg>