<?xml version="1.0" encoding="UTF-8"?>
<svg id="steel" xmlns="http://www.w3.org/2000/svg" viewBox="0 0 25.28 21.74">
  <defs>
    <style>
      .cls-1 {
        fill: #b8c2c9;
        stroke: #231f20;
        stroke-miterlimit: 10;
        stroke-width: 1.8px;
      }

      .cls-1, .cls-2 {
        fill-rule: evenodd;
      }
    </style>
  </defs>
  <g id="steel-2" data-name="steel">
    <path class="cls-1" d="M20.46,10.87c0,4.32-3.5,7.82-7.82,7.82s-7.82-3.5-7.82-7.82,3.5-7.82,7.82-7.82,7.82,3.5,7.82,7.82Z"/>
    <path class="cls-2" d="M15,8.77h-4.81c.8,1.39,1.6,2.77,2.41,4.16.78-1.39,1.58-2.77,2.39-4.16Z"/>
    <path class="cls-2" d="M11.45,7.73s-.02-.06-.04-.08c-.15-.28-.3-.55-.46-.84-.08-.15-.13-.17-.29-.17-.4.04-.82.06-1.22.08-.15,0-.27.08-.34.21-.1.15-.17.3-.27.46-.3.53-.61,1.06-.93,1.6-.08.15-.1.29-.02.44.15.27.27.55.42.82.04.1.1.17.13.27s.11.13.23.13c.34,0,.68,0,1.03-.02.06,0,.06-.02.04-.06-.11-.25-.25-.48-.4-.68-.08-.13-.17-.27-.23-.4-.11-.23-.1-.46.02-.68.06-.13.15-.27.23-.38.1-.15.21-.28.29-.44.09-.17.23-.25.42-.25.46.02.93,0,1.39,0Z"/>
    <path class="cls-2" d="M15.55,10.61v.02h1.1c.06,0,.1-.04.13-.08.02-.04.04-.08.06-.11.17-.36.34-.74.53-1.08.08-.15.08-.29-.02-.42-.25-.42-.49-.84-.74-1.24-.15-.27-.3-.53-.46-.78-.08-.13-.19-.21-.36-.21s-.36-.02-.53-.02c-.21-.02-.42-.02-.63-.04-.13-.02-.25.02-.3.17-.02.06-.06.11-.09.17-.13.23-.25.46-.38.7-.02.04-.02.06.04.06.19,0,.38.02.55.02.21-.02.42-.04.65-.02.29,0,.51.11.67.36.08.11.13.23.21.36.08.17.15.34.27.49.09.15.09.3,0,.46-.11.17-.21.36-.3.55-.13.17-.27.4-.38.63Z"/>
    <path class="cls-2" d="M14.3,12.67c-.17.25-.32.49-.44.74-.08.15-.15.3-.27.44-.11.15-.27.25-.46.27-.13.02-.27.02-.4.02-.23-.02-.46-.04-.7-.04-.17,0-.3-.06-.38-.21-.21-.4-.46-.78-.68-1.18,0-.02-.02-.04-.04-.04-.19.3-.38.61-.57.93-.04.06-.04.11,0,.19.02.04.04.08.06.09.23.34.46.67.67,1.01.1.15.21.21.38.21h2.36c.17,0,.29-.06.36-.21.17-.28.36-.55.53-.82.04-.08.1-.13.13-.21.06-.1.06-.17,0-.27-.1-.15-.19-.32-.28-.49-.09-.15-.17-.29-.27-.44Z"/>
  </g>
</svg>