<?xml version="1.0" encoding="UTF-8"?>
<svg id="water" xmlns="http://www.w3.org/2000/svg" viewBox="0 0 25.28 21.74">
  <defs>
    <style>
      .cls-1 {
        fill: #231f20;
      }

      .cls-1, .cls-2 {
        fill-rule: evenodd;
      }

      .cls-2 {
        fill: #8ad7f8;
        stroke: #231f20;
        stroke-miterlimit: 10;
        stroke-width: 1.8px;
      }
    </style>
  </defs>
  <g id="water-2" data-name="water">
    <path class="cls-2" d="M20.24,10.87c0,4.2-3.4,7.61-7.61,7.61s-7.61-3.4-7.61-7.61,3.4-7.61,7.61-7.61,7.61,3.4,7.61,7.61Z"/>
    <path class="cls-1" d="M16.54,6.9c-.27.1-.52.21-.8.31-.4.15-.78.34-1.11.61-.17.15-.34.31-.48.5-.4.54-.44,1.11-.17,1.72.19.4.44.73.71,1.07.25.31.54.61.78.94.31.42.52.88.61,1.4.08.57,0,1.11-.38,1.57-.25.31-.59.5-.94.65-.71.29-1.47.38-2.24.31-.84-.08-1.63-.29-2.39-.67-.71-.36-1.28-.86-1.7-1.55-.34-.59-.5-1.22-.44-1.91.08-1.17.61-2.12,1.53-2.85.71-.57,1.51-.96,2.37-1.26.96-.34,1.93-.57,2.93-.71.34-.04.69-.1,1.03-.13.22-.01.45-.01.69-.02ZM13.05,14.73c-.12.33-.83.38-1.59.11-.75-.27-1.27-.77-1.15-1.1.12-.33.83-.38,1.59-.11.75.27,1.27.77,1.15,1.1Z"/>
  </g>
</svg>