<?xml version="1.0" encoding="UTF-8"?>
<svg xmlns="http://www.w3.org/2000/svg" version="1.1" viewBox="0 0 595.28 841.89">
  <!-- Generator: Adobe Illustrator 28.6.0, SVG Export Plug-In . SVG Version: 1.2.0 Build 709)  -->
  <g>
    <g id="Layer_1">
      <g>
        <path d="M566.54,487.15c-24.6-14.2-51.2-25.22-75.99-39.03-.4-.4.42-.75.79-.92,10.99-4.87,21.96-9.67,32.92-14.62.39-.2.7-.44.86-.76.24-.52.09-1.21-.07-1.77-1.8-6.76-2.93-13.66-4.7-20.43-.08-.37-.26-.9-.53-1.05-.43-.22-.9.15-1.28.4-2.11,1.51-3.93,3-6.05,4.39-.61.36-1.14.87-1.69.66-3.85-22.28-6.67-45.15-11.06-67.5-.07-.36-.13-.73-.23-1.09-.13-.51-.32-.93-.7-1.13-.79-.34-1.73-.09-2.56,0-43.19,6.31-98.25,23.11-124.12,60-.1.44-.01.91.17,1.37,5.25,11.06,11.78,21.6,16.42,32.9.17.51.81,1.57.2,1.73-3.37,1.3-24.95,8.34-28.33,9.06-.18-.08-.2-.35-.19-.88.65-13.11,2.47-26.23,2.03-39.41.01-.6.07-1.2.28-1.73.2-.52.53-.98.91-1.42,10.27-10.95,19.16-23.38,25.36-37.1.43-.99,1.05-1.89,1.88-2.59,1.4-1.18,2.65-2.53,3.65-4.06.48-.72.95-1.49,1.75-1.86.42-.21.9-.33,1.35-.47,1.43-.44,2.69-1.21,3.96-1.98,1-.61,2.06-1.29,2.47-2.43.47-1.24.31-2.75.25-4.13-.06-1.04-.19-2.21-.82-3.03-.6-.89-2.04-1.26-2.31-2.23-.16-.7.22-1.5.43-2.17.92-2.56,1.54-5.19,1.95-7.87.13-1.01.44-2.18-.09-3.08-.42-.58-1.42-.78-2.33-.95-1.2-.23-2.42-.34-3.64-.52-.59-.08-1.16-.24-1.45-.63-.55-.77-.5-1.84-.75-2.76-.38-1.95-1.47-6.21-2.97-6.54-.64-.1-1.24.31-1.8.61-2.14,1.17-4.42,2.17-6.35,3.7-.46.35-1.02.85-1.62.7-.51-.1-.99-.66-1.43-1.15-.64-.72-1.25-1.46-1.9-2.17-.66-.72-1.35-1.43-2.12-2.02-.53-.44-1.25-.59-1.81-.09-2.65,2.59-4.85,5.66-6.23,9.15-.35.94-.72,2.31-2,2.14-2.95-.51-5.78-.19-8.67.51-.97.22-1.42-.11-1.4-1.12.32-17.41-3.71-34.48-11.69-49.85,39.72-12.8,77.68-37.49,97-75.89.49-.95,1.19-2.23.76-3.21-.36-.79-1.24-1.11-2.11-1.24-43.03-3.11-88.47,23.1-119.8,51.14-.44.39-.89.76-1.44.92-.54.17-1.15.05-1.77-.16-25.38-10.47-51.16-5-75.57,4.63-.22-.07-.23-.35-.12-.77.01-.05.03-.11.04-.17,11.61-37.36,13.21-83.09-8.77-116.75-.51-.65-1.14-1.19-1.94-1.17-1.39.04-2.66,1.67-3.57,2.89-28.66,44.36-32.88,102.74-17.79,152.66.14,1.26-.17,2.53-.55,3.74-3.8,11.81-3.08,24.44-1.03,36.51.07,1.36-.11,2.66-.46,4.04-7.94,26.09,17.82,46.44,40.41,53.68.95.29,1.65.71.49,1.32-10.14,4.41-20.97,7.41-31.34,11.24-.74.07-1.22-.62-1.54-1.23-3.83-7.16-8.02-14.09-12.14-21.09-.44-.69-.84-1.58-1.6-1.88-.37-.14-.83-.07-1.35.06-9.65,3.69-17.09.52-27.1-1.04-.65-.15-1.22-.37-1.68-.73-.8-.63-1.28-1.7-1.68-2.66-.13-.34-.26-.73-.16-1.07.09-.28.38-.4.79-.4,6.2.7,12.26,1.89,18.41,2.93.85.14,1.73.26,2.59.23,2.07-.1,4.1-.94,6.12-1.43,1.13-.3,2.26-.62,3.39-.93.59-.15,1.18-.26,1.68-.05.48.19.8.56,1.12.99,4.52,6.8,8.99,13.63,13.23,20.61,1.22,2.18,1.89,1.74,3.9,1.01,4.64-1.71,9.33-2.98,13.94-4.81,1.03-.43.32-.83-.42-1.18-20.43-9.94-39.49-30.28-32.01-54.22.27-1,.44-1.93.42-2.89-2.22-12.2-2.58-24.81.84-36.84.26-.96.54-1.96.57-2.94.03-.87-.13-1.75-.38-2.61-6.59-20.06-8.94-41.35-7.77-62.4.05-1.23-.08-2.42-.54-3.56-1.89-4.17-3.65-8.32-5.64-12.44-.07-.13-.13-.26-.19-.37-.13-.24-.25-.4-.35-.44-.14-.06-.23.15-.28.54-.02.14-.03.31-.05.47-.93,10.57-.06,21.06-1.49,31.5-.15.31-.44.33-.83.11-21.86-15.51-43.32-32.14-65.94-46.37-.36-.21-.59-.39-.75-.37-.09.03.08.28.37.64,20.89,25.68,43.66,50.23,62.49,77.41-9.05-5.1-17.84-11.1-26.6-16.37-.16-.1-.31-.19-.44-.26-.32-.17-.49-.21-.47-.05.01.09.09.24.21.42.07.1.14.22.23.34,1.71,2.32,3.47,4.59,5.13,6.94,2.51,3.61-3.36,1.3-3.69,3.21-.03.32.18.76.35,1.09,3.38,6.37,6.07,13.06,9.51,19.37.62.71,1.61.87,1.89,1.79,2.91,11.87,7.6,23.84,9.99,35.62-.19.21-.71-.16-.96-.3-4.36-2.69-8.63-5.55-13.02-8.15-.25-.09-.38-.02-.36.23,2.97,8.79,6.84,17.23,9.77,26,.34.98.46,1.55-.42.63-10.17-10.48-29.14-35.62-33.26-44.09.14-.36.66-.65,1.04-.83,1.36-.64,2.8-1.19,4.21-1.76.83-.34,1.73-.13,2.42.4,4.51,3.14,9.26,6.08,14.22,8.44.99.45.7-.39.47-.94-.92-2.35-1.93-4.51-2.72-6.77-.03-.18,0-.28.09-.31.09-.02.24.03.42.13.11.06.23.14.35.22,2.53,1.76,4.5,4.11,7.22,5.64.24.12.72.38.82.07-4.48-12.33-11.39-23.71-16.83-35.69-.24-.42-.49-.78-.83-.97-.68-.34-1.5-.11-2.22.08-1.29.34-2.76,1.06-3.92.59-.67-.26-1.18-.84-1.65-1.36-.62-.7-1.25-1.32-1.81-2.05-.21-.28-.47-.63-.43-.96.03-.19.21-.32.49-.38.15-.04.32-.06.51-.07,4.45-.29,8.81.28,13.24-.25.64-.23.22-.79-.09-1.21-12.94-16.88-26.82-32.6-39.06-49.61-.19-.27-.62-.87-.79-.81-.12.02-.17.23-.18.58.22,9.07,1.29,18.08,1.34,27.16,0,.15,0,.29,0,.42-.02.75-.35.93-.98.58-6.08-3.76-12.08-7.27-17.79-11.53-.84-.63-1.8-1.41-2.81-1.62-.84-.16-1.63.07-2.57.39-.6.17-1.38.59-1.1,1.32,3.73,6.22,8.27,11.87,12,18.07.23.37.51.92.36,1.3-.1.38-.58.65-.95.86-7.28,3.9-14.89,6.82-22.44,10.25-.32.14-.8.38-.92.63-.13.24,0,.5.32.79,7.46,5.8,15.46,10.81,23.51,15.73,1.05.57,2.14,1.09,3.27,1.49.46.17.96.29,1.22.24.26-.05.26-.27.01-.58-6.35-5.88-13.77-10.48-20.76-15.66-.27-.23-.46-.48-.49-.74-.04-.32.17-.64.52-.92.33-.26.71-.46,1.09-.65,5.56-2.42,11.11-5.03,16.83-7.08.54-.14,1.38-.15,1.11.57-2.48,3.07-6.76,4.12-9.94,6.41-.34.22-.7.58-.68.96.01.23.16.47.39.72,6.62,6.25,14.03,11.63,20.53,18.05.25.24.64.65.64.95.04.39-.4.63-.73.8-2.89,1.31-5.52,2.45-8.47,3.66-.28.11-.68.3-.79.52-.11.21.11.44.51.67,1.11.59,2.24,1.07,3.29,1.77.54.36,1.15.8,1.22,1.24.08.43-.33.79-.67,1.05-2.73,1.95-5.54,3.66-8.35,5.46-.3.19-.64.49-.65.81-.02.35.37.74.66,1,4.23,3.9,7.44,8.68,10.94,13.21,2.62,2.17-9.78,18.36-11.27,20.86-2.53,3.73-4.83,7.47-7.24,11.27-.46.72-.93,1.49-1.1,2.33-.24,1.16.2,2.39.51,3.52.27.99.38,1.76-.09,2.5-4.44,6.15-9.39,12.06-14.04,18.07-.78.88-1.49,2.06-2.37,2.78-.43.35-.84.4-1.47.3-11.4-2.83-22.68-6.24-34.09-9.04-.39-.09-.64-.12-.65-.04,0,.07.17.22.45.41,9.14,6.03,18.22,12.06,27.86,17.36.33.2.57.43.63.69.12.38-.24.86-.5,1.19-3.74,4.61-7.52,9.16-11.31,13.73-.63.64-1.33,1.1-2.19,1.27-.78.16-1.61.09-2.4.04-1.58-.1-3.16-.22-4.73-.22-.05,0-.09,0-.14,0-.33.03-.39.11-.15.27,19.03,8.57,37.59,18.42,56.44,27.49.58.31,1.12.66,1.49,1.13.59.71.71,1.72.82,2.63.67,6.82,1.48,13.62,2.13,20.43.02.59.19,1.54-.16,1.98-.38.4-.67-.38-.76-.71-.47-1.75-.69-3.52-.98-5.3-.16-.8-.22-1.66-.57-2.41-.3-.65-.91-.77-1.62-.72-10.85,1.23-21.54,3.57-32.3,5.37-.82.25.08.7.43.87,1.48.78,3.17,1.14,4.59,2.07.11.11.15.21.1.31-.07.15-.36.27-.73.38-17.61,4.92-34.95,9.7-52.27,14.55-.41.14-.69.3-.66.42,23.48-.4,47.28-2.66,70.9-2.9,1.05-.02,2.13-.04,3.05-.38,3.22-1.11,6.71-4.89,9.95-6.79.26-.16.65-.34.92-.31.35.03.53.33.64.66.41,1.54.27,3.16.52,4.82.04.31.13.72.32.94.24.24.55.02.76-.2.7-.78,1.14-1.68,1.66-2.57,4.82-10.24,12.66-14.96,21.83-20.99.89-.48,1.79-.08,2.55.42.76.49,1.52.92,2.26,1.43.72.5.78,1.03.02,1.51-4.44,2.83-8.96,5.4-13.29,8.39-1.36,1.16-.96,3.15-1.02,4.75-.02,1.33-.03,2.71-.07,4.08-.07,3.92.18,3.31,4.21,4.11.5.11,1.14.22,1.6.37,1.22.38.18.73-.43.86-3.93.8-7.72,1.03-11.8,1.62-.23.05-.38.11-.42.18-.04.06,0,.13.1.2.98.54,2.15.85,3.05,1.39.27.14.91.57.29.66-9.71.09-19.56-.92-29.21-.37,8.88,2.82,18.31,4.24,27.3,6.78.31.09.94.27,1.08.47.35.61-1.45.68-1.69,1.09-.02.09.03.13.12.18.07.04.17.08.29.11,10.07,2.27,20.46,2.57,30.64,4.15.28.04,1.14.15.98.44-37.18,18.73-75.78,36.09-112.31,55.86-.4.23-.7.37-.66.46.06.04.37-.02.78-.12,29.78-7.17,60.39-14.7,90.69-20.24.12.07-.04.26-.35.52-9.38,7.35-19.34,13.85-28.78,21.08-.3.25-.42.41-.28.45,19.33-4.6,38.54-12.5,57.85-16.07.37-.06.65-.09.74-.02.18.14-.44.65-.66.83-10.69,9.24-22.54,17.37-32.85,26.7,14.38-3.07,28.64-7.2,42.92-10.91,2.12-.5-.62,1.3-1.15,1.56-1.26.73-2.57,1.38-3.19,2.6-.47.93-.5,2.08-.59,3.11-.19,2.16-.41,4.3-.62,6.45-.04.42-.08.86-.06,1.28.02.41.14.88.48,1.04.25.14.6.16.98.13,8.69-1.48,17.29-3.44,25.93-5.13.45-.13,2.45-.35,1.39.52-.8.49-1.89.76-2.78,1.11-3.52,1.31-7,2.82-10.41,4.4-.81.38-1.69.57-2.45,1.03-.53.33-.55.79.11.9.56.09,1.17,0,1.74-.12,4.27-.76,8.48-1.78,12.76-2.48.46-.06,1.03-.07,1.32.31.23.25.34.72.41,1.09,1.26,6.62,1.64,13.24,1.64,20.02-.02.47.06,1.06.46,1.23.3.11.74.03,1.09-.06,4.41-1.06,8.62-2.52,12.95-3.76,1.34-.28,2.63.12,3.83.69,5.55,2.56,11.29,4.87,16.47,8.11.25.18.42.34.47.45.06.13-.1.15-.4.07-5.82-2.44-11.78-4.64-17.53-7.35-.98-.5-1.28-.51-.3.33,4,3.47,8.8,5.84,13.12,8.97.79.53.66,1.13-.33,1.44-1.45.57-2.9.09-4.18-.64-3.13-1.57-6.18-3.34-9.39-4.77-1.3-.52-2.57.23-3.79.62-6.43,2.15-13.04,4.14-19.65,5.66-.36.1-.83.16-1.12.05-.26-.1-.4-.35-.45-.71-.12-7.57,1.08-15.04,1-22.7,0-.18,0-.35-.03-.51-.07-.76-.54-.94-1.21-.77-8.41,2.58-14.09,12.2-20.11,18.55-.01.13.12.18.36.15.23-.02.55-.11.8-.19,3.89-1.18,7.86-2.52,11.96-3.69.93-.17.38.75.15,1.22-5.7,11.25-12.08,21.31-17.49,32.72,0,.21.17.25.5.14,6.61-2.97,13.02-5.94,19.59-8.49.91-.35,1.4-.4.86.67-11.21,22.2-23.87,43.57-35.22,65.7-.19.37-.32.66-.29.75.02.1.21-.05.51-.34.12-.11.23-.22.34-.34,24.28-24.38,47.2-50.19,70.67-75.37.83-.83,1.64-1.83,2.74-2.35,1.02-.44,2.24-.18,3.33-.45,1.11-.25,3.49-1.04,2.08.97-5.63,7.95-11.48,15.79-17.2,23.81-.41.62-.36,1.14.31,1.49,8.26,3.94,17.41,5.77,25.92,9.18.34.16.59.36.7.62.18.36-.03.95-.22,1.36-4.58,10.8-10.08,21.13-14.58,31.95-.28.69-.2,1.28.52,1.63,8.18,3.52,16.94,5.39,25.03,8.98.18.15.15.26-.08.32-.12.03-.31.05-.52.05-3.95-.2-7.91-.55-11.86-.76-.24,0-.34.03-.27.1.06.06.25.14.53.25,6.35,2.26,12.71,4.25,18.92,6.8.6.27,1.27.47,1.79.84.3.21.46.42.4.56-.05.14-.31.2-.68.19-9.66-1.12-19.2-2.8-28.85-4.1-1.05-.11-2.06-.05-3.06.23-.7.19-1.38.47-2.05.76-3.4,1.49-6.84,2.89-10.27,4.3-.52.21-1.03.43-1.56.6-.53.17-1.13.25-1.47.02-.38-.27-.38-.69-.3-1.19,2.78-12.63,5.7-25.18,7.68-38.13.04-.25.19-1.17-.08-1.04-9.73,12.61-10.86,29.51-14.94,44.57-.16.74.18,1.18.86,1.27,1.79.24,3.59.15,5.4.24,2.12.18,4.25-.16,6.22-.95,3.8-1.35,7.59-2.71,11.39-4.04.81-.27,1.64-.48,2.5-.54,16.22,1.06,32.31,4.2,48.56,4.7.28.01.53.01.7,0,.3-.03.3-.14,0-.33-6.94-3.56-14.17-6.54-21.11-10.08-.73-.53-.37-.7.37-.52,12.36,3.54,24.43,8.05,36.2,13.22,2.54.41,2.47-1.02,5.22,1.16.61.47,1.2.92,1.84,1,.6.07,1.12-.12,1.69-.42.79-.43,1.58-1.07,2.31-1.53.65-.43,1.32-.79,1.99-1.19,14.49-8.52,28.33-19.34,43.25-26.5.11-.03.23-.04.13.11-.03.04-.03.04-.05.07-.28.36-.79.77-.77,1.26.05.55.43.98.81,1.42,14.51,14.27,28.75,28.84,43.17,43.21.3.29.54.5.63.5.11,0,.03-.25-.15-.66-7.5-16.91-18.34-32.91-25.25-50.02.12-.34.54-.5.89-.61,2.44-.64,4.9-.88,7.32-1.54.24-.06.51-.15.7-.27.19-.12.29-.26.29-.43,0-.15-.08-.33-.23-.52-1.95-2.14-3.98-4.14-5.9-6.18-.35-.36-.74-.83-.68-1.35.02-.38.29-.78.52-1.11,2.99-4.15,5.88-8.24,8.87-12.36.61-.85,1.34-.6,2.01-.02,2.37,1.86,4.44,3.61,6.8,5.56.28.18.49.25.66.02.17-.26.15-.94.17-1.52.02-.89.02-1.81.05-2.69-.01-.45.15-.93.49-.98.31-.06.58.06.92.17,6.59,2.58,12.97,5.6,19.56,8.2.47.16,1.05.32,1.49.14.44-.13.84-.63,1.18-.99,11.15-13.38,21.96-27.02,33.04-40.45,1.08-1.38,2.14-.44,3.23.31,26.34,18.58,52.05,38.24,78.17,57.03-22.09-33.35-46.4-65.04-68.99-98.08.09-.31.73-.37,1.08-.41,6-.57,11.73-.29,17.76-.85.21-.02.4-.05.55-.09.32-.09.46-.24.36-.48-.06-.16-.23-.35-.44-.56-6.42-6.07-12.72-11.83-18.46-18.17-.23-.28-.31-.48-.18-.56,24.94,5.16,49.49,12.61,74.21,18.83.11.03.22.06.33.08.46.12.76.16.72.07-19.37-11.42-39.16-22.3-58.66-33.56-.45-.26-.89-.54-1.3-.85-2.09-1.56-2.89-4.33-5.07-5.72-.36-.24-1.1-.56-1.15.12-.12,2.05,4.13,9.34.34,6.95-6.74-3.86-12.95-8.58-19.86-12.38-.29-.14-.53-.22-.67-.16-.1.04-.15.14-.14.31.36,1.78,1.5,3.32,2.43,4.85.07.12.12.23.14.31.04.14,0,.2-.13.19-2.29-.9-4.21-2.32-6.58-2.97-.25-.07-.6-.15-.83-.12-.46.04-.55.44-.56.85.17,2.28.68,4.52,1.04,6.76.2,1.09.35,2.37.51,3.36,1.68,8.98,16.71,19.03,23.05,27.38,1.5,1.87-1.72.95-2.65.92-1.14-.14-2.28-.3-3.42-.44-3.37-.43-7.49-.14-9.33-3.19-.73-1.29-1.26-2.84-2.92-1.6-3.27,2.63-1.62,8.68-4.1,11.3-12.74,8.74-26.31,16.38-38.78,25.57-.41.33-.98.73-.48,1.21.28.29.9.5,1.12.86.1.17.04.35-.12.47-32.39,13.87-63.17,34.52-96.26,45.6-11.92-3.47-23.27-8.97-35.03-13.05-.61-.17-1.28-.53-1.91-.44-.49.07-.89.5-1.14.99-4.36,9.28-8.42,18.69-12.37,28.15-.07.17-.13.34-.18.51-.02.05-.04.14-.05.15-.18.51-.16,1.15.34,1.47.45.31.97.49,1.48.67,13.02,4.47,26.28,8.18,39.26,12.78,1.76.42,2.82.69,4.41-.03,14.8-6.27,29.49-12.72,44.29-18.97.37-.17.64-.37.69-.61.08-.32-.25-.73-.5-1-3.28-3.53-6.24-7.22-9.67-10.59-.23-.25-.48-.55-.62-.78-.15-.23-.19-.4-.1-.44.08-.04.25.01.48.13.12.06.25.13.38.22,3.96,2.4,7.41,5.38,11.19,8.04.37.23.84.47,1.23.4.35-.04.68-.26,1.04-.53,11.13-9.4,23.09-17.8,34.33-27.08.88-.6.65.12.28.64-7.94,10.88-16.94,21.1-24.31,32.36-.26.44-.44.83-.29,1.29.13.41.58.76,1.03,1.1.51.4,1.05.79,1.52,1.24.28.27.75.75.26,1.04-.18.1-.47.17-.79.22-23.55,3.67-42.33,20.44-62.66,31.98-1.16.65-2.31.8-3.55.31-21.44-8.5-43.26-16.03-64.72-24.49-1.04-.49-1.15-1.09-.75-2.12,4.51-10.76,9.81-21.27,14.09-32.1.11-.33.16-.63.05-.9-.13-.34-.51-.61-1.07-.82-11.29-3.55-22.05-7.04-24.56-8.62-.09-.08-.13-.19-.08-.37.05-.26.46-.9.7-1.25,8.34-12.66,16.45-25.18,24.57-38.08.21-.37.31-.71.2-.99-.11-.36-.53-.56-.87-.73-2.57-1.11-5.26-1.77-7.92-2.64-1.19-.4-2.37-.48-3.64-.28-17.54,3.39-26.92-17.15-27.72-32.11-.11-1.08-.71-1.56-1.72-1.81-55.61-9.45-58.46-73.54-5.22-89.73.88-.28,1.6-.59.85-1.31-5.59-4.84-11.65-8.99-17.79-13.09-.73-.57-1.14-1.35-1.2-2.27-.08-3.82.47-7.65.2-11.47-.03-.56-.04-1.13.02-1.69.63-3.38,1.58-6.7,2.34-10.06.19-.79.41-1.62.88-2.29,1.07-1.64,3.91-1.93,4.5-3.51.26-.79-.22-1.86-.55-2.68-.17-.39-.34-.8-.61-1.12-.42-.54-1.19-.54-1.84-.42-5.65,1.16-11.28,2.4-16.9,3.73-1,.21-2.09.59-3.07.19-.47-.19-.88-.55-1.27-.94-10.92-11.78-20.67-24.59-30.94-36.94-.49-.6-1.04-1.24-1.33-1.93-.45-.96-.22-2.24.56-2.99.53-.42,1.14.06,1.53.49,11.62,11.71,21.2,25.44,32.61,37.3.64.35,1.39.29,2.1.17,6.15-1.15,12.36-1.91,18.54-2.91,1.21-.22,2.53-.31,3.28.85,1.76,2.99,3.71,5.9,5.23,9.01.53,1.05.23,1.6-.89,1.88-5,1.33-9.32,2.65-8.05,8.32.09.7.11,1.46,0,2.09-.22,1.48-1.35,2.63-1.34,4.09.01.75.25,1.49.38,2.23.29,1.56.05,3.14-.09,4.73-.22,2.32-.1,3.33,1.94,4.65,6.31,4.36,12.33,9.1,18.52,13.61.53.33,1.11.62,1.72.81,1.67.6,4.41.3,2.46-1.84-5.29-5.63-11.13-10.79-17.45-15.26-.51-.36-1.04-.76-1.35-1.28-.47-.79-.31-1.8-.2-2.68.14-1.06.19-2.07.21-3.16,0-1.26.04-2.79,1.32-3.44,2.15-.98,4.54-1.37,6.73-2.24,1.17-.39,1.17-.78.05-1.11-1.16-.33-2.42-.75-3.6-.48-1.08.12-2.47,1.64-3.24.54-.3-.51-.35-1.18-.4-1.77-.04-.77-.02-1.53.4-2.02.52-.57,1.35-.81,2.07-1.06,2.27-.75,4.54-1.59,6.89-1.87.33-.05.75-.1,1.01-.29.38-.22.47-.85.44-1.4-.03-2.39-.31-4.24,2.58-3.98,2.83.1,5.5,1.48,6.57,4.12.22.51.57,1.03,1.18.95,10.45-3.57,20.73-6.84,31.39-9.85.42-.09.7-.05.8.18-2.99,12.49-8.02,24.84-14.78,35.83-.74,1.2-1.39,1.47-2.75,1.17-3.03-.65-6.06-1.34-9.03-2.21-5.79-1.99-12.94-4.38-16.43-9.27-.32-.45-.68-.91-1.2-1.1-.35-.13-.78-.15-1.17-.11-2.11.24-4,.89-5.61,2.32-.18.15-.36.34-.48.51-.22.3-.2.53.06.65.22.1.5.13.76.15,1.23.08,2.36.17,3.41.69.47.23.91.54,1.33.89,5.74,5.15,11.17,10.64,16.67,16.04.72.79,2,1.73,1.98,2.87-.33,1.69-3.16,2.74-4.7,3.02-27.54,1.65-56.37,25.31-46.83,54.76,5.7,17.42,24.57,26.09,41.44,28.95.65.16,1.56.21,2.02.72.55.56.35,1.99.42,2.88.95,34.92,30.13,40.63,34.64,6.14.17-1.17.3-2.3.41-3.51.04-.93.53-1.21,1.43-1.06,11.06,1.92,21.76,5,32.75,7.2,1.28.24,2.14,1.18,2.91,2.16,7.06,8.69,13.84,18.27,24.4,22.85.93.42,1.45,1.22,1.58,2.2,2.27,14.58,5.73,32.94,18.73,41.52,1.26.7,2.76,1.27,4.09,1.52,6.24,1.33,12.11-2.8,14.37-8.46.37-.89.65-1.81.85-2.77,1.93-11.67.49-23.72-2.71-35.05-.47-1.52-.72-2.76.42-4.05,11.42-12.39,10.01-30.37,7.57-45.97-.13-.79.11-1.28.95-1.35,10.99-.26,21.95.45,32.94.54,1.71-.1,1.34-1.47.94-2.93-1.1-4.01-2.49-7.88-3.65-11.87-.09-.4-.22-.95.15-1.2.24-.2.75-.24,1.13-.25,8.11-.32,16.23.23,24.36.18.69-.02,1.63,0,2.02-.56.17-.27.18-.67.14-1.11-1.63-8.55-4.02-16.9-5.72-25.44-.12-.78.34-1.13,1.07-1.24,11.34-1.44,22.76-2.2,34.12-3.55.47-.06.95-.11,1.41-.21.48-.11.85-.31.97-.68.08-.23.07-.53.03-.84-3.53-13.94-8.6-27.46-12.22-41.36-.09-.5.01-.88.36-1.11,24.88-5.95,50.09-11.49,75.26-15.88.2.04.12.2-.16.45-.15.13-.3.25-.47.38-13.81,10.59-28.6,20.28-43.19,29.74-.15-.08.29-.62.41-.81,3.81-5.36,6.69-10.89,9.55-16.91.26-.74-.16-.84-.84-.72-11.01,2.05-21.85,4.55-32.83,6.76-.72.19-1.72.23-2.14.8-.22.33-.12,1.17.04,1.71,3.99,13.94,9,27.64,12.6,41.66-.02.41-.29.65-.75.76-11.56,1.5-23.05,2.95-34.64,4.16-2.68.18-2.79.99-2.24,3.29,1.05,4.5,2.15,8.98,3.16,13.5.24.93.59,1.87,1.24,2.57.63.72,1.55,1.24,2.39,1.7,6.97,3.77,13.9,7.62,20.7,11.68.31.17.66.33.95.36.77.1.76-.77.56-1.31-.8-2.72-1.72-5.38-3.12-7.84-.33-.59-.43-.96.33-.54,4.59,2.71,8.71,5.66,13.11,8.77.44.26.79.37.87-.18-.15-3.25-2.1-5.93-3.08-8.92-.05-.16-.09-.3-.12-.41-.04-.18-.02-.26.05-.22,3.4,4.55,6.58,9.28,10.74,13.38.12.12.24.23.35.32.22.18.4.27.53.22.1-.03.17-.14.21-.31.03-.11.05-.25.06-.4.06-1.67.1-3.33.16-4.95.07-1.91.17-3.83.32-5.74.06-1.2.39-2.68-.26-3.65-.49-.71-1.36-1.18-1.83-1.91-.89-1.51-.59-2.73-2.4-3.72-5.44-2.81-11.17-5.01-16.45-8.09-.23-.14-1-.55-.67-.76,17.09-1.52,34.41-.74,51.58-1.28.51-.05.95-.16,1.24-.44.35-.32.46-.94.54-1.45.09-.87.17-1.57.27-2.48.17-1.54.69-4.35.55-5.32-.05-1.11-1.48-1.81-3.59-2.63-1.24-.5-2.47-1.02-3.6-1.53-.64-.24-1.84-1.23-.46-1.22,3.46.36,6.92,2.11,7.74.83.14-.21.23-.48.28-.74.27-1.47.17-2.97.38-4.41.07-.41.19-.89.57-1.1.32-.2.9-.1,1.31,0,8.3,1.9,17.47,3.56,25.17,6.15.28.1.47.18.51.25.04.06-.04.09-.22.11-2.62.08-5.26,0-7.89.03-.16,0-.3.02-.4.05-.17.04-.22.11-.15.21,3.75,2.39,8.2,3.64,11.98,5.99.15.09.29.18.4.26.2.15.27.26.18.31-6.54-.42-12.96-2.58-19.48-3.51-.52-.06-1.32-.11-1.65.32-.17.21-.27.51-.33.85-.29,3.84-.29,7.71-.44,11.56.02.77-.09,1.63.13,2.36.14.59.69.91,1.26,1.04.86.21,1.81.25,2.7.33.61.04,1.21.11,1.8-.02.65-.14.87-.82.93-1.43.18-2.15.17-4.27.31-6.43.04-.42.06-.88.19-1.28.2-.74.81-.89,1.58-.83,14.72,1.94,29.23,5.1,43.88,7.47.39.06.66.08.7.03.04-.05-.14-.17-.45-.32-8.11-3.89-17.22-6.02-24.92-10.65-.68-.49-.33-.68.37-.59,10.66,1.79,21.26,4.38,31.81,6.57h0ZM272.35,654.85c-.51-.14-1.06-.32-1.58-.48-2.96-.92-3.19-1.07-1.93-3.91.35-.78.73-1.62,1.05-2.34.15-.31.26-.7.49-.95.55-.58,3.06,6.98,3.06,7.36.19.69-.52.48-1.07.33h-.03ZM313.91,657.97c-.09-.06-.13-.17-.16-.27-.5-2.98-.37-9.14-.02-11.33.07-.49.46-.41.88-.2,1.7.82,3.11,2.12,4.62,3.23,1.69,1.29,3.49,2.46,5.11,3.84.33.35,1.78,1.39.94,1.74-1.99.99-7.97,2.77-11.01,3.06-.13,0-.26,0-.36-.06h-.01ZM429.86,581.04c6.15-4.67,13.11-8.24,19.6-12.44.61-.4,1.27-.84,1.68-1.42.19-.27.33-.59.4-.92.21-.95-.27-2.07.91-2.18,1.55-.16,4.87,1.58,6.21,2.76.14.12.28.29.3.45.02.2-.18.39-.48.59-7.24,4.5-15.03,8.02-22.52,12.13-1.85.95-3.72,1.97-5.77,2.4-1.25.25-1.16-.62-.36-1.34l.02-.02ZM372.9,625.22c-6.63,4.76-13.2,9.6-19.81,14.39-.3.21-.69.45-.99.51-.44.1-.87-.25-1.2-.55-.29-.25-.51-.5-.78-.76-2.13-2.16-4.32-4.13-6.27-6.48-.46-.55-.56-.98.22-1.36,22-11.4,44.34-22.25,66.3-33.77.89-.44,2.05-1.17,2.99-1.13.33.02.65.14,1.05.35,4.47,2.92,8.9,5.86,13.24,8.99.52.38.84.78.27,1.35-6.75,6.88-14.44,12.73-21.22,19.6-.61.61-1.33,1.2-2.22,1.16-.54,0-1.12-.18-1.65-.34-4.21-1.31-8.2-2.18-12.37-3.76-1.04-.37-.56-.91.03-1.47.72-.7,1.36-1.29,1.77-2.14.29-.59.44-1.27.57-1.92.44-2.17.82-4.12,1.19-6.32.04-.24.09-.68-.15-.72-7.47,3.97-13.96,9.59-20.96,14.35l-.03.02ZM383.65,631.49c.5-.85,1.03-1.64,1.55-2.48.68-1.05.98-1.89,2.43-1.47,5.62,1.59,11.25,3.16,16.73,5.21,1.08.44,1.89.45,2.76-.43,16.21-15.41,32.24-31.67,49.33-45.85-14.24,18.63-31.14,35.63-46.22,53.75-.54.6-1.01.86-1.79.6-7.13-2.75-14.37-4.98-21.27-8.31-.66-.25-.61.38-.57.86.01.37.09.77.03,1.13-.14.62-.77.1-1.28-.15-.37-.21-.74-.41-1.11-.62-.4-.23-.87-.44-1.04-.74-.25-.5.2-1.01.42-1.45l.02-.03ZM102.08,264.93c.03-.22.32-.44.54-.57,2.4-1.51,4.32-2.91,6.52-4.74.24-.2.58-.43.87-.32.22.07.44.35.59.58,3.82,5.68,7.2,11.5,10.82,17.29.52.9,1.47,2.04,1.24,3.07-.12.29-.56-.03-.76-.2-6.34-5.21-13.29-9.24-19.53-14.57-.19-.18-.31-.36-.29-.52v-.02ZM152.43,413.54c1.74,1.97,4.31,3.29,6.77,4.43,3.22,1.52,6.39,2.87,7.08,4.75.17.47.23,1.01.33,1.54.9,5.14,2.3,10.15,2.88,15.34.02.25.04.46-.07.66-.12.21-.41.24-.77.18-1.2-.22-2.37-.48-3.59-.69-.5-.09-.78.12-.72.66.74,5.5,3.32,10.61,4.12,16.09.03.59-.38.37-.73.14-10-6.49-19.73-13.45-29.8-19.87-1.29-.79-2.33-.36-3.45.45-2.03,1.41-4.12,2.73-6.22,4.04-.8.47-1.01.15-.67-.72,2.39-6.54,5.43-12.74,8.27-19.18.12-.29.33-.7.61-.74.24-.06.59.15.83.31,6.92,4.55,13.64,9.11,20.47,13.54.68.32.96-.28.84-.89-1.62-6.78-4.53-13.02-6.7-19.64-.19-.51-.13-.97.48-.42l.02.02ZM204.45,405.21c-.79.04-1.31-.58-1.7-1.19-1.24-1.87-2.46-3.75-3.7-5.61-.61-.88-1.17-1.77-1.78-2.65-.34-.47-.75-.93-1.28-1.16-.6-.28-1.33-.21-1.98-.12-6.95.91-13.98,1.21-20.98,1.34-1.17-.09-2.09-.71-2.86-1.59-12.13-14.34-24.46-28.53-36.9-42.59-.73-.78-1.34-.21-1.63.64-5.32,20.56-11.19,41.58-13.21,62.69-.05.58-.03.97.34.3,3.71-7.02,6.62-13.81,9.39-21.35.14-.29.3-.45.5-.42,9.55,9.56,16.93,21.33,24.7,32.41.32.5.42,1.01-.26.54-6.79-6.11-12.84-12.99-19.22-19.54-.25-.22-.46-.31-.63-.2-5.3,16.11-10.05,32.33-16.14,48.18-.05.14-.1.28-.16.4-.18.38-.39.6-.56.51-.13-.06-.23-.31-.28-.63-.02-.13-.03-.26-.05-.4-.7-9.02-.93-18.17-1.55-27.2-.07-.43-.24-.8-.51-1.12-.32-.4-.8-.72-1.3-1-14.98-7.52-30.05-14.78-45.08-22.2-.62-.3-.94-.69-.45-1.34,10.31-13.38,20.51-26.69,30.03-40.78.38-.54.68-.6.93-.02,1.3,3.52,1.65,7.3,2.53,10.96.37,1.37-.07,2.36-.85,3.47-4.67,7.32-10.35,14.06-14.31,21.76,0,.29.18.52.47.72,8.33,4.71,16.94,9.19,25.49,13.41.72.29.73-.23.67-.81-2.18-19.73-5.83-39.37-9.64-58.86-.1-.59-.15-1.19-.08-1.75.1-.94.62-1.82,1.17-2.59,6.71-9.58,13.46-19.11,19.53-29.1.2-.38.36-.77.37-1.15.02-.58-.32-1.12-.63-1.61-3.1-4.59-6.43-9.08-9.12-13.92-.19-.33-.37-.73-.29-1.08.05-.25.21-.48.43-.7,5.53-4.85,10.32-10.38,15.43-15.67.38-.42.83-.89.8-1.47,0-.36-.18-.73-.38-1.09-9.07-14.77-18.68-29.07-29.7-42.47-.21-.27-.35-.47-.32-.53.03-.06.21,0,.48.15,9.39,5.17,18.7,12.43,29.78,13.37.31-.04.41-.22.31-.53-3.36-6.72-8.9-14.14-8.84-21.72,0-.26.02-.73.16-.83.17-.13.58.34.76.57,8.99,10.89,16.32,23.26,26.68,33,.37.39.7.73.22.9-.74.23-2.14.19-3.82.02-4.49-.45-11.06-1.8-13.04-1.08-.62.25-.57.82-.18,1.44,7.34,8.52,15.16,16.55,22.2,25.34.69.79.61,1.25-.31,1.71-7.23,3.89-15.13,6.47-22.22,10.56-.69.44-.48,1.02-.07,1.59,5.75,8.69,12.19,16.93,18.18,25.46.17.29.25.56.17.79-.08.28-.44.54-.72.71-5.7,3.68-11.71,6.86-17.16,10.92-.22.14-1.06.86-.39.75,2.03-.77,3.86-2.05,5.8-3.02,1.08-.55,1.92-1.13,2.78.15,9.63,13.84,19.36,27.63,28.13,42.05.52.82,1.1,1.9,1.76,2.57.43.41.84.54,1.57.66,6.08.91,12.19,2.06,18.24,3.2.8.15,1.63.25,2.43.22,1.77-.04,3.49-.52,5.21-1.09.66-.21,1.46-.47,2.06-.04.49.35.78.94,1.08,1.46,2.8,5.07,5.9,10,8.46,15.18.11.26.15.49.08.67-.15.31-.55.44-.89.52-1.42.3-2.76.77-4.16.93h-.03ZM122.65,241.19c.05,0,.13.08.21.23.25.49.42,1.04.55,1.57.25,1.12.46,2.28.72,3.42.18,1.1,1.02,3.44.12,4.33-1.06-.54-1.81-6.36-1.72-8.94,0-.18,0-.55.12-.6h0ZM209.2,258.43c-3.14-23.22,0-49.98,16.4-67.45,9.69,9.68,18.37,23.81,16.54,38.05-3.22,14.84-6.54,30.35-14.03,43.61-.26.41-.6.77-.95,1.11-2.36,2.22-4.42,4.55-6.37,7-1.73,2.18-3.38,4.47-5.05,6.86-.14.21-.34.46-.54.47-.2,0-.36-.47-.43-.72-2.83-9.51-4.28-19.1-5.58-28.9v-.03ZM226.89,446.45c-.03.11-.21.17-.33.2-1.02.23-1.89-.22-2.46-1.27-.24-.44-.11-.63.37-.46.84.26,1.57.69,2.24,1.22.09.08.2.19.19.29v.02ZM234.55,563.05c-.17-.07-.38-.35-.51-.55-1.67-2.47-2.45-5.45-3.85-8.09-.75-1.13-.39,2.23-.25,2.69.34,2.03,1.33,4.79,1.36,6.68,0,.53-.1.92-.38,1.17-4.29,2.42-6.18-10.88-7.51-14.19-.36-.36-.33.73-.3,1.03.09,1.91.21,3.8.33,5.71,0,.18.09.9-.22.58-2.12-2.81-4.3-13.76-3.7-18.24.06-.3.11-.5.38-.52.66-.05,2.18,0,4.13.1,5.16.33,11.72.68,16.75,1.49,1.63,1.4-4.16,21.65-6.22,22.14h-.01ZM342.25,610.55c-.22.87-.99,2.71-1.91,1.28-2.31-3.56-2.6-8.25-4.58-12.02-.15-.29-.51-.94-.46-.2.31,3.19,1.11,6.33,1.64,9.49.15,1.16.46,2.32.57,3.48.12,1.02-.56,2.02-1.55,2.17-4.06.66-5.75-10.99-8.24-14.31-.2-.06-.12.43-.11.6.33,3.19,1.64,6.24,1.77,9.43,0,.11,0,.22,0,.31-.01.2-.06.31-.14.31-6.43-8.27-9.4-19.26-11.14-29.52-.12-.84.22-1.03.86-.49,1.03.9,2.07,1.82,3.1,2.72.62.55,1.12.58.73-.36-.78-1.78-2.65-5.49.34-4.56,1.59.62,2.17,2.36,3.04,3.76.31.53.78.93.98.1.44-2.98.5-4.51,3.89-4.5.6.03,1.52-.19,1.83.43.32.88.23,1.94.55,2.87.21.34.48-.16.62-.36,1.18-1.89,1.98-3.9,3.8-5.04.23-.14.53-.25.77-.14.32.13.47.63.58,1.07.18.7.26,1.42.41,2.14.07.32.25,1.26.42,1.02.2-.47.08-1.82.36-2.25.06-.08.15-.11.24-.06.51.29.64,1.27.75,1.86,1.86,10.08,3.84,20.69.91,30.73v.03ZM355.04,428.26c.01,1.25-.37,2.25-1.67,2.35-9.24,1.11-18.76,2.58-26.97,7.14-.56.32-.55.59,0,.79,7.89,3.16,23.74,8.06,27.56,15.28.21,1.4-.16,2.85-.17,4.26-.19,2.98-.31,5.97-.81,8.92-.05.26-.13.55-.3.74-.26.33-.84.28-1.27.18-10.29-1.98-21.11-2.83-31.23.34-.38.16-1.4.35-.81.74,5.36,3.57,27.64,14.77,31.19,23.34-.06,3.73-.61,7.51-.87,11.24-.4,4.42-.8,8.83-1.15,13.26-.15,2.52-.5,5.04-.4,7.56,1.66,17.07,3.37,39.25-15.77,46.84-13.63,4.75-27.81-5.21-35.63-15.86-10.44-12.67-22.93-23.99-37.21-32.14,4.57,4.76,10.78,10.17,16.1,15.29.13.12.25.24.34.34.22.24.24.38.02.38-15.93-3.78-32.06-7.65-48.17-10.71-3.1-.38,7.43,3.53,6.74,4.46-.14.23-.45.24-.79.27-.8.04-1.57.08-2.37.1-71.96,2.76-77.78-70.17-7.26-73.04.42-.32.2-.86.37-1.37.25-.73.82-1.33,1.25-1.95,7.8-10.64,15.46-21.47,20.31-33.82,6.03-16.4,9.74-26.43,21.98-31.04,3.39-1.56,8.59-3.07,13.58-4.68.05-.08-.59,0-.8.02-16.94,1.63-34.5,0-48.63-10.1-.66-.49-1.18-.99-.86-1.84,4.06-7.18.57-16.71-4.16-22.82-5.38-7.1-12.29-9.32-13.53-.53-.28.83-.5.06-.53-.36-.75-7.95,2.59-15.85.98-23.79-13.1-55.29,58.16-88.17,101.84-68.01-.35,1.08-1.49,2.02-1.52,3.15,27.13-19.18,54.94-41.26,88.3-49.38.81-.21,1.15.04.98.76-2.41,13.41-8.72,32.8-17.55,40.83-16.84,10.18-34.94,19.11-54.45,22.59-.57.1-1.09.24-.32.64,17.31,8.72,19.56,39.85,18.12,57.46-.04,2.08-.77,3.18-2.7,3.92-1.16.47-2.34,1.35-3.59,1.73-.38-.02-.22-.52-.16-.83,1.11-3.87,1.13-7.77.22-11.1-2-8.1-10.02-13.63-18.23-11.18-17.87,4.32-18.34,32.54.11,35.88.86.12,1.46.32.77,1.12-5.53,6.84-11.93,13.09-16.61,20.61-.28.72,1.08.19.42,1.66-.92,2.5-2.16,4.78-2.98,7.21,12.81-19.71,34.3-44.37,58.95-46.72.85-.06,1.75.1,2.62.02,1.1-.1,2.19-.47,3.25-.82.79-.2,1.3-.89,1.42-1.68.43-1.55,2.01-8.88,3.54-7.52,1.94,1.85,2.57,4.5,3.93,6.71,1.55,1.33,6.65-6.89,8.74-6.58,1.34.99.79,10.08,2.27,9.69,1.67-.42,3.23-1.3,4.98-1.37,2.96-.54-.83,5.76-1.09,6.9-.35,1.2-1.46,2.23-1.53,3.47.12.89,1.27,1.42,2.01,1.99,1.21.91,3.28,2.14,2.75,3.9-.37,1.02-1.57,1.8-2.63,2.14-5.23,1.01-6.54,7.05-12.2,8.19-.5.13-1.49.12-1.49.75.31,10.07-22.33,36.69-32.27,46.3-.53.54.61.22,1.04.17,1.08-.14,2.83-.63,3.09.9.92,5.48,1.01,11.08.9,16.63v.03ZM363.82,503.68c-2.02.09-4.05.05-6.07.05-1.87-.03-2.43-.07-2.23-2.18,1.32-15.01,2.88-30,3.84-45.04.11-1,.57-.79.87.01,3.42,8.22,7.56,16.16,10.87,24.59.2.52.08.85-.46.97-13.22,3.35-12.65-.75-8.09,12.98.63,2.04,1.32,4.48,2.01,7.41.16.61.04,1.17-.71,1.21h-.03ZM497.79,406.35c-26.15,5.83-52.61,11.04-78.6,17.51-.34.24-.37.62-.27,1.12,3.92,13.04,8.67,25.83,12.42,38.92.09.31.21.75.07.97-.13.28-.66.34-1.01.35-12.58.87-24.47.97-36.79,3.17-.17.17-.18.44-.09.77,3.21,9.63,5.84,18.83,8.73,28.56.15.62-.23.84-.79.85-8.48.29-16.9-.26-25.38-.23-.5.02-1.26.03-1.59.28-.53.4-.29,1.27-.2,1.92.09.51.2.99.31,1.49.55,2.53,1.27,5.03,1.69,7.59.02.16.02.31.01.42-.02.2-.08.29-.19.24-.16-.08-.41-.49-.51-.73-2.68-5.76-4.77-11.76-7.34-17.61-.29-.71.11-.97.77-1.09,4.63-.98,9.26-1.49,13.94-2.29.26-.1.39-.27.38-.53-4.33-10.73-9.31-20.7-14.03-31.28-.14-.31-.32-.76-.19-1.02.1-.27.55-.44.87-.54,10.36-3.23,20.74-5.87,31.23-8.71.35-.09.83-.26.89-.58-6.2-15.2-15.01-29.39-22.25-44.17-.19-.35-.38-.84-.21-1.16,33.15-22.39,70.31-41.51,110.38-46.87,2.07,4.02,7.89,47.35,7.99,52.35,0,.1-.07.18-.23.26h-.02ZM486.58,444.1c-10.68,4.88-21.41,9.7-32.16,14.42-.33.11-.58.1-.57-.04,19.57-13.59,40.21-26.03,59.62-40.04.43-.31.8-.44.99.12.73,2.87.74,5.89,1.14,8.84.07.99.43,2.19-.1,3.09-.32.47-.96.72-1.48.95-9.21,4.06-18.35,8.29-27.41,12.66h-.03Z"/>
        <path d="M564.36,257.17c-37.08,16.4-74.71,32.34-112.44,46.83-.15-.11-.08-.39.11-.73,7.7-11.04,15.5-22.02,23.39-33.29.57-.85-.14-.41-.62-.12-15.57,8.96-30.61,19.82-46.45,27.76-.13-.16-.08-.63-.05-.9.64-5.25,1.9-10.25,2.87-15.43.19-1.2.69-2.32,1.57-3.17,23.36-23.63,48.18-45.86,70.86-70.13.06-.06.11-.12.17-.18.28-.3.44-.51.37-.53-.14,0-.34.15-.65.32-26.51,15.89-52.2,34.14-78.93,48.82-.1-.07-.09-.28-.02-.57,2.18-7.05,4.41-14.08,6.6-21.11.05-.16.09-.31.12-.43.07-.29.05-.41-.1-.31-.11.07-.29.26-.49.5-20.37,23.6-48.06,39.95-77.42,49.84-.51.19-.83.36-.92.68-.12.96.57,2.17.96,3.1,5.33,11.95,7.3,24.8,8.54,37.73.07.43.18.86.42,1.15.72.85,1.78.02,2.3-.66,3.09-3.71,6.09-7.55,9.31-11.17.31-.34.71-.76,1.14-.87,1.37-.36,5.39,4.16,6.71,5.15.8.7,1.46.99,2.44.45,2.68-1.34,5.2-3.09,7.92-4.31.72-.38,1.43-.22,1.89.46,2.31,2.95,4.12,6.29,5.8,9.65.76,1.4,2.27,1.82,3.74,2.21,1.26.38,2.5.84,3.71,1.35.81.31,1.27.8,1.21,1.65-.19,4.38-1.01,8.72-1.32,13.08.02.99,1.04,1.55,1.38,2.42.2.52.21,1.1.21,1.65,0,2.94,0,5.88.01,8.83.08,1.57-.2,2.54-1.74,3.33-2.13,1.24-4.22,2.53-6.38,3.71-1.26.68-2.54,1.41-3.41,2.53-2.11,3.38-4.47,6.72-6.17,10.3-.23.57-.03.68.61.32,16.77-9.36,33.41-18.74,51.71-24.67,1.97-.65,2.69-2.04,3.25-3.9,2.16-6.52,4.46-12.84,6.68-19.36.06-.38-.09-.66-.43-.85-13.76-4.44-27.81-7.94-41.67-12.07-2.55-.68-2-1.52-1.56-3.7,1.68-7.76,3.62-15.39,5.22-23.18.06-.29.16-.81,0-.95-.16-.2-.7.05-.97.19-6.99,3.48-13.44,7.43-20.36,10.93-.5.26-1.21.59-.38-.23,11.16-11.18,22.74-22.87,34.7-33.16-2.25,11.04-4.88,21.93-6.43,32.82-.03.23-.17,1.01.11.55,1.99-4.16,3.23-8.73,5.74-12.61.13-.2.23-.31.27-.29-1.61,6.46-4.21,12.88-5.16,19.53.09.15.29-.25.37-.37,1.3-2.22,1.63-4.98,3.07-7.11.55-.52.37.65.31.93-.37,2.02-.78,4.01-1.15,6.04-.2,1.18-.59,2.43.94,2.81,13.66,3.58,27.59,6.21,41.19,9.89.79.19.99.74.67,1.46-2.03,5.62-4.23,11.14-6.16,16.77-.08.43.14.57.57.36,3.68-2.44,7.23-5.18,10.87-7.64.93-.61,1.03-.2.35.61-3.81,4.74-7.71,9.44-11.48,14.21-.35.62.51.22.8.14,4.57-1.68,8.42-4.55,12.12-7.63,32.31-27.53,64.9-54.78,97.14-82.37.07-.1.02-.14-.15-.1-.09.02-.22.06-.36.11-2.41.92-4.74,1.93-7.08,2.96h-.03Z"/>
        <path d="M256.6,248.23c19.26-6.39,40.52-6.79,59.81-.33,1.13.37,2,.14,2.88-.65,16.75-14.71,35.72-26.89,56.15-35.81,2.49-1,3.26-1.76,3.97-4.45,1.94-6.56,3.96-13.1,5.92-19.66.08-.33.03-.46-.17-.36-3.46,2.92-6.02,6.8-9.64,9.53-.53.35-.48-.02-.32-.55,7.08-22.42,14.93-44.24,21.79-66.69.07-.22.26-.83.15-.84-28.79,31.97-56.43,66.18-85.15,97.78-.47.53-.77.72-.66-.16,2.27-17.03,4.55-34.06,6.82-51.08.09-.52.11-1.61-.47-.43-7.27,16.93-14.76,33.71-22.14,50.59-.26.6-.49.8-.7.06-3.95-14.42-8.01-28.75-12.12-43.09-.07-.24-.23-.84-.36-.79-.09,0-.17.23-.24.56-4.35,19.19-7.13,39.49-13.28,58.01-.26.81-.47.79-.74-.18-3.97-12.89-6.78-26.14-11.46-38.79-.12-.1-.11.61-.11.82.08,16.58-3.54,32.39-6.4,48.47.18.16.5.08.75,0,1.97-.67,3.86-1.33,5.72-1.95h.03Z"/>
        <path d="M353.35,570.17c-.71.9-1.72,2.15-1.79,3.11-.06.45-.03.93.09,1.5,2.27,8.31,2.98,16.83,3.37,25.44,0,.31.04.84.35.85,23.84-12.77,47.04-26.62,70.32-40.4.94-.55,1.6-1.31,1.62-2.45-.12-11.84-.39-23.69-.69-35.52-.05-.5-.13-.85-.32-1.12-.47-.65-1.66-.84-2.46-1.05-10.56-2.15-20.93-5.37-31.59-6.76-.25.14-.14.58-.06.85,1.24,4.41,2.93,8.49,4.07,12.91.09.35.12.8-.28.92-11.61.64-23.26-1.36-34.9-.95-1.02.1-1.26.7-1.18,1.68,2.12,13.87,1.76,29.1-6.54,40.95l-.02.03ZM369.24,544.75c12.86,6.97,26.51,12.24,39.51,18.95,1.13.6-.45,1.37-1.01,1.58-.89.33-1.84.33-2.78.35-1.91.04-3.83-.02-5.74.02-.65,0-1.6.09-1.78.82-.31,1.23.88,2.76.28,3.92-.28.48-.82.75-1.3,1.01-.94.51-1.89,1.04-2.9,1.6-.25.14-.57.28-.83.24-.24-.03-.45-.18-.65-.39-7.94-9.16-15.84-18.42-23.29-27.99-.27-.42.18-.26.47-.12h.03Z"/>
        <path d="M247.83,604.41c-.59,1.37-1.08,2.45-1.72,3.71-1.01,2.02-2,3.56-1.09,4.08.36.34,1.93.88,3.18,1.34,1.04.36,1.96.78,2.99,1.12,1.49.47,2.98.41,4.48.05,6.02-1.75,12.01-3.5,18.03-5.23.86-.24,1.78-.37,2.66-.25.54.06,1.08.21,1.62.4,11.66,4.56,23.31,9.15,34.97,13.68.72.28,1.44.63,2.21.56,1.99-.14,4.46-2.25,6.23-3.53.2-.14.4-.33.44-.55-8.79-11.11-12.94-24.63-15.46-38.47-.14-.69-.28-1.46-.65-2.06-.26-.43-.67-.76-1.12-1.04-9.13-4.98-16.01-13-22.2-21.19-1.3-1.54-3.06-2.53-5.05-2.89-8.02-1.6-15.85-4.04-23.93-5.31-.29-.05-.67-.09-.89.04-.28.13-.39.57-.44.9-1.04,6.45-3.31,12.38-6.59,18.05-.15.24-.35.62-.26.85.08.26.47.38.75.46,5.11,1.43,10.11,2.76,15.18,4.48.44.14.84.41.68.93-4.37,10.12-9.41,19.83-14,29.84v.03Z"/>
        <path d="M62.7,313.74c8.44,16.39,15.45,33.79,24.7,49.64.24.07.51-.16.68-.36,1.55-1.81,2.71-4.04,4.1-6.02,1.66-2.05.13-3.73-.67-5.84-.45-1.05-.39-2.1.24-3.04.69-1.04,1.5-2.02,2.17-3.08,4.32-6.46,8.79-12.81,13.09-19.29.48-.89.53-1.72.09-2.64-2.73-4.58-5.62-9.08-8.4-13.63-.37-.61-.84-1.14-1.43-1.55-6.38-4.69-14.85-6.31-21.9-10.1-.39-.21-.73-.49-.5-.95,2.45-3.33,5.57-5.88,8.26-8.99.36-.46.18-.86-.26-1.24-19.49-17.08-39.59-33.69-59.59-50.62,13.37,25.64,26.79,51.55,39.41,77.69v.03Z"/>
        <path d="M151.96,598.43c10.13-11.32,21.72-21.46,32.19-32.24-.17-.12-.54-.02-.77,0-1.49.25-2.74.56-4.25.88-.35.06-.73.11-1.07.02-.79-.21-1.02-1.27-1.44-2.02-.67-1.32-1.61-1.5-2.96-1.06-6.38,1.85-12.58,4.34-19.02,5.88-.76.19-.92-.22-.86-.9.26-5.68.76-11.27.89-16.86-.18-.66-.68-.07-.93.29-24.4,34.01-50.34,66.92-74.61,101.04-.2.29-.34.57-.31.67,0,.02.01.03.02.04.07.06.3-.07.56-.28,18.04-16.04,36.06-32.1,54.19-48.24,4.64-4.13,9.28-8.28,13.95-12.41.31-.25.59-.37.77,0,.64,2.27.8,4.59.97,6.95.01.21.04.5.16.61.06.05.14.05.23,0,.18-.1.36-.3.51-.46.62-.68,1.18-1.28,1.76-1.89l.02-.02Z"/>
        <path d="M367.09,418.45c.06,7.8-1.03,15.47-1.27,23.25-.01.24-.01.6.12.74.15.21.55.11.81.03,5.05-1.51,10.02-2.98,15.09-4.7.25-.08.58-.21.68-.42.14-.22-.03-.61-.16-.88-4.44-9.02-8.78-17.89-13.55-26.81-.76-1.18-1.46.73-1.44,1.42-.13,2.43-.27,4.89-.28,7.33v.03Z"/>
        <path d="M508.86,372.85c14.37-5.49,28.25-13.5,42.44-19.87.23-.09.81-.42.65-.55-14.29,2.57-28.6,5.99-42.9,8.83-.63.16-1.66.24-2.05.78-.26.42-.14,1.12-.07,1.61.51,2.83.69,5.79,1.49,8.53.07.25.19.57.41.67h.02Z"/>
        <path d="M482.68,511.13c-3.12-2.07-6.3-4.06-9.38-6.17-1.17-.79-2.07-1.87-2.29-3.31-.25-.85-.38.26-.35.57.03,4.64-.14,9.31.04,13.95.09,1.09,1.32,1.19,2.18,1.42,9.49,2.09,18.94,4.58,28.49,6.27-5.33-4.9-12.65-8.33-18.66-12.71l-.03-.02Z"/>
        <path d="M314.88,311.56c13.1-17.19-14.99-35.6-25.2-17.55-.94,1.38-2.01,2.68-2.95,4.07-.22.29-.59,1.05.11.65.38-.18,1.1-1.08,1.52-.83.2.19.11.68.06,1-2.59,15.07,16.52,24.42,26.44,12.69l.02-.03ZM294.44,302.05c-9.22-2.05-2.08-16.81,5.54-11.77,4.45,2.52,2.81,8.37-.8,10.83-1.4.98-3.07,1.38-4.71.95h-.03Z"/>
        <path d="M232.5,308.95c-15.15-8.59-20.61,21.43-7.54,26.57,5.83,2.23,10.29-3.66,11.94-8.81,2.01-6.05,1.39-13.92-4.37-17.74l-.03-.02ZM234.75,316.93c-3.72,7.91-13.11,1.77-9.47-5.33,1.34-2.83,4.49-3.47,7.05-1.92,2.46,1.47,3.73,4.33,2.43,7.22l-.02.03Z"/>
        <path d="M279.28,327.65c-10.4,13.02-16.64-.74-26.53,10.44-.88.9-1.39,1.88-2.41,2.59-.97.65-2.08.65-3.28.43-.67-.13-1.08.07-.26.52,3.58,1.89,4.07,1.09,6.56-1.51.6-.62,1.21-1.24,1.82-1.86,6.07-7.45,15.12,1.4,22.02-6.04,1.23-1.24,3.05-2.95,3.08-4.75-.04-.9-.6-.3-.98.16l-.02.02Z"/>
        <path d="M252.33,325.9c1.86,1.53,4.36-.41,5.11-2.46.08-.27.01-.4-.26-.38-1.63.24-6.51,1.21-4.88,2.82l.02.02Z"/>
      </g>
    </g>
  </g>
</svg>