<?xml version="1.0" encoding="UTF-8"?>
<svg xmlns="http://www.w3.org/2000/svg" version="1.1" viewBox="0 0 595.28 841.89">
  <!-- Generator: Adobe Illustrator 28.6.0, SVG Export Plug-In . SVG Version: 1.2.0 Build 709)  -->
  <g>
    <g id="Layer_1">
      <g>
        <path d="M556.29,421.46c-.67-2.49-3.02-4.23-5.57-4.19-7.64.36-7.73,14.55-10.63,20.01-1.3,2.85-3.95,3.56-5.21.29-.85-2.51-.16-5.24.08-7.8,3.5-19.44,3.62-39.12,2.52-58.79-.1-2.21.24-4.38.98-6.48,6.18-14.3,10.05-37.55-2.45-49.37-5.18-4.55-12.36-1.81-13.53,4.74-.99,4.2-.48,8.56.03,12.81.32,3.31,1.86,7.71-.68,10.44-4.8,2.5-7.09-7.51-8.06-10.72-7.18-23.63-9.51-48.22-14.46-72.28-1.5-4.65-3.86-8.98-7.89-11.85-11.93-8.03-22.57,4.57-19.07,17.17.36,1.55.95,2.96,1.47,4.38,1,3.68,5.77,9.78,3.14,13.26-5.15,3.53-11.27-11.03-12.97-14.69-3.21-7.92-7.4-15.9-14.8-20.59-1.28-.8-5.44-3.2-6.86-2.77,1.68,3.2,6.48,9.16,5.61,12.02-.43,1.33-2.03.92-2.87.15-5.09-4.5-9.67-9.55-14.57-14.26-11-10.58-24.39-18.99-32.22-32.44-1.46-2.08-2.98-4.23-4.9-5.92-3.42-2.98-4.22.49-7.49-.05-11.27-6.51-20.51-16.28-31.11-23.87-4.92-3.97-9.84-8.52-15.62-11.27-4.01-1.85-8.85-3.15-13.16-1.58-7.39,3.16-5.79,14.42.75,18.17,9.98,6.91,26.7,1.43,39.59,11.21.54.59-.38.69-.79.77-17.41,2.36,8.95,12.12,6.83,16.84-12.16-2.6-23.64-9.02-36.05-11.32-9.75-2.02-21.8-4.61-31.14.25-7.06,3.98-4.09,9.2-8.93,8.58-19.51-1.78-108.62,6.84-105.82,33.21,1.15,3.31,5.52,4.55,8.86,2.68,6.23-3.92,9.6-11.09,15.75-15.17,20.16-12.37,46.06-15.81,68.92-10.02.41.05,1.5.41.73.71-9.71,3.53-38.75,3.97-33.64,18.09,2.24,5.15,8.82,5.9,12.58,1.89,17.15-14.45,24.61-17.21,47.25-13.75.21.26-.73.5-1.02.52-2.9.49-5.85.92-8.74,1.5-38.89,6.17-20.09,42.53,8.78,32.95,2.68-1.06,5.38-2.12,8.1-3.08,4.2-1.47,8.48-2.66,12.94-2.99,14.2-.56,28.43,2.49,41.89,6.86,1.12.42.4,1.09-.19,1.61-14.14,11.01-3.75,31.96,14.69,29.45,6.03-.59,11.88-2.65,17.98-2.48,15.21.92,29.82,7.15,43.53,13.47.26.14.9.43.98.35.1-.05-.06-.3-.37-.65-11.34-12.64-27.03-19.69-41.37-28.34-4.36-2.29-9.3-2.58-14.16-3.03-1.44-.21-1.66.47-1.29,1.71,1.08,5.05-6,6.92-9.7,5.16-5.35-2.42-2.33-10.27,2.14-12.14,1.71-.97,3.54-1.62,5.64-1.45.36-.05,1.09.22,1.18-.19-.06-.26-.37-.59-.58-.81-6.33-6.6-14.87-10.41-23.08-14.14-11.89-5.19-23.45-11.16-35.6-15.7-.99-.38-1.78-1.33-.64-1.92,7.65-3.97,20.43-.08,28,1.08.26.02.7.15.82-.06-4.59-7.23-22.87-14.94-31.03-16.46-4.86.19-16.59-6.21-8.2-9.88,4.64-1.45,9.65-.34,14.28.75,72.5,19.25,145.87,68.82,168.14,143.63,1.48,7.89,1.69,15.63-1,22.46-.31.33-.68-.48-.83-.79-3.02-6.38-7.37-12.29-13.66-15.56-1.15-.69-3.19-1.52-1.82.61,26.97,42.52,17.66,90.06-5.41,132.08-4.2,9.48-6.25,19.78-10.69,29.2-2.6,6.03-6.38,11.44-9.54,17.16,13.51-14.34,24.09-32.78,31.25-51.52-4.2,34.35-31.17,75.83-59.26,101.98,11.52-5.47,24.56-15.72,33.99-21.89-24.97,31.27-62.2,50.25-99.17,63.81-6.32,2.46-12.41,5.44-17.95,9.38-5.3,3.08-10.17,7.92-16.5,8.49-.47.06-1.52,0-1.01-.7,3.48-3.61,7.73-6.43,11.42-9.82.17-.18.17-.27,0-.24-.18.02-.68.22-.96.34-9.98,4.46-20.3,9.41-30.11,13.77,3.25,1.05,6.81,1.38,10.14,2.28,13.09,3.47,26.56-1.36,39.37-4.13-38.2,17.64-97,15.79-130.96-.4,27.22,5.12,55.18.94,82.04-4.61,2.84-.82,5.53-1.9,8.06-3.28,5.73-2.67,9.38-8.2,14.14-12.23,2.65-2.04,5.83-3.53,8.82-5.09-.03.01-.75.18-.96.28-1.43,1.1-25.28,6.15-20.29,3.91,9.19-3.99,30.34-10.76,27.56-23.71-.56-1.88-2.46-3.53-4.38-4.34-4.03-2.13-10.43.24-12.92-1.37-1.23-1.18-2.15-3.01-3.07-4.51-5.99-12.53-24.33-2.16-30.14,6.27-2.44,3.32-4.15,7.94-.28,11.25,9,6.48,20.97,4.14,30.79.66.66-.22.61,0,.23.31-5.97,5.04-13.43,8.03-20.94,9.99-27.75,7.11-57.76,4.56-83.84-7.31-.35-.09-.45.02-.31.34,4.31,6.93,14.69,9.27,21.48,13.8-25.21,2.21-52.51-14.79-74.25-28.77-65.51-37.55-116.63-119.01-103.48-194.87.2,8.16-.43,16.64,2.61,24.42,3.83,8.73,9.42,17.58,8.06,27.38-.2,4.59-5.5-6.57-6.21-7.22,1.62,25.68,16.55,60.13,33.43,83.58-4.07-8.63-9.46-16.86-12.82-25.86-.28-.84.23.08.43.4,7.75,13.23,16.5,25.74,26.71,37.17.81.88.48.17.12-.55-5.59-11.26-12.07-22.45-14.51-34.9-2.95-13.99-4.17-28.38-.82-42.42,1.85-9.43,3.95-18.92,3.54-28.59,0-1.41.07-2.82.32-4.21.44-1.47-.25-2.02-1.5-1.25-4.25,2.54-3.97,8.48-5.81,12.63-7.72,14-8.88-21.72-7.53-24.95.47-3.94,1.62-7.77,3.03-11.42.64-1.14-.17-1.52-1.17-1.26-6.52,1.12-11.4,7.02-12.01,13.5-.29,1.28-.63,2.72-1.46,3.8-1.03,1.5-2.77,1.17-4.09-.19-7.28-10.15-2.66-31.52-.58-43.29,2.26-9.8,5.09-20.15,3.59-30.26-1.19-9.56-8.74-19.49-18.82-20.11-9.39-.68-17.73,6.76-20.53,15.51-7.57,24.21,5.67,47.94,13.75,70.35,1.55,4.09,2.6,8.35,3.09,12.71,1.42,12.08,3.03,24.13,5.32,36.08.77,4.63,3.37,9.8,2.19,14.53-.33.45-1.12.08-1.55-.16-4.22-2.1-8.92-6.15-13.77-3.75-12.32,10.15,5.97,32.26,16.22,37.75,2.03,1.07,3.57,2.71,4.22,4.94,94.99,227.55,425.8,189.48,473.44-52.09-.15-.29-.5-.15-.79-.08-2.46,1.03-2.81-1.38-2.12-3.26,7.12-14.21,16.7-29.88,12.75-46.37v-.03ZM337.67,180.65c-.59.98-1.79,1.61-2.96,1.6-.83,0-1.57-.39-2.32-.76-1.27-.67-2.69-1.57-2.88-3.07.04-6.41,10.79-2.92,8.17,2.2l-.02.03ZM197.5,244.24c-3.06-.16-1.52-5.28,1.28-5.15.74.01,1.45.47,1.52,1.24.18,1.41-1.25,3.82-2.77,3.91h-.03ZM312.04,248.51c-1.97,4.42-7.41,6.09-11.98,5.71-4.03-.32-8.71-2.4-8.57-7.01.29-5.09,6.23-7.03,10.57-7.22,2.71-.39,7.06,1.12,8.92,2.88,1.58,1.43,1.91,3.62,1.08,5.61v.03ZM491.28,283.6c-.1.05-.15-.08-.22-.23-.19-.49-.31-1.08-.5-1.65-2.47-8.33-8.52-9.25-9.54-16.06-.13-1.48.75-3.02,2.1-3.59,1.16-.55,2.62-.06,3.52.77,4.7,4.18,5.03,14.54,4.65,20.75h0ZM65.09,369.08c-2.67,9.59-3.07,19.62-3.48,29.48,0,.12-.01.25-.02.35-.02.26-.05.4-.11.34-2.38-7.57-5.36-15.13-6.32-23.03-1.02-3.63-2.21-7.24-2.44-11.05-1.71-15.71,12.4-18.89,14.22-7.37.25,1.71.11,4.03-.3,5.85-.45,1.82-1.08,3.6-1.55,5.41v.03ZM65.99,498.11c-2.22,5.8-9.87-3.74-10.25-7.73-.05-.57.07-1.2.24-1.76.74-2.34,2.7-2.08,4.45-1.06,2.16,1.27,4.26,3.73,5.29,6.04.72,1.65.93,3.08.29,4.49v.03ZM528.95,323.67c1.26-3.12,3.64-1.46,4.81.71.62,1.08.89,2.28,1.01,3.49.31,2.73-.33,5.32-1.26,8.07-.13.39-.36,1.01-.81.51-2.77-3.79-5.19-8.21-3.77-12.74v-.03ZM521.47,521.52c-17.08,39.26-46.55,74.29-84.8,94.13-.01,0-.02-.02-.02-.03-.03-.09.22-.33.56-.57,36.9-25.01,66.22-60.55,86.65-99.93.1-.08.16-.04.15.11-.01.18-.09.46-.18.66-.77,1.87-1.55,3.75-2.35,5.61v.03ZM539.21,447.91c-3.99,27.14-15.85,53.34-33.32,74.35,13.76-23.12,22.41-49.03,32.79-73.86.05-.12.1-.23.15-.33.21-.46.38-.55.38-.18v.02ZM550.74,429.04c-.48,1.79-1.21,3.54-1.87,5.27-.26.73-.7,1.54-1.05.51-.86-2.7-.07-7.3,1.62-9.24.7-.85,1.22.38,1.38,1.1.18.77.12,1.57-.07,2.32v.03Z"/>
        <path d="M168.43,365.4c-.62,1.23-1.11,2.38-1.62,3.62-.35.84-.66,1.86-1.41,2.28-2.28.78-4.87.18-7.21.75-5.16.8-3.3,4.76-1.51,8.34,1.61,3.32.02,3.1-.58,5.58,9.52,21.12,28.89,36.74,47.36,50.11.86.5,1.2,1.28.82,2.18-4.27,12.29-6.33,24.89-4.7,37.9.04.6.02,1.19-.2,1.67-37.83,21.05-50.11,57.31-16.96,89.65,1.38,1.27,2.09,2.54,1.97,4.36-.08,6.24-.12,12.54,1.04,18.68.09.54.29,1.19.72,1.47,1.51.83,3.94-1.85,4.82-1.08.57,1.1.53,2.4,1.02,3.58.35.85.54,1.62,1.25,1.86.95.16,2-.47,2.88-.87,3.07-1.48,6.03-3.15,9.04-4.73,1.25-.42,1.34,1.44,1.77,2.26.39,1.13,1.33,1.86,2.46,1.29,2.27-.89,4.25-2.32,6.17-3.8,13.52-10.03,23.41-24.21,27.12-40.36,23.57,18.04,53.87,25.43,82.94,19.63,17.03,13.07,35.06,26.73,56.8,30.5,1.18.13,1.81-1.37,3.02-.97,2.51.55,4.95,1.37,7.44,2.01,2.49.53,5.71,2.02,7.66-.31.52-.63.96-1.35,1.55-1.91,1.58-1.58,2.38-.32,2.93-2.12.35-1.35.48-2.48.6-3.94.05-.48.12-1.11.41-1.44.23-.26.5-.39.85-.42.97-.06,1.88.02,2.88-.05,1.1-.12,2.25-.08,2.82-.87.41-.58.34-1.58.32-2.34-1.01-17.3-8.39-33.16-14.97-48.74,46.52-6.53,104.04-50.33,85.11-102.8-15.6-45.02-77.73-53.68-106.65-16.78-.36.07-.69-.47-.89-.8-5.04-8.33-10.86-15.99-17.55-23.05-1.1-.97-1.98-2.37-1.14-3.8,13.63-26.44,10.77-60.1-5.97-84.55-46.19-68.03-164.54-36.21-152.52,53.5.3,1.54-.41,2.52-1.45,3.46-.72.73-1.34,1.65-2.22,1.98-.67.26-1.51.14-2.24.02-5.04-.96-10.11-.56-15.18-.42-1.87-.43-3.37-2.02-5.25-2.55-1.79-.74-2.79.39-3.54,2l-.02.03ZM212.88,515.37c-5.21,14.76-6.19,30.47-6.56,46.01-.05.8-.16,1.6-.35,2.37-.3,1.28-.88,2.48-1.49,3.64-2.46,4.73-4.59,9.8-8.89,13.1-.24.17-.44.25-.57.19-.21-.06-.23-.55-.23-.82,0-.93-.01-1.53,0-2.57.06-5.44.8-8.68-1.58-11.08-2.06-2.51-5.08-5.85-7.29-8.6-21.81-26.32-13.81-53.79,15.36-69.18.32.07.51.52.62.86,2.75,8.05,5.72,16.09,10.42,23.22.58.85.9,1.81.57,2.83v.03ZM214,489.99c-.22.57-.59,1.72-.97.76-2.78-7.12-5.02-21.89-3.85-29.83.14-.07.37.49.46.69,2.27,5.45,4.31,11.07,7.31,16.21.96,1.73.56,2.45-.1,4.28-.96,2.62-1.88,5.25-2.84,7.86v.03ZM291.16,526.57c.04.42-.06.89-.61.8-11.89-3-23.15-8.22-33.72-14.45-1.01-.64-1.75-1.49-2.16-2.63-2.05-7.65-3.33-15.36-3.9-23.29-.03-.68.31-.94.98-.88,11.98,1.04,23.83,1.93,35.83,2.14,1.29.13,1.9.44,2.65,1.44.63.85,1.29,1.99,1.87,2.93,1.16,1.88,2.35,3.74,3.6,5.57.4.6.89,1.27.9,2,0,.74-.46,1.44-.79,2.08-3.92,7.36-5.63,15.96-4.64,24.26v.03ZM294.91,486.76c.03-.3.34-.6.59-.81,7.42-6.3,14.45-13.07,22.06-19.13.33-.05.64.27.85.53,2.82,3.46,5.9,6.65,9.2,9.65.55.52,1.21,1.06,1.65,1.66.55.79.8,1.61-.49,1.65-11.09,1.01-20.23,6.12-27.78,14.29-.22.22-.43.36-.62.35-.25,0-.47-.29-.62-.51-1.52-2.27-3-4.51-4.54-6.82-.17-.25-.34-.57-.3-.84v-.02ZM313.56,463.08c-7.04,6.81-14.66,13.01-22.05,19.44-1.04.78-2.2,1.17-3.52,1.13-12.04-.78-24.11-1.04-36.11-2.38-.86-.13-1.2-.55-1.18-1.41.58-9.67,1.63-19.27,4-28.68.19-.69.65-.95,1.35-.91,17.79.91,35.15-1.17,52.39-5.35.42.06.58.57.65.97.97,5.24,2.51,10.16,4.94,14.88.47.98.35,1.5-.46,2.28l-.02.02ZM308.82,439.74c-.21.73-.98.99-1.68,1.12-24.02,5.19-49.74,8.19-73.5.37-5.14-1.68-10.19-3.77-14.54-7.05-1.24-.88-1.31-1.67-.47-2.92,1.3-2.05,2.77-3.99,4.34-5.91.22-.27.54-.54.88-.53,25.15,16.43,57.34,16.44,85.34,8.62.37.12.31.64.28.97-.24,1.74-.28,3.57-.64,5.3v.03ZM242.29,448.3c1.98.49,4.02.93,6.13,1.41.41.09.85.27.89.73.02.19,0,.4-.05.59-1.02,4.6-1.85,9.24-2.5,13.9-.66,4.73-1.14,9.49-1.44,14.28,0,1.44-1.21,1.32-2.31,1.24-6.11-.7-12.21-1.7-18.34-2.29-.7-.07-1.37-.07-1.83-.51-.46-.38-.98-1-1.52-1.81-3.31-5.07-7.13-15.17-9.46-21.38-.25-.71-.5-1.17-.59-1.89-.39-3.21,2.68-11.34,4.28-14.73.19-.41.45-.55.94-.26,7.91,5.44,16.69,8.48,25.78,10.71h.03ZM230.17,519.99c-.3-.08-.56-.37-.76-.64-2.81-3.7-5.38-7.49-7.7-11.43-1.66-2.84-3.24-5.75-4.61-8.79-.25-.6-.44-1.24-.42-1.88,0-.62.2-1.27.43-1.86,1.38-3.48,2.71-6.97,4.07-10.46.29-.67.52-1.57,1.08-2.03.33-.24.93-.2,1.38-.16,6.79.85,13.55,1.68,20.33,2.63.31.04.67.11.88.29.22.17.33.44.39.77.81,7.67,1.81,15.29,3.63,22.8.24,1.15.56,2.01-.73,2.62-5.62,2.75-11.19,5.49-16.95,7.96-.31.14-.69.27-1,.19h-.02ZM288.42,559.65c-17.09-3.23-33.8-10.88-46.33-23.1-.35-.4-.67-.88-.55-1.27.16-.5.74-.9,1.18-1.21,3.02-2.05,5.86-4.47,9-6.25.26-.15.6-.3.88-.26.27.03.51.23.73.51,9.46,12.57,21.78,22.33,34.72,30.96.23.15.95.63.38.62h-.02ZM312.83,561.47c-3.2-.11-6.63.47-9.6-.93-9.26-4.81-18.54-10.5-24.96-18.72.08-.17.39-.13.79-.1,3.32.41,6.07.69,8.35.89,16.56,1.6,7.42-2.47,17.53,9.29,2.72,2.99,4.85,5.05,8.72,8.55.99.87.16,1-.81,1.02h-.03ZM398.67,571.01c.82,4.39,1.58,8.98.76,13.41-.14.76-.36,1.67-1.07,2.07-.59.32-1.31.24-1.95.17-1.29-.15-2.58-.29-3.86-.47-6.54-1.24-22.15-3.99-22.94-11.44-.21-1.66-.34-3.41-.54-5.09-.09-.77-.19-1.53-.33-2.3-.07-.35-.15-.81-.52-.93-23.7,7.49-56.33-18.97-63.08-41.36-3.3-9.23-.56-19.23,5.95-26.18,4.04-4.32,9.53-7.4,15.65-8.24,33.87-.86,65.09,50.66,71.93,80.32v.03ZM343.43,480.01c.22-.37.85-.31,1.26-.28,4.11.39,8.24.63,12.36.92.88.11,1.42.72,1.58,1.56.69,3.2,1.31,6.45,1.43,9.88,0,.76-.48.59-.97.27-4.25-2.66-8.61-4.96-13.28-6.77-1.75-.83-1.93-2.76-2.37-4.57-.08-.32-.17-.71-.02-1v-.02ZM366.55,481.54c-.13-.85.31-1.22,1.09-1.3,2.59-.32,5.16-.63,7.74-.95,1.52-.19,3.03-.37,4.53-.56.35-.04.78-.07,1.04.17,1.94,7.1-3.02,20.77-7.68,24.71-.49.43-1.02,0-1.37-.41-1.01-1.11-2.03-2.24-3.03-3.38-.3-.34-.59-.7-.77-1.12-.33-.77-.19-1.71-.2-2.56.06-4.9-.6-9.74-1.34-14.57v-.03ZM411.48,494.25c-6.13,9.99-15.97,16.62-24.94,23.82-.56.52-1.38.74-1.9,0-.48-.66-.05-1.53.25-2.2,5.55-12.08,7.71-25.43,7.47-38.65.01-.45.06-.94.29-1.19.46-.45,1.25-.53,1.86-.73,1.33-.33,2.58-.86,3.91-1.19.56-.07.84.3,1.06.84.35.8.67,1.6,1,2.39.99,2.42,2.02,4.85,3.62,6.93,2.28,2.89,4.67,5.66,7.06,8.55.35.39.58.9.34,1.4v.03ZM387.68,423.77c26.66-31.9,85.02-14.39,87.65,27.81.7,10.8-3.15,21.12-10.89,28.75-15.6,15.71-49.62,16.09-57.43-8.05-.2-.95.67-1.2,1.47-1.51.81-.33,1.54-.7,1.85-1.38.31-.65.16-1.6,0-2.42-.18-.98-.39-1.92-.58-2.91-.42-1.79.36-1.99,1.69-2.86,3.11-1.94,6.25-3.69,8.99-6.16.28-.25.56-.57.6-.93.09-1.25-2.19-2.98-3.02-3.81-.76-.75-2.13-1.64-.95-2.6,8.41-7.06,25.02-3.17,26.06,8.64.97,8.16-5.09,13.9-12.66,15.54-1.22.24-2.08.35-.49.9,12.26,4.1,23.7-7.83,20.17-19.83-3.9-17.09-26.65-20.95-38.81-9.65-.34.3-.68.48-1.01.4-7.4-6.28-14.99-12.25-23.33-17.33-1.35-.82.05-1.74.66-2.59l.02-.02ZM364.61,425.06c11.52,5.13,22.99,11.12,32.39,19.65,1.1.94.21,1.02-.83,1.22-.37.09-1.36.17-1.01.52,3.28,1.68,6.86,2.19,10.36,3.42.26.09.63.23.66.47,0,.23-.33.46-.56.61-3,1.93-6.04,3.31-9.49,4.06-.23.06-.64.14-.74.31-.14.2.11.46.27.63,1.6,1.5,3.19,2.9,4.46,4.68.36.5.7,1.11-.27,1.21-20.74,2.76-54.44.89-73.41-8.1-10.04-6.12-7.03-20.93-.1-28.56,9.9-11.52,26.45-4.66,38.25-.13h.03ZM343.35,409.89c-.16-.67,1.52-2.02,2.01-2.34.55-.42,1.06-.27,1.47.26.53.62,1.06,1.23,1.58,1.84.54.62.53,1.05-.41.95-1.24-.13-2.51-.26-3.89-.4-.25-.03-.64-.06-.76-.28v-.02ZM359,410.91c-.08.21-.4.26-.62.3-.88.13-1.96.12-2.6-.23-.47-.25-.69-.7-.95-1.14-1.06-1.83-3.36-4.78-3.69-6.59-.08-.34,0-.66.44-.44,2.96,1.81,4.83,4.73,7.07,7.4.15.19.4.48.35.69v.02ZM212.98,327.34c.42-1.22,1.1-2.26,2.06-3.17.24-.23.57-.46.92-.35.23.06.46.26.67.54,5.04,6.83-.28,19.28-3.37,15.78-.41-.46-.77-1.35-.97-2.03-.57-1.87-.64-3.82-.42-5.77.2-1.7.59-3.38,1.11-4.97v-.03ZM207.79,354.44c.32-1.02.64-.25.72.33.45,2.67.78,5.45,2.23,7.74.47.73,1.08,1.49,1.86,1.9,1.9.94,3.05-1.48,3.75-2.89.5-1.02.96-2.07,1.44-3.1.53-1.2.94-.99,1.08.13.51,3.67.17,7.46-.59,11.09-.14.63-.33,1.35-.62,1.91-.65,1.44-2.35,1.13-3.62.99-1.46-.18-2.9-.39-4.36-.58-.45-.06-1.02-.09-1.4-.22-2.43-1.19-.98-13.56-.48-17.27v-.02ZM200.81,373.37c1.08-1.45,2.1-2.99,3.34-4.31.3-.34.84-.76,1.19-.27.6,1.01.6,2.24.35,3.35-.12.46-.26,1.07.28,1.32,4.7.91,11.43,1.1,13.88,1.02.16,0,.35-.04.45-.15.17-.15.16-.76.12-1.17-.08-1.11.03-2.23.19-3.33,2.13-15.5,4.03-32.73-2.41-47.48-.81-1.67-1.78-3.16-2.92-4.4-.34-.36-.58-.81-.46-1.32,26.18-55.28,121.51-45.58,135.39,14.48,5.36,23.97-5.03,50.02-23.26,65.94-21.27,18.36-50.75,17.99-77.09,11.15-15.51-4.17-30.41-10.44-42.36-17.93-.06-.14.15-.21.54-.24,8.56-.3,16.33,3.51,23.42,7.9,2.29,1.34,4.83,2.6,7.54,2.03,27.6-9.65,48.51,16.46,77.14-1.7-28.02,11.65-52.02-12.53-77.93-2.08-1.57.52-2.2.37-3.54-.37-7.65-4.71-15.89-9.25-25.12-9.11-1.92-.09-3.89.06-5.8-.13-5.38-1.05-5.74-9.55-2.98-13.18l.02-.02ZM172.73,373.85c.19-.17.53-.16.81-.12,2.46.34,4.77.87,7.09,1.78.3.11.67.16.59-.25-.1-.55-.62-1.39.31-1.51,2.76-.19,5.47.15,8.17.5.7.07,1.06.42.96,1.19-1.75,13.84,8.68,24.67,17.7,34.04.16.17.62.64.42.68-.08.03-.27,0-.51-.07-14.76-4.14-34.64-15.17-43.02-27.94-.24-.38-.3-.66.17-.71,2.26,0,4.63.39,6.86.31.47-.1.52-.59.5-1-.09-2.03-.18-4.04-.27-6.14,0-.27.02-.59.2-.76h.02Z"/>
        <path d="M110.52,280.32c40.74,26.74,83.66-30.59,45.74-62.89-11.27-9.11-26.55-12.08-39.33-5.75-26.46,12.85-32.56,50.23-6.44,68.61l.03.02ZM112.93,226.83c6.17-14.85,31.46-13.23,34.88,2.63,3.67,17.05-18.56,26.73-30.65,15.82-5.22-4.5-7.57-12.01-4.24-18.42v-.03Z"/>
        <path d="M483.46,412.01c.05.01.1,0,.14-.02.15-.08.22-.41.23-.8.08-18.8-4.18-37.34-11.82-54.46-4.77-11.79-9.63-23.9-17-34.37-2.57-3.62-5.4-7.06-8.66-10.1-.44-.38-.98-.8-1.59-1.22-32.03-21.91-57.59,9.22-50.55,33.45,2.49,10.17,13.45,20.09,28.36,22.46,5.54.75,10.37-.98,14.99-2.65,4.1-1.48,8.24-3.05,12.62-2.5,10.66,1.46,21.3,17.66,24.41,27.3.85,2.14.93,5.87-1.92,6.21-8.01.04-10.87-20.75-21.24-21.19-4.82-.32-6.78,4.75-4.88,8.76.52,1.19,1.42,2.14,2.4,2.97,6.78,5.84,14.14,11.34,17.14,20.13.27.65.6,1.25.98,1.82.49.73,1.08,1.38,1.71,1.98,3.33,3.07,5.93,6.69,8.9,10.08.57.61.7.11.72-.51.23-4.31.14-8.33.57-12.56.12-.87.61-.35.92.05,1.1,1.39,1.96,2.93,2.85,4.42.18.28.39.64.67.76h.01ZM463.33,355.85c-5.05-6.78-11.48-12.98-19.46-16.02-.42-.13-.93-.26-1.34-.14-.54.15-1.09.89-1.51,1.38-4.26,5.35-10.83,8.87-17.74,8.65-14.67-.16-25.46-22.93-10.46-30.59,2.66-1.5,5.98-2.32,8.72-2.13,3.71.21,6.96,1.84,9.3,4.23,6.63,7.13,4.43,16.7-5.61,21.06-.47.22-1.93.77-.59.85,6.19.44,12.8-3.92,14.13-10.12.7-3.27-.46-6.62-1.26-9.79-.08-.33-.25-.83,0-1.06,12.17,1.08,21.54,24.3,26.99,34.68-.02.04-.06.04-.1.03-.25-.04-.81-.66-1.06-1.02l-.02-.02Z"/>
        <path d="M152.03,564.89c-1.17.2-1.82.47-.75,1.38,4.09,3.77,8.73,6.83,14.21,8.23,1.3.31,2.6.6,3.84,1.09,2.97,1.12,5.68,2.88,8.37,4.53.83.43,2.64,1.77,3.32,1.55.29-.14.3-.6.32-.92.08-2.66.02-5.29.07-7.95.07-1.14-.11-2.27-1-3.07-8.11-7.56-12.81-17.89-19.54-26.47-.4-.12-.39.64-.37.95.44,7.05,2.06,13.86,4.94,20.47.36.87-.21.41-.54.1-6.94-6.3-10.14-15.55-12.88-24.28-3.36-9.49-4.23-19.68-2.35-29.59,1.49-9.31,5.14-19.76-.21-28.48-4.32-6.45-13.88-7.48-17.04.29-6.98,17.19,9.1,37.84,11.65,55.11-.06,1.59-.9,3.45-2.59,3.52-2.74-.25-4.4-2.98-5.81-5.09-3.04-5.16-5.11-10.83-7.84-16.16-2.52-4.27-8.8-7.15-11.21-1.75-4.39,17.99,24.38,49.54,35.35,59.37-9.1-10.33-15.37-22.52-21.85-34.59-.84-1.73-1.98-3.93-2.45-5.7-.36-1.44.09-1.07.68-.16,6.76,9.78,17.43,15.05,26.56,22.31.68.58,1.31,1.17,1.86,1.86.68.87,1.62,2.17.01,2.53-1.57.44-3.14.6-4.73.91h-.03ZM142.13,498.31c-1.71,2.35-3.45-.74-4.11-2.66-.4-1.12-.68-2.37-.76-3.55-.12-1.96.15-3.37,1.59-4.51,1.25-1.1,2.9-.43,3.77.79,1.97,2.95,1.32,7.29-.47,9.91l-.02.02Z"/>
        <path d="M131.57,330.01c19.98-12.89,4.65-38.2-15.07-16.47-2.18,2.53-3.96,5.11-5.95,8.58-5.27,9.48-10.46,19.11-12.9,29.77-.07.38-.3,1.18.32.62,3.43-3.36,7.12-6.36,10.99-9.06,7.17-5.06,14.95-9.09,22.59-13.42l.03-.02Z"/>
        <path d="M454.01,215.29c3.15,4.84,7.05,9.08,11.62,12.56.3.23.61.47.93.71,3.3,2.61,8.11,3.98,10.96,2.04,1.52-.87,2.63-3.39,2.59-5.67-.33-5.01-1.45-9.85-2.66-13.51-8-26.04-35.15-16.32-23.46,3.85l.02.03ZM459.53,207.08c3.41-6.16,11.28,4.1,6.94,8.86-.61.63-1.43.05-2.01-.33-2.7-1.88-6.14-5.04-4.94-8.5v-.03Z"/>
        <path d="M203.56,210.34c1.55.76,3.21,1.25,4.91,1.27.63,0,1.27-.06,1.9-.17,13.85-2.83,27.75-6.11,41.98-5.07.86,0,.52-.31-.03-.54-13.97-5.62-32.08-15-47.2-10.78-3.75,1.56-6.28,5.85-5.75,9.76.23,2.27,1.86,4.48,4.17,5.52h.03ZM206.21,199.36c.82-1.12,2.38-1.58,3.71-1.28.79.18,1.62.64,1.96,1.41.71,1.64-2.57,3.5-4.22,3.34-1.54-.18-2.42-2.2-1.47-3.45l.02-.03Z"/>
        <path d="M266.87,190.24c4.28,2.55,9.26,2.81,14.06,1.76,6.73-1.16,13.28-2.42,20.09-3.55.69-.11,1.09-.28.42-.9-8.08-7.86-19.58-16.32-31.35-14.83-3.51.44-6.44,3.16-7.46,6.44-1.41,4.16.14,8.99,4.22,11.06l.03.02Z"/>
        <path d="M88.41,412.76c4.89-6.46,10.45-12.35,16.89-17.32.83-.68,1.68-1.38,2.5-2.1,2.05-1.79,4.05-3.78,5.45-6.1,1.66-2.69,2.58-6.41,1.27-9.41-1.31-3.29-4.92-5.32-8.42-4.87-2.11.25-3.98,1.31-5.58,2.73-8.86,8.73-13.05,29.35-15.37,41.49-.03.75.51-.12.64-.33.83-1.39,1.62-2.79,2.6-4.07l.02-.02Z"/>
        <path d="M59.45,466.98c-3.52-11.66-5.38-23.64-6.97-35.72-.11-.81-.26-1.56-.57-2.41-.61-1.63-1.51-2.89-2.57-3.78-3.25-2.75-7.99-2.11-10.15,1.58-1.01,1.61-1.38,4.41-.96,6.5,2.39,12.78,11.88,25.01,21.22,33.84h0Z"/>
        <path d="M113.22,485.81c.67,8.27,7.5,13.23,13.09,18.77.2.19.34.3.38.25-4.31-11.3-5.22-23.18,2.53-33.19,1.41-2.56,2.69-5.53.91-8.24-3.49-5.31-9.36-3.09-11.2,2.37-2.41,6.43-6.38,12.88-5.71,20.01v.03Z"/>
        <path d="M427.22,228.12c4.8,3.39,10.41,5.44,15.79,7.74,2.77,1.15,5.52,2.35,8.19,3.71.25.11.65.29.82.12.15-.18-.09-.7-.23-.95-3.28-6.24-5.9-13.05-11.18-17.87-8.76-9.08-22.82-1.65-13.42,7.23l.03.02Z"/>
        <path d="M287.05,591.25c-10.95-.34-21.69-3.82-32.55-3.99-.31,0-.5.05-.47.17,16.76,11.5,33.89,11.48,52.06,3.1.51-.24.79-.41.12-.32-6.33.97-12.72,1.37-19.13,1.05h-.03Z"/>
        <path d="M127.92,448.42c2.36-.87,4.37-2.89,5.02-4.93.58-1.65.59-3.43.14-5.02-1.1-4.41-6.05-6.95-10.72-2.86-3.96,3.66-3.63,9.67-4.66,14.62-.1.63.28.72.8.61,3.2-.69,6.33-1.26,9.39-2.4h.03Z"/>
        <path d="M514.69,300.6c.93,3.65,1.98,7.29,2.06,11.15,0,.15,0,.28.01.39.01.21.04.3.1.24,1.88-5.45,5.7-10.02,7.37-15.52,2.03-6.29-2.42-11.93-7.3-9.82-2.47,1.13-3.51,4.23-3.4,7.21.03,2.2.5,4.14,1.15,6.33v.03Z"/>
        <path d="M336.11,275.08c3.08.19,5.98-1.16,8.92-1.88,4.3-1.22,8.61-2.38,13.07-2.93.21-.03.47-.07.65-.13.18-.06.28-.14.26-.23-.03-.16-.47-.33-.69-.39-6.31-1.99-21.55-7.2-26.63-2.03-1.54,1.7-1.38,4.09.14,5.75.94,1.09,2.66,1.78,4.26,1.84h.03Z"/>
        <path d="M372.59,190.07c2.8,2.59,5.74,5.03,8.66,7.48,1.47,1.23,2.94,2.46,4.4,3.7.33.29,1.06.79.55-.11-3.29-5.1-5.34-11.08-9.7-15.39-1.09-.97-2.79-1.44-4.06-.9-.84.34-1.43,1.04-1.52,1.93-.17,1.08.79,2.48,1.65,3.27l.02.02Z"/>
        <path d="M275.27,382.3c14.94,2.68,30.38,4.6,45.88,3.35.39-.06.67-.09.71-.42.02-.28-.25-.75-.27-1.19-.02-.3.03-.6.1-.9,5.47-18.69,7.56-42.9-8.7-56.8-1.08-.95-2.26-1.67-3.27-2.67-.43-.41-.85-.87-1.38-1.14-2.02-1.3-12.2,3.72-14.58,4.93-3.55,1.95-7.9,5.21-11.01,7.93-.48.44-.93.81-1.3,1.3-.09.16.02.12-.02.32-1.03,3.91-2.36,8.45-3.36,12.41-2.5,10.15-2.47,20.69-2.15,31.06,0,.21-.03.41-.1.61-.12.44-.59.84-.56,1.2v.02ZM316.6,337.25c6.06,13.84,5.85,30.62.89,44.8-.44,1.02-1.21,1.91-2.34,2.06-1.24.15-2.77-.11-4.08-.52-.53-.16-.81-.52-.59-1.12,5.94-14.59,7.53-29.69,6.11-45.22h0ZM288.86,337.88c.33-2.45,1.39-4.75,2.92-6.29.92-.96,2.02-1.75,3.26-2.41,1.05-.54,2.24-1.07,3.45-1.36,1.07-.28,1.92.35,2.45,1.25,3.05,4.96,2.1,11.8-1.46,16.36-3.59,4.53-8.39,2.71-10.04-1.8-.69-1.69-.91-3.78-.59-5.71v-.03ZM281.59,363.98c.32-.53.65.37.8.66,5.58,12.17,21.41,9.33,26.82-2.27.29-.66.61-1.13,1.13-.33,1.02,1.5,1.76,3.04,1.7,4.84-.49,5.17-2.08,10.38-5.44,14.39-.67.73-1.53,1.11-2.52,1.17-7.64-.02-15.26-.67-22.84-1.58-.82-.11-1.51-.3-1.58-1.25-.21-5.25.3-10.61,1.92-15.61v-.02Z"/>
        <path d="M239.17,388.58c1.29-.2,2.54-.74,3.67-1.38.36-.21.79-.47.85-.66.06-.25-.34-.28-.55-.32-1.69-.2-3.32.11-5.01.54-.25.07-.54.18-.59.44-.06.28.24.72.52,1,.28.29.65.43,1.07.39h.03Z"/>
        <path d="M230.82,386.42c.4.12.8.06,1.14-.18.34-.23.73-.6.73-.89.01-.26-.26-.43-.48-.54-1.57-.74-3.11-1.36-4.82-1.48-.21,0-.61-.05-.61.21.02.2.39.53.69.81.98.85,2.09,1.62,3.31,2.06h.03Z"/>
      </g>
    </g>
  </g>
</svg>