<?xml version="1.0" encoding="UTF-8"?>
<svg xmlns="http://www.w3.org/2000/svg" version="1.1" viewBox="0 0 595.28 841.89">
  <!-- Generator: Adobe Illustrator 28.6.0, SVG Export Plug-In . SVG Version: 1.2.0 Build 709)  -->
  <g>
    <g id="Layer_1">
      <g>
        <path d="M365.55,231.27c7.97-15.54,17.18-30.36,25.74-45.56.51-.91.04-1-.83-.69-41.89,12.7-86,39.8-118.7,61.81,3.69-3.91,7.48-7.83,11.19-11.8.22-.32.47-.57.04-.52-1.55.62-3.04,1.52-4.56,2.25-.5.27-.95.44-1.19.31-.17-.26.03-.46.19-.81,3.95-5.86,8.43-11.37,12.54-17.14.37-.73-.35-.42-.81-.3-13.46,4.68-25.12,13.34-37.02,20.97-1.15.69-1.58-.08-1.32-1.18,1.86-12.53,4.13-24.95,6.06-37.41.02-1.06-.72-.48-1.16.02-18.74,21.08-37.17,43.35-50.68,68.17,9.28-6.62,19.33-12.29,30.07-15.98,1.24-.46,1.08-.26.2.27-25.83,16.06-49.86,37.67-61.14,66.56-27.29,71.79,8.3,155.56,66.62,201.28-16.37-8.46-30.4-21.89-42.79-35.82-.7-.98-1.42-1.04-2.02,0-19.34,29.55-23.29,70.77-.75,99.64,6.19,8.1,13.98,16.7,23.96,20.2,17.36,6.9,27.46-11.07,32.73-24.97,4.78-12.08,7.96-20.86,16.57-28.3,4.94-4.2,11.12-6.67,17.76-8.4.57-.2.42-.33-.09-.45-5.31-1.03-10.33-2.68-15.3-4.39-2.6-.96,2.71-.15,3.08,0,16.87,3.76,34.41,3.93,51.53,1.78,11.35-1.59,22.35-4.64,33.01-8.85.52-.2,1.1-.35,1.55-.24,14.02,13.9,27.25,33.82,48.59,35.68,4.96.39,10.15-1.54,13.81-4.66,8.92-7.86,11.25-21.04,12.49-32.44,3.35-39.79-11.59-81.83-41.35-108.82-.03-.14.25-.09.68.07,1.94.74,3.7,1.94,5.54,2.96,10.45,4.81,17.66,13.77,23.41,23.48.21.35.71,1.1.97.83.48-22.21-6.3-43.96-11.2-65.47-.32-1.41.25-1.22.82-.26,2.33,3.92,4.17,8.17,6.29,12.21.92,2.12,1.7,4.54,4.02,5.5,5.53,2.9,9.99,7.15,15,10.85.16.12.31.22.45.3.32.18.52.19.58-.02.05-.16,0-.46-.08-.8-3.42-14-9.03-27.11-15.75-39.8-.74-1.29-1.5-2.59-2.38-3.8-.79-1.18-1.6-1.9-2.9-1.02-6.36,3.62-12.9,7.99-19.34,10.73,20.23-15.69,41.52-30.52,58.86-49.67.94-1,2.01-1.75,3.34-2.05,5.33-.97,10.66-1.3,15.97-2.49,2.99-.55-8.95-7.45-9.63-7.81-.53-.33-1.64-.67-1.63-1.4.02-.35.58-.69.93-.85,4.33-2.05,8.58-3.79,12.99-5.85.54-.36.3-.74-.19-1.06-6.19-3.97-13.17-6.11-20.14-8.26-1.38-.35-1.41-.98-.22-1.55,4.24-2.15,8.33-4.62,12.72-6.55.19-.09.36-.17.48-.26.24-.16.27-.3.08-.42-41.03-10.76-84.36-2.7-125.65,2.52-.09-.18.58-.52.83-.6,5.15-2.03,10.54-3.46,16-5.04.37-.13.93-.27,1.02-.62.11-.3-.32-.82-.59-1.09-5.86-6.48-13.38-11.26-19.89-16.88,0-.13.65-.04.92.09,8.57,3.78,16.59,8.62,24.27,13.95.76.64,1.64.7,2.29-.09,8.15-9.36,17.88-17.11,27.31-25.15.27-.23.75-.64.74-.87.04-.31-.79-.37-1.15-.38-15.92-1.22-31.83,2.37-47.37,3.48,3.55-9.32,9.17-17.96,13.56-26.99l.02-.03ZM238.38,343.33l.02-.03c3.25-4.35,5.99-9.02,9.31-13.32.32-.42.74-.81,1.09-.22.74,1.37,1.27,2.94,2.44,4.01,1.21.98,2.01.05,2.12-1.24.07-.62,0-1.25-.12-1.86-.3-1.8-.79-3.53-1.32-5.27-.33-1.19.04-2.33.72-3.35,9.49-14.01,17.69-28.68,25.86-43.5.16-.31.52-.91.8-.7.15.08.29.3.43.56,10.9,20.5,11.3,49.98-7.85,65.65-4.34,3.52-9.76,5.61-15.3,6.04-6.07.48-12.28-1.06-17.29-4.61-.74-.5-1.49-1.23-.91-2.16ZM172.95,332.54v-.03c.08-.38.3-.69.75-.39,5.9,5.14,12,9.56,18.21,14.23.84.64,1.27,1.57,1.37,2.59.17,1.47.23,2.99.78,4.35.4,1.05,1.06,2.64,1.87,2.99.68.31,1.23-.39,1.38-1.08.35-1.38-.07-3.36-.37-4.86-.1-.52.03-.76.6-.48,3.8,1.95,7.41,4.02,11.51,5.31,2.34.71,2.29.9,1.85,3.26-1.38,8.11-7.16,16.61-16.02,16.34-1.53-.04-3.27-.41-4.82-1-15.26-6.6-18.12-26.21-17.11-41.23ZM190.37,404.61c-3.62-2.92-11.79-16.62-14.02-23.4-.07-.19-.2-.61-.02-.66h.01c.17-.04.54.18.75.3,1.77,1.08,3.38,2.25,5.28,3.08.84.37,1.8.73,2.32,1.53.36.54.52,1.23.65,1.87,1.16,5.81,3.51,11.14,5.23,16.78.1.41.17.74-.19.48ZM212.16,419.53h-.03c-6.16-2.53-12.72-5.74-16.74-11.1-.48-.64-.92-1.31-1.31-2.02-2.9-5.94-5.83-12.26-6.4-18.87-.04-.37-.04-.88.23-1.04.19-.15.56-.15.83-.12,2.57.27,5.13.87,7.7,1.22,1.24.24,2.82-.23,3.86.64.45.41.66,1.1.86,1.69,3.3,10.11,7.53,19.71,12.13,29.29.19.67-.69.47-1.13.31ZM240.77,421.75c-.11.64-1.01.67-1.56.79h-.02c-5.61.45-19.19.81-22.61-2.32-5.69-9.68-10.25-20.12-12.83-31.07-.08-.34-.16-.84.06-1.06.18-.22.61-.3.93-.33,5.26-.66,10.14-1.51,15.33-2.38,1.29-.17,2.33-.65,2.98.84,4.73,11.29,10.05,22.32,16.53,32.72.38.69.75,1.4,1.07,2.15.09.21.16.45.13.67ZM271.62,412.34l-.02.02c-6.37,3.88-24.58,11.47-28.01,8.58-7.26-11.24-13.44-23.25-17.92-35.87-.1-.31-.14-.59-.04-.8.11-.3.57-.47.92-.57,7.54-2.21,14.77-4.83,21.88-8.13,2.1-1.01,2.4-.74,3.44,1.26,6.22,11.69,13.52,22.77,20.13,34.22.21.47.01,1.01-.39,1.29ZM297.52,391.3l-.02.03c-6.24,7.09-13.15,13.52-21.02,18.74-.32.22-.78.48-1.12.34-8.34-11.08-14.79-23.72-21.06-36.14-.49-1.05-.54-1.59.56-2.22,7.44-4.02,14.57-8.42,21.38-13.47.31-.23.75-.51,1.09-.37,7.32,9.14,13,19.77,19.69,29.47.44.71,1.05,1.45,1.15,2.27.04.45-.26.89-.64,1.36ZM316.3,357.37v.03c-3.39,10.65-8.43,20.44-14.93,29.5-.2.26-.41.43-.61.41-.26.01-.58-.4-.76-.68-6.69-9.55-12.76-19.38-19.15-29.14-.84-1.39-.22-1.95.83-2.88,6.29-5.33,12.07-11.06,17.19-17.57.21-.28.55-.66.86-.65.29-.02.64.3.87.54,5.22,5.34,9.69,11.36,14.65,16.96,1,1.07,1.55,1.97,1.05,3.47ZM317.95,352.24l-.02.02c-.47.42-.99-.16-1.3-.54-19.46-24.73-16.18-11.54-5.34-33.7,1.24-2.64,2.84-6.42,4.05-9.9,1.15-3.27,2.01-6.66,3.16-9.92.17-.35.41-.51.6-.13,4.43,18.01,4.12,36.52-1.15,54.18Z"/>
        <path d="M525.48,259.7c1.57-1.63,5.46.01,6.99,1.47,13.67,9.94,18.58,28.94,26.2,42.38,0-2.24-.56-4.54-.18-6.78.08-.39.17-.99.57-1.09.25-.04.55.32.79.83v.03c5.85,15.16,9.86,31.18,13.82,46.81-2.41-52.12-31.38-102.21-71.27-135.06,3.86,8.09,32.72,34.8,17.01,40.2-2.2.51-4.49.05-6.56-.92-36.86-32.39-77.15-65.77-127.7-71.99,18.94,7.04,49.3,18.22,67.3,34.81,1.44,1.49,3.1,2.98,3.85,4.97,1.38,4.46-4.4,6.4-7.84,5.48-5.54-1.16-10.78-3.23-16.19-4.8-6.11-2.49,31.37,23.95,32.19,24.14-3.17-3.53-7.45-6.28-9.99-10.34-2.26-7.22,12.2-3.07,16.11-1.1,59.58,35.16,96.63,108.1,93.75,176.95-.24,4.19-.73,10.11-3.37,13.35-2.25,2.12-2.63-3.37-2.76-4.74-2.62-27.98-6.87-56.65-19.63-81.95,11.41,40.88,16.15,85.48,2.52,126.48-2.03,5.35-4.77,13.66-9.69,16.86-2.91.29-.76-10.08-.64-12.04.18-1.09,2.44-23.05,1.13-18.24-6.69,22.81-13.69,45.76-23,67.74-.3,1.17-.55,2.8.33,3.66,1.4,1.03,3.04-.79,4.12-1.66,1.57-1.56,3.12-3.07,4.79-4.39,3.79-3.32,4.37.1,3.39,3.71-2.52,7.25-6.98,15.22-14.31,18.15-2.74,1.13-5.97.39-7.46-2.28-1.19-1.7-1.12-4.05-1.41-6.08-11-2.95-25.21,26.7-31.75,35.26-.21.27-.52.74-.62.9-.07.13-.06.17,0,.15,1.6-1.03,2.82-2.79,5-5.07,5.78-6.2,17.95-21.44,19.42-11.43-1.21,15.28-21.69,37.42-30.31,50.95.08.03.87-.4,1.14-.62,12.05-8.12,22.22-18.67,33.67-27.56,1.37-.98,3.11-2.26,4.76-2.51,1.17-.27,2.62.42,2.7,1.72-28.8,50.76-88.35,81.06-145.25,87.75-3.61.82-7.68.61-11.01,2.26-.95.73-1.7,1.83-2.75,2.48-6,3.27-11.72,2.7-19.14,3.22-19.37.4-45.77-2.31-56.81-11.68-.46-.63.47-.9.96-1.02,10.21-1.08,20.47,1.15,30.68,1.54,27.95,2.08,57.09,1.82,83.18-9.4-8.23.58-16.56,3.1-24.96,2.8-2.75-.04-6.09-.17-8.59-1.49-1.55-.97-.1-2.25.91-2.92,10.7-6.61,23.73-2.36,35.36-5.51,4.02-.95-5.16-.7-4.01-3.38.67-1.77,5.45-3.84,8.91-5.04,19.05-7.08,54.23-16.89,64.39-35.11.9-2.42-1.35-2.46-2.96-1.71-3.17,1.34-5.53,4.06-8.48,5.8-1.31.73-2.68,1.95-4.21,1.99-1.57-.49.04-2.31.62-3.06,4.07-5.14,9.11-9.56,13.25-14.58-11.16,7.92-21.02,17.88-33.13,24.52-2.19,1.7-12.53,4.98-8.6-1.08,1.63-1.62,3.65-2.83,5.48-4.2.22-.15.54-.4.68-.53.12-.13.06-.15-.17-.09-15.18,5.66-30.81,11.08-47.24,11.11-2.19.12-6.17-.06-7.26-2.17-.11-4.39,16.28-8.22,18.88-10.5-19.56,4.8-55.58,14.35-72.6.65-2.05-2.42-4.3-4.86-7.61-5.56-28.09-7.44-13.12,10.51-43.82,3.77,22.36,11.63,57.42,10.04,84.04,16.7,1.51.66,2.9,1.98,3.05,3.48-6.28,14.06-42.65,5.01-55.49,2.71-.23-.05-.41-.09-.6-.1-.25-.02-.27.08-.02.29,5.46,4.47,23.96,9.22,17.71,18.73-3.43,3.83-9.14,3.83-13.9,4.28-39.33,1.31-77-12.93-111.8-29.33.12,1.16,1.31,2.38,1.61,3.63,1.37,3.8-1.03,4.97-4.4,4.75-10.96.38-38.51-25.24-37.02-35.84.48-2.97,3.59-2.11,5.5-1.08,10.09,5.75,19.62,12.48,30.11,17.53.79.45,1.96.76.69-.33-18.75-14.95-36.52-31-53.8-47.6-3.37-3.5,2.77,11.03,2.4,12.39,2.21,12.35-7.11,7.33-11.99,1.4-3.35-3.94-12.06-14.24-9.02-19.22,2.23-1.01,4.12,1.54,5.58,2.87.17.18.35.35.53.5.31.25.42.2.33-.16-2.84-7.61-7.64-15.06-6.62-23.49,1-6.59,6.44-.17,9.74,3.28-17.61-25.72-32.42-57.01-36.59-94.3-.08-.5-.15-.91-.21-1.08-.06-.18-.11-.13-.14.13-.32,5.03-.45,9.55-.29,14.14-.34,40.29,27.13,55.82,16.5,79.15-4.13,1.24-12.42-13.63-14.7-18.96-.89-1.52-1.27-4.24-.25-5.56,1.66-1.9,6.81,7.61,4.96,3.29-8.07-19.5-24.98-52.2-19.68-73.08,2.76-2.27,4.41,4.19,5.63,5.81-5.06-30.51-8-64.93,2.32-95.34.63-1.29,1.69-2.57,2.73-1.14.75,1.08.95,2.4,1.15,3.66,1.01,12.97.5,26.49,4.55,38.97,2.09-5.44,2.76-12.19,5.63-17.67,1.75-4.15,5.94-7.05,7.86-1.25,1.56,6.67.77,13.64,1.27,20.43.56,11.77,2.12,24.23,4.48,35.47-1.26-41.8,10.56-82.19,29.35-119.23.16-.33.31-.62.39-.81.11-.27.08-.31-.12-.1-10.22,12.63-16.45,28.2-26.33,41.1-11.11,10-13.18-6.04-12.28-14.29,3.57-36.92,26.61-68.79,48.77-96.52-3.94,2.72-7.06,6.5-11.19,8.92,11.64-25.45,64.55-56.81,93.97-69.57,5.75-2.47,15.35-5.64,20.2-4.27,2.14.8-.21,2.43-1.29,3-7.65,4.27-15.75,7.77-23.17,12.46,18.96-5.51,43.28-18.43,65.76-16.87,9.21.47,8.41,5.61,1.23,10.5-.18.16-.15.2.07.13.2-.05.51-.19.75-.28,3.27-1.35,6.42-3.24,9.26-5.38,4.28-3.86,9.42-6.58,15.28-6.77,6.51-.72,13.03-1.4,19.57-1.8.27-.03,1.14-.06,1.13-.15,0-.05-.22-.1-.57-.16-5.09-1.44-27.11.68-26.51-6.7,1.54-2.45,4.23-2.66,7.18-3.35,55.89-5.2,111.83,13.04,160.28,39.95-45.27-37.11-121.02-52.03-182.85-45.57-57.92,6.16-112.66,32.11-156.99,69.48-1.11.64-2.89,1.51-3.52-.12.61-11.33,21.87-22.88,30.34-30.1-45.79,23.97-89.86,62.87-108.5,112.19-.34.77-.75,3.89.71,1.85,18.56-28.98,39.16-59.38,69.22-77.3,4.91-1.43-1.92,5.11-2.76,6.12-107.25,98.74-136.23,293.3-19.35,395.52-27.23-33.03-53.82-74.08-55.57-119.18.11-2.22.47-4.4,1.26-6.47.36-.84.69-1.51,1.03-.15,22.1,102.49,116.25,179.54,218.3,193.82,66.67,9.97,138.3-1.78,193.82-40.67-38.53,17.71-80.98,37.11-124.96,33.72-2.58-.26-12.03-1.49-10.14-5.59,1.85-1.76,4.9-1.32,7.26-1.81,9.86-1.08,19.84-1,29.68-2.23,58.99-7.93,116.92-36.55,152.88-84.84-15.92,16.05-32.83,32.79-54.3,40.99-1.43-.3.13-1.64.74-2.04,122.45-73.37,144.2-247.41,70.98-363.23-1.06-2.08-3.49-5.08-2.48-7.43ZM526.43,247.49c.25-.51.66-1.05,1.24-1.12,1.55-.06,2.95,1.98,3.32,3.35.22.85.26,1.82-.14,2.63l-.02.03c-1.79,3.05-5.73-2.35-4.41-4.88ZM41.01,406.19v-.03c.62-13.53,2.65-27.11,6.92-39.96.15-.35.34-.55.44-.47-2.11,15.14-4.19,30.5-4.67,45.88-.03.64-.08,1.28-.14,1.92-.21,2.04-.2,4.08-.79,6.05-.23.77-.45.64-.62-.14-1.01-4.33-1.17-8.8-1.14-13.25ZM57.9,509.25s-.06.03-.1.02h-.01c-9.39-18.02-14.98-37.78-20.84-57.18-.09-.33-.31-.97-.55-1-.29-.05-.51.56-.6.85-1.66,5.56-1.88,11.6-4,17.01-.44,1.15-1.33.86-1.73-.14-.8-2.44-1.53-4.96-1.91-7.5-1.76-15.45-2.17-32.09,3.22-46.84.25-.62.62-1.32,1.06-1.9,1.9-2.61,3.53-1.67,4.55.87,2.55,7.35,3.25,15.22,6.19,22.45,7.36,18.11,6.09,38.25,10.67,57.09.61,2.83,1.34,5.63,2.11,8.43.64,2.32,1.3,4.65,1.91,6.97.1.41.12.79.03.88ZM99.5,585.81h-.01c-7.71-9.04-14.83-19.66-17.9-31.27-.17-.72-.31-1.37-.3-2.13.02-1.73.8-2.32,2.35-1.22,2.33,1.76,3.97,4.5,5.34,7.05.65,1.26,1.21,2.58,1.69,3.92,2.71,7.75,5.84,15.32,8.85,22.95.11.38.17.67-.02.69ZM193.59,659.76h0c-28.45-10.5-54.99-28.33-74.33-51.92-4.91-6.67-11.81-14.65-10.7-23.57.57-1.56,2.32.12,3.15.82,4.95,4.85,9.43,10.16,13.99,15.37,19.25,22.71,41.64,42.95,67.1,58.5.28.16.84.57.84.71,0,.04,0,.07-.04.09ZM218.22,637.12h-.03c-3.93,1-8.12-.9-11.03-3.65-.48-.46-.91-.99-1.2-1.59-1-2.04-.13-3.65,2.13-3.79,4.57-.3,17.39,6.02,10.13,9.04ZM282.72,665.76l-.02.03c-.63.79-1.49,1.31-2.43,1.56-17.08,2.66-33.88-1.65-48.17-9.23-1.45-.84-6.29-3.66-5.81-5.3.2-.55,1.1-.82,2.55-.81.83,0,1.84.1,3.01.29,14.99,3.21,29.88,6.88,44.98,9.59.71.14,1.3.28,2.03.46,1.64.44,5.68,1.08,3.86,3.41Z"/>
        <path d="M180.65,455.45v-.02c-10.89-23.91-18.25-49.33-20.54-75.65-.03-.31-.09-.96-.34-.96-18.93,16.66-34.77,36.94-50.74,56.49-.57.7-.32.84.42.72,2.84-.44,5.53-.85,8.38-.99.82-.02.71.46.37,1.02-3.8,6.44-8.68,12.04-11.43,19.04-.11.27-.27.72-.17.93.13.28.63.21.94.16,4.23-.74,8.26-1.44,12.33-2.15.89-.19,1.27.03,1.08.98-.79,4.27-1.74,7.98-2.11,12.3-.03.3-.05.74.15.9.2.16.64-.05.89-.19,4.24-2.23,8.2-4.71,12.44-6.91,1.11-.49,2.27-.63,3.48-.58,14.85,1.18,29.88-.49,44.17-4.65.32-.11.57-.24.66-.45Z"/>
        <path d="M534.02,377.08c.87,2.83,1.5,5.62,2.28,8.66.04.17.08.31.12.42.06.19.11.24.13.12-.67-52.58-13.51-102.94-57.9-135.31-1.84-1.21-3.78-2.2-5.89-2.81-.2-.06-.44-.11-.64-.13-.63-.02-.65.3-.2.86,15.6,17.11,33.15,36.7,35,60.67-.83,16.12-11.58,6.24-19.97-.77-.51-.28-.45.16-.31.48,1.88,3.59,4.05,7.04,6.09,10.55,1.05,1.78,2.07,3.58,3.09,5.38,7.53,13.12,11.53,27.9,16.64,42.02.2.14.29-.54.33-.73.99-4.25-.45-19.72,5.91-19.54,8.43,1.33,12.67,22.89,15.3,30.12v.03Z"/>
        <path d="M165.47,325.17c.93-2.25,1.85-4.51,2.82-6.75v-.03c6.45-14.68,14.81-28.86,26.56-39.87.43-.43.83-.88,1.15-1.38.26-.41.48-.84.67-1.29,2.24-5.81,4.28-11.69,6.37-17.55.35-.95.23-1.47-.52-.28-3.79,6.09-6.39,12.79-9.24,19.35-.42.77-1.08.77-1.81.43-13.36-6.43-26.43-13.49-39.89-19.71-.41-.18-.69-.24-.79-.13-.1,10.08,10.61,62.15,14.17,68.19.2-.18.37-.69.51-.99Z"/>
        <path d="M475.8,453.63h-.04c-24.23.07-21.34,36.38,1.47,33.33,8.27-1.02,14.03-8.49,14.17-16.52.32-8.93-5.86-16.44-15.6-16.82ZM481.83,464.11c-.62.79-1.81,1.37-2.92,1.29h-.04c-5.27-.58-4.71-8.25.67-7.85,3.04.42,4.14,4.34,2.29,6.56Z"/>
        <path d="M566,537.32c-6.2,11.27-13.26,22.02-21.67,31.78l-.02.02c-1.15,1.21-4.77,5.45-6.36,5.35-1.05-.66.42-4.01.72-4.99.1-.29.38-1.19-.12-.43-13.65,22.56-31.17,42.51-52.51,58.21-.08.06-.16.12-.24.18-.34.25-.54.42-.44.4,38.43-19.66,64.91-50.4,80.69-90.27.27-.69.39-1.05-.05-.25Z"/>
        <path d="M503.43,406.56v-.04c-.34-17.59-26.81-13.94-23.69,2.15.99,5.78,6.29,9.36,11.93,9.13,6.15-.14,11.6-4.58,11.76-11.24ZM490.17,407.99c.29-4.76,6.67-4.48,6.76.11v.03c-.08,1.73-2.07,3.53-3.67,3.42-1.53-.2-3.14-1.94-3.09-3.57Z"/>
        <path d="M151.79,519.45c5.22-.13,9.76-4.03,9.88-9.65v-.04c-.22-14.23-22.05-12.56-19.95,1.51.66,5.1,5.1,8.4,10.07,8.18ZM148.73,510.17v-.04c.05-.94.59-1.94,1.28-2.4,2.03-1.41,5.12.16,4.9,2.73-.39,4.67-6.35,4.32-6.18-.29Z"/>
        <path d="M522.47,432.21c-1.69,10.01-4.68,19.7-8.13,29.23-.42,1.48,1.04-.3,1.22-.67.85-1.33,1.72-2.68,2.58-4.02,13.92-19.36,8.69-42.58,1.38-63.54-.18-.52-.35-.93-.33-.14.35,9.72-.68,19.41-1.49,29.37-.02.65.27.28.46.01,5.46-7.98,5.56,4.1,4.32,9.72v.03Z"/>
        <path d="M143.19,531.59c-4.02.02-7.49,3.19-7.5,7.45v.04c.42,10.69,16.51,9.55,15.3-1.07-.49-3.93-3.98-6.55-7.8-6.42Z"/>
      </g>
    </g>
  </g>
</svg>