<?xml version="1.0" encoding="UTF-8"?>
<svg xmlns="http://www.w3.org/2000/svg" version="1.1" viewBox="0 0 595.28 841.89">
  <!-- Generator: Adobe Illustrator 28.6.0, SVG Export Plug-In . SVG Version: 1.2.0 Build 709)  -->
  <g>
    <g id="Layer_1">
      <g>
        <path d="M564.55,425.3c-5.28-118.47-101.87-202.34-205.89-242.87-8.87-3.6-18.27-4.6-26.02,2.32-.32.31-1.27.89-.76.06,2.37-3.24,5.95-5.39,9.76-6.48,4-1.13,8.37-1.09,12.34.15,21.53,7.6,42.61,16.39,63.73,25.05-10.42-9.88-32.17-18.05-47.82-24.3-10.57-3.87-21.37-9.63-32.59-4.35-15.87,7.17-20.25,29.76-9.64,43.22.64.84.84.54.84-.31.05-9.96,8.05-20.39,18.5-17.9,13.79,3.47,24.5,14.74,33.65,25.04,26.39,28.54,37.26,69.24,32.2,107.44-.33,1.8-.76,3.21-1.31,3.97-16.41,10.72-34.37,20.25-53.66,24.45-2.63.55-5.31,1.09-7.98,1.41-1.8.37-1.81-1.72-2.33-2.93-11.82-36.32-37.24-68.52-73.58-81.9,5.15-10.96,12.89-21.15,17.49-32.48.26-1.31-.01-2.72-.31-4.02-1.29-5.88-2.5-11.75-3.98-17.58-1.24-4.89-4.15-12.86-10.5-9.79-5.59,2.9-9.47,12.03-13.16,17.19-2.17,3.12-2.14-14.02-9.72-13.63-2.21.06-4.37,1.67-6,3.87-14.31,22.84-28.55,46.11-38.96,71-.82,2.25-1.83,4.4-3.38,6.25-4.51,6.04-7.3,12.7-8.52,19.97-1.22,7.93-.36,16.07-2.69,23.84-.92,5.58,3.06,10.14,5.1,15.01.44,1.53.11,3.09-.43,4.56-.69,1.91-1.31,3.78-1.97,5.69-1.93,5.57-3.63,11.21-5.33,16.85-.27.94-.44,1.97-.28,2.92,1.93,5.76,8.28,8.69,13.41,11.25,5.02,2.83,8.4,1.16,13.08-1.19,6.27-3.67,15.31-.96,20.05-6.42,6.11-10.62,12.15-21.56,21.54-29.7,5.17-4.03,9.72-8.82,11.1-15.44.37-1.34.48-2.91.81-4.36.14-.38.41-.56.8-.53,6.33,1.77,10.27,6.85,12.55,12.62,2.55,6.55,3.18,14,3.32,20.7.01,1.76.17,3.41-1.1,4.81-12.19,12.13-20.01,27.83-29.99,41.61-.65.51-1.51.76-2.33.94-5.36,1.16-10.69,2.37-16.03,3.61-1.15.37-2.38.23-3.16-.76-2.89-3.52-7.82-4.18-10.75-7.61-8.85-12.81-25.08-8.6-34.81,1-1,1-1.59,1.72.42,1.77,7.3.41,14.96,4.49,17.86,11.39.12.42.31,1.01-.28,1-5.79-2.12-6.56-.1-11.38,1.22-9.95-.25-15.53,3.33-21.64,11-.77.97-1.03.06-.8-.91,2.81-10.51,9.75-15.44,20.68-12.7,1.85.44.8-.47-.08-.9-15.38-8.19-26.57,11.48-25.55,25.54,6.45-5.95,14.19-9.16,23.1-7.83,2.2.12.57,1.95-.23,2.76-1.04,1.03-2.18,1.94-3.2,2.98-6.58,6.39-7.69,17.91-3.35,25.8.2,0,.34-.62.43-.9,1.88-7,7.54-12.03,13.79-15.31,2.41-1.35,3.83-3.17,6.69-1.55,11.41,4.8,25.84,1.97,32.71-8.73.85-.83,2.09-1.49,3.56-2.03,4.03-1.47,9.71-1.97,13.21-2.24.26-.02.7-.04.76.24-2.35,6.88-6.5,13.18-9.41,19.89-.8,2.06-1.92,3.61-4.36,3.48-49.94.75-93.74,30.74-63.95,83.09,3.04,6.42,1.95,14.5-3.02,19.6-7.83,7.11-17,12.57-25.03,19.44-3.82,3.14-7.54,6.4-11.38,9.52-1.57,1.17-2.97,2.65-4.75,3.5-.81.31-1.72.14-2.6-.01-14.78-4.4-26.84,10.04-27.91,23.98-.02.31,0,.55.09.66.23.18.61-.08.87-.27,2.85-2.1,5.6-3.67,8.97-4.87.32-.08,1.13-.47,1.09.14-3.05,7.39-7.53,14.14-6.75,22.46.02.31.09.77.24.95.26.3.77-.09,1.06-.34,5.91-4.89,12-8.52,19.47-10.29,1.03-.32,1.44.25,1.31,1.18-.5,4.58.68,17.79,2.66,14.3,3.44-5.06,7.46-9.89,12.72-13.16,2.2-1.42,4.51-2.76,6.57-4.37,1.86-1.46,3.47-3.14,4.59-5.26,8.1-17.21,25.4-31.22,44.96-31.12,3.88-.36,7.99-.1,11.5-2.1,3.21-1.66,4.36-5.82,2.98-9.12-1.8-4.24-5.05-7.83-6.32-12.3-2.11-8.67,6.1-15.62,12.85-19.29,9.4-4.95,20.36-5.44,30.71-6.76.57.08,1.05.38,1.48.82,10.77,13.84,25.21,24.13,41.19,31.18,1.84.81-.2,2.68-.67,3.78-9.22,11.98-6.43,27.21-3.71,41.04.14.85-.36,1.2-1.16,1.23-32.6,3.25-65.69-5.07-94.64-19.97-1.11-.57-2.33-1-3.57-.64-1.54.47-3.13.87-4.6,1.51-.29.14-.71.34-.75.65-.02.23.26.46.64.68,36.34,20.87,81.24,30.05,122.36,20.18,1.33-.56,2.19.5,2.93,1.43,1.72,2.07,3.77,3.78,5.77,5.56.22.2.56.53.5.79-.05.21-.35.35-.75.48-44.88,12.93-97.91-1.23-136.61-25.92-1.22-.9-2.55-.44-3.66.35-1.36.89-2.69,1.79-3.99,2.75-3.78,2.75-7.2,6.06-9.67,10.04-.44.71-.86,1.41-1.25,2.18-.44.74-.5,1.68.28,2.24,59.45,49.72,148.99,69.22,219.84,32.83,95.19-51.87,73.21-144.56-13.85-191.26-.56-.58-.93-1.28-1.16-2.1-2.59-13.85-5.59-27.71-7.21-41.7-.2-.98.33-1.16,1.1-.68,4.96,2.72,9.22,6.49,13.46,10.22,1.12,1.08.58,2.61.14,3.88-.72,1.12-4.62,20.79-1.69,18.88,17.56-9.02,16.61-.75,27.78,10.75,2.31,2.31,5.06,4,8.07,5.29,1.02.4,2.03,1,2.42,2.09,2.96,7.65,8.11,12.12,5.82,21.1-.1.34-.14.95.15.97,8.8-3.07,15.8-14.31,13.62-23.66-.57-2.15-1.59-4.08-2.77-5.97-.79-1.09-.3-1.25.68-1.08,8.2,1.23,15.12,5.78,18.6,13.3.33.65.6.38.76-.17,3.08-9.65,2.29-22.85-7.1-28.57-.45-.19-1.14-.37-1.36-.25-.27.16.16.64.36.86,3.73,4.13,7.48,9.97,6.12,15.42-3.74-7.74-9.05-13.09-17.11-16.1-.1-.23.52-.49.76-.61,3.54-1.66,7.18-2.64,10.93-3.75,1.37-.41,2.79-.75,4.21-.89,4.02-.44,7.91.43,11.8,1.84.37.12.63.12.7-.05-4.47-13.22-18.64-24.94-32.41-17.6-.73.35-1.72,1.15-2.55.88-.6-.22-1.03-.81-1.51-1.23-1.83-1.76-3.9-3.18-6.17-4.31-.99-.48-1.83-1.18-2.32-2.19-3.65-7.73-10.38-13.36-16.46-19.22-1.65-1.43-3.71-3.07-5.03-4.63-.84-.86-.67-1.42.43-1.88,30.04-13.42,54.42,16.69,72.28,37.08,7.79-100.99,96.33,2.89,64.11,112.75-1.26,4.35-2.68,8.36-4.29,12.62,26.48-37.34,42.05-90.83,39.58-138.98v-.03ZM130.34,618.52c-5.84,6.45-10.39,13.92-15.74,20.79-.19.22-.33.33-.41.25-.78-7.42,8.11-20.37,16.49-22.01.28.21-.1.65-.33.94l-.02.02ZM130.22,609.42c-6.68,1.49-12.23,5.57-17.38,9.87-.42.39-1.59,1.04-1.37-.07,3.98-14.45,26.87-11.74,18.78-9.81h-.03ZM134.31,644.99c-3.23-6,4.04-20.24,11.36-20.71.09.06.02.22-.15.44-5.28,5.99-8.95,12.74-11.2,20.27h0ZM371.58,537.54c6.29-17.58,7.33-37.24,1.1-54.97-.11-.34-.14-.57.03-.58.12-.01.34.1.59.24,43.28,24.74,80.11,71.45,61.16,123.08,8.55-39.17-20.6-73.22-51.12-93.95-.33-.24-.84-.56-1.05.01-2.34,9.43-5.6,18.25-10.16,26.49-.4.73-.83.71-.55-.29v-.03ZM209.45,311.76c-3.28,10.01-2.8,20.66-3.46,31.06-.05.33-.09.63-.39.61-.41-.12-.72-.95-.93-1.39-.17-.4-.82-1.79-.88-.72.89,7.67,3.41,15.04,5.54,22.44.09.35.13.68.07,1.01-.1.57-.57.98-.9,1.55-.25.42-.42.89-.58,1.35-2.01,5.74-4.09,11.46-6.05,17.2-.42,1.36-.69,2.72-.56,4.17.2,1.55-1.41.57-2.15.2-1.57-.89-3.4-2-2.99-4.07,2.36-8.2,5.07-16.31,7.76-24.4.13-.34.27-.89.67-.66.13.07.26.22.36.34.66.77,1.22,1.57,1.9,2.27.07.06.12.1.17.11.07.02.1-.02.08-.12-2.91-6.57-8.71-12.61-8.12-20.14.08-1.23.42-2.47.64-3.68.77-4,.82-8.07.94-12.14.15-3.06.55-6.08,1.21-9.06,1.73-7.75,5.18-15.03,10.16-21.25.41-.5.75-1.04.99-1.63,1.92-4.69,3.75-9.45,5.94-14.05,1.21-2.59,2.61-5.11,4.08-7.57,9.49-16.72,17.81-34.46,29.32-49.86.43-.49.98-.88,1.55-.63.45.21.72.7.95,1.15.32.69.56,1.38.79,2.09.45,1.62,1.05,3.26,1.3,4.94.02.21.01.39-.02.5-.04.12-.11.16-.21.1-.18-.11-.31-.41-.42-.6-.52-1.05-1.07-2.1-1.89-3.06-.19-.24-.49-.51-.8-.41-.17.06-.33.26-.48.5-11.1,18.77-21.73,38.32-31.33,57.77,1.96-1.49,8.58-4.82,10.79-4.83.35.02,0,.34-.3.57-10.28,7.86-18.89,17.79-22.75,30.32v.03ZM235.25,349.45c-.21,1.87-1.03,3.57-2.44,4.8-4.4,3.14-8.92,6.15-13.86,8.38-1.24.59-.69-.76-.33-1.32.78-1.3,1.47-2.64,2.03-4.04.48-1.15.8-2.38,1.17-3.57,2.83-8.77,7.79-16.86,12.69-24.56.15-.07.12.44.12.59-.12,6.7,1.43,13.1.62,19.7v.03ZM234.21,295.44c-1.76,2.52-3.52,5.06-5.32,7.55-.12.16-.27.31-.39.42-.16.13-.28.18-.34.11,10.77-30.45,29.16-58.34,48.67-84.01,2.43-2.32,3.9-.15,4.56,2.2.69,2.7,1.44,5.39,1.98,8.13.06.23.15,1.17-.24.77-1.14-2.43-1.7-5.13-3.69-7.24-.18-.2-.45-.42-.69-.38-16.26,23.03-28.01,49.38-44.51,72.44l-.02.02ZM255.07,298.35c-.41.53-.91,1.41-1.44,1.56-.04,0-.06-.03-.06-.07,7.92-19.65,19.49-37.62,29.96-55.99.72-1.27,1.35-2.56,1.61-4.03.03-.15.06-.31.1-.43.03-.09.07-.13.11-.12.11.05.19.27.25.43.87,2.4.49,5.15-.69,7.41-9.65,17.24-18.44,35.04-29.83,51.23l-.02.02ZM271.97,287.7c-.98-.46-1.9-.87-2.99-1.37-.25-.12-.55-.25-.67-.5-.13-.27.03-.57.18-.81.56-.84.97-1.67,1.77-2,.44-.19,1.01-.15,1.55,0,34.77,10.89,59.35,43.48,69.74,77.29.08.28.16.5.13.55-14.39-31.2-38.06-58.62-69.68-73.15h-.03ZM343.22,373.17c6.56-.61,12.67,2.66,17.59,6.71,10.52,9.37,19.69,20.13,28.77,30.86.4.45.63.91-.16,1.23-1.31.54-2.7.83-4.05,1.27-.79.24-1.54,0-2.12-.6-9.13-9.46-18.35-18.85-28.3-27.46-1.09-.89-2.23-1.75-3.41-2.53-5.59-3.82-12.52-5.7-18.7-1.79-.17.08-.28.08-.3-.02,1.44-4.39,6.05-7.13,10.65-7.65h.03ZM290.16,349.99c-.11-.48-.21-.96-.29-1.44-.07-.34-.08-.69.02-.76.16-.1.34.23.46.42,5.29,10.08,8.34,21.87,5.43,33.11-.4,2.18-.72,4.39-1.41,6.46-.08.24-.16.42-.21.44-1.01-12.58-.57-25.72-3.98-38.2v-.03ZM237.6,439.6c-.12-.04-.26-.22-.39-.45-2.52-5.07-6.62-8.87-11.72-11.37-1.06-.63-1.69-1.52-2.32-2.6-4.76-9.46-13.98-10.88-23.68-9.76-.8.08-.52-.29-.17-.61,1.68-1.62,3.77-2.67,6.01-3.32,8.57-2.86,16.19,3.27,19.7,10.79.31.65.75,1.14,1.5,1.25,6.45.68,11.27,6.93,11.18,13.32.05.66.1,1.33.15,1.99.04.23,0,.83-.25.75h-.01ZM241.74,433.65c-.98.19-2.02.58-3.01.29-1.53-.54-2.85-3.07-.9-3.65,6.84-1.84,13.8-3.27,20.73-4.74.74-.18,1.74-.14,2.09-.95,6.98-12.57,15.38-24.76,24.3-36.12,1.2-1.35,2.5-2.62,3.8-3.89.28-.24.7-.6.98-.53.32.13.03.74-.07,1.1-.53,1.64-1.33,3.12-2.18,4.64-7.45,12.49-16.48,24.1-22.97,37.14-.21.4-.44.77-.76,1.03-.43.36-1.04.51-1.58.65-6.81,1.66-13.6,3.35-20.41,5.02h-.03ZM224.4,483.33c-24.71,6.54-49.94,18.72-49.25,47.75-.02,0-.03,0-.05,0-.12-.05-.26-.37-.34-.74-7.96-36.85,38.34-55.04,68.6-53.16.53.23.68.74.08,1.1-.49.32-1.18.52-1.77.68-5.74,1.46-11.53,2.8-17.24,4.37h-.03ZM256.97,485.78c-9.54,17.06-12.27,37.77-6.21,56.48.06.29.04.5-.08.47-20.57-38.63.65-68.09,15.2-103.48,6.57-14.83,9.38-35.35,26.18-42.6,24.51-8.75,38.41,23.23,39.2,43.58,0,.26-.03.65-.18.61-5.33-33.48-39.06-61.02-50.95-19.52-.61,2.16-1.05,4.04-1.5,6.29-.2.9.17.5.54.09,1.33-1.5,2.67-2.72,4.34-3.97.2-.15.45-.31.61-.19-2.37,23.01-15.66,42.65-27.13,62.19v.03ZM295.54,624.2c-.24.17-.55-.4-.64-.65-3.89-8.48-.31-23.33,8.4-27.65.66-.28,1.35-.48,2.07-.56.19-.02.44-.04.59.05.2.12-.16.54-.32.73-6.71,7.77-8.87,17.64-9.87,27.5-.04.26-.11.48-.21.56h-.01ZM308.43,626.16c-1.76.44-3.48.98-5.23,1.43-.83.2-1.67.37-2.54.44-.47.05-.8-.08-.56-.63.24-.57.55-1.05.93-1.52,1.95-2.4,3.83-4.74,5.94-7.03.24-.28.64-.57.91-.22.18.24.26.56.34.85.3,1.28.58,2.59.85,3.89.12.66.34,1.34.26,2.01-.06.42-.41.62-.87.77h-.03ZM320.12,604.13c-4.5,7.48-3.39,16.38-3.52,24.78-.03.56-.28.52-.61.19-6.21-5.92-5.8-18.6,1.88-24.2.5-.4,1-.81,1.5-1.2.6-.49,1.4-.73.76.4v.02ZM323.23,638.46c-.14-.1-.2-.32-.21-.58-.1-2.78.73-5.41,1.1-8.16.2-2.8,1.84-4.44,3.93-6.22.19-.17.5-.4.72-.31.2.06.36.35.46.55,1.67,3.29,3.33,6.47,5.76,9.42.17.2.4.51.31.73-.06.2-.37.37-.59.47-3.54,1.63-6.99,3.08-10.71,4.11-.24.07-.58.14-.76,0h-.02ZM336.49,620.88c.09,2.7.39,5.4.76,8.07.02.18.06.49-.06.57-.09.06-.26-.04-.47-.21-6.81-6.06-6.01-15.48.21-21.48.91-.89.57.68.49,1.16-.84,3.89-1.04,7.88-.93,11.86v.03ZM322.56,468.93c-33.83,11.68-64.19,49.57-35.75,82.14,9.72,11.52,24.72,16.28,38.97,19.03.65.12.81.23,0,.28-3.09.2-6.26-.33-9.38-.36-.42,0-.92-.02-1.23.27-.22.2-.44.61-.57.92-2.84,6.72-5.12,13.63-6.86,20.71-.41,1.92-1.9,1.37-3.37,1.72-7.24,1.55-10.68,10.28-12.29,16.89-.12.26-.27.38-.38.27-.08-.07-.15-.27-.19-.51-1.06-7.14,1.31-14.19,5.76-19.79,4.46-6.38,7.72-13.41,11.02-20.46.22-.48.16-.85-.39-1.05-13.17-3.84-24.62-12.58-31.91-24.01-8.81-13.53-11.01-31.24-3.82-45.98,12.98-27.38,45.22-39.56,74.07-37.24.03,0,.05.01.07.02.14.04.05.1-.2.16-8,1.81-15.94,3.8-23.52,6.97h-.03ZM364.1,516.29c.34-.35.7-.47.54.05-3.42,7.87-8.57,14.85-13.48,21.83-1.6,3.99.48,11.08,2,15.22,5.44,10.88,3.27,23.48,1.69,35.1-.08.69-.25,1.52.08,2.14.25.48.77.84,1.24,1.13,3.23,1.93,6.43,3.93,9.59,5.97,1.37.89,1.88,1.28.77,2.8-3.58,5.14-7.83,9.81-12.7,13.78-1.05.89-1.35,2.26-1.52,3.56-.18,1.15-.42,2.3-.67,3.57-.04.22-.09.47-.05.64.07.25.36.1.54,0,1.89-1.19,3.68-2.35,5.52-3.52.75-.52.87-.16.29.49-.18.2-.39.38-.6.56-.92.81-14.51,12.75-13.52,9.4,2.85-6.83,3.94-14,3.07-21.33-.13-1.25-.16-2.5-.03-3.74,2.15-9.65,4.46-19.28,5.27-29.17,2.24-17.74-5.8-16.62-6.72-29.7,0-1.64.12-3.26.2-4.89.07-1.27,0-2.6.43-3.82.26-.76.66-1.45,1.19-2.1,5.87-5.73,12-11.23,16.83-17.93l.02-.02ZM343.49,402.89c11.76,6.97,22.87,14.97,33.8,23.19.32.26.61.53.82.86.27.43.38.95.47,1.45.22,1.39.6,2.65.81,4.03.03.2.08.53,0,.62-3.55-1.82-33.99-27.22-35.92-30.16h.01ZM433.6,434.81c6.89-1.04,13.54,2.76,16.83,8.87.11.29.09.51-.08.57-.19.09-.63-.11-.89-.26-5.02-2.78-10.36-5.35-16.21-4.55-1.56.17-3.07.52-4.62.81-.99.18-2.18.45-2.54,1.52-.22.5-.35,1.43-.97.98-.82-.63-2.38-3.26-1.88-4.29.14-.23.46-.36.73-.45,3.18-1.07,6.2-2.77,9.61-3.18h.03ZM426.65,471.81c5.79,6.22,4.42,15.99-2.08,21.27-.23.16-.45.21-.58.1-.24-.2-.15-.68-.03-1.02,3.04-6.52,3.82-14.17-1.43-19.72-.41-.47-.16-.94.3-1.23,1.41-.99,2.81-.59,3.81.57l.02.02ZM418.22,435.44c2.98,2.98,4.7,7.16,4.36,11.43-.05.46-.21.5-.5.06-4.46-7.14-10.9-11.4-19.21-11.63-.17.15-.03.4.05.57.37.73.86,1.5,1.2,2.3.2.82-1.18.24-1.54.12-.76-.28-1.59-.54-2.43-.74-4.35-1.04-9.68-.83-12.76,2.84-.85,1.04-1.53,2.2-2.25,3.32-2.02,3.23-3.9,6.58-6.24,9.52-.14.17-.38.48-.55.42-2.07-9.62,5.09-23.32,15.97-21.71.68.1,1.38.24,2.05.33,1.08.14,2.1.15,3.08.1,6.71-.67,11.8-3.51,18.75,3.04l.02.02ZM398.65,418.7c2.07,2.31,4.33,4.59,6.16,7.07.14.19.31.46.28.68-.01.25-.27.45-.49.58-1.94,1.15-3.89,2.3-5.93,3.5-.5.31-.92.27-1.21-.28-3.04-5.6-7.1-10.44-11.54-14.98-.46-.42-.69-1.02.09-1.23.47-.12.98-.08,1.48-.07,4.28.13,8.18,1.59,11.12,4.71l.02.02ZM430.94,338.11c-18.06,14.23-38.65,25.06-60.2,32.93-.6.11-1.2.16-1.81.14-8.2-.73-16.4-1.55-24.6-2.36-.82-.22-.3-.49.3-.52,29.67-1.63,55.92-16.96,80.74-32.13.91-.54,1.31-1.2,1.27-2.27-.52-24.36-4.57-48.52-11.59-71.84-.07-.33-.13-.6,0-.64.09,0,.26.22.4.53,9.95,23.16,15.23,48.27,16.54,73.4.06,1.09-.12,2.01-1.03,2.73l-.02.02ZM531.61,393.74c-25.15-67.4-73.79-122.12-125.82-170.42,0-.03.02-.05.05-.05,57.36,41.5,111.72,99.18,125.78,170.48h0ZM556.6,445.75c-.75,18.86-4.1,42.87-10.62,58.09,9.23-47.64,2.71-100.56-8.86-144.78,13.25,26.8,20.84,56.67,19.49,86.67v.03Z"/>
        <path d="M69.57,456.46c38.19,20.61,82.24-9,85.48-50.54.8-2.22,1.99-4.21,3.95-5.53,3.65-2,3.56-1.04,3.47-5.58-1.42-13.8,10-15.99,12.28-27.6,1.24-7.33.8-14.82-1.75-21.79.44,8.3-2.05,16.75-8.85,22.18-7.54,6.8-15.71,4.03-13.96-6.69-3.35,3.46-2.39,9.07-4.88,12.8-8.39,4.72-12.99-12.14-3.74-18.26,1.04-.66,2.19-1.59,1.79-2.95-1.65-5.69-4.88-11.23-3.95-17.34,1.25-8.85,10.37-14.09,12.09-22.81.74-14.49,11.23-22.65,20.6-29.22-10.16,1.92-21.28,4.96-28.85,12.35-.86,1.41.27,3.07.59,4.5,2.59,7.14-1.19,14.81-9.44,11.63-.6.2-.26,1.18-.34,1.69-.4,6.77-8.4,7.49-10.29,1.2-2.76-12.82,7.91-24.66,16.17-33.14,3.85-4.28,4.24-10.42,3.84-15.9-.2-2-.55-4.02-1.18-5.94-.09-.24-.17-.28-.22-.11-.82,7.89-3.93,16.6-11.29,20.59-3.6,2.25-7.84.49-10.1-2.73-13.67-19.22,1.12-43.34,16.28-56.81-19.81,6.06-37.47,22.09-42.23,42.65-.08.94-.71,1.3-1.52.98-3.71-1.14-6.17-3.75-8.09-7.17-.2-.36-.5-.73-.72-.13-1.37,5.31-1.3,8.83.69,13.41,10.02,16.62,6.91,42.96-10.95,52.8-3.66,1.02-6.15-.99-7.59-4.19-6.45-16.5,10.67-24.75,4.7-43.31-.12-.38-.25-.57-.32-.47.05,3.17-.46,6.25-2.14,9-1.1,1.99-2.52,3.88-3.94,5.7-13.26,13.78-13.61,34.83-1.2,49.32,2.74,4.01,5.28,8.34,5.03,13.38.08,6.67-5.71,17.81-13.12,12.67-1.82-1.64-1.92-4.11-1.74-6.46,3.92-16.61-11.03-11.11-10.69-26.79.08-2.97.97-5.51,1.62-8.61-2.34,2.61-3.87,6.15-4.87,9.52-4.83,17.14,9.96,19.02,2.57,35.89.12.58.67,1.09,1.1,1.6,1.36,1.56,2.3,3.37,2.81,5.39,1.93,7.36-5.76,29.05-13.61,17.66-.54-.65-1.37-3.42-1.34-1.05-.19,4.71.67,7.89,2.95,11.88.82,1.57,1.5,3.17,2.07,4.83,3.83,19.53,14.69,38.17,32.82,47.46h.03ZM57.15,387.99c.41-1.07.98-1.22.68,0-4.22,18.01,5.04,37.35,20.75,46.66.67.38.6.25.14-.25-12.9-13.7-12.61-36.17-3.91-52.1.31-.6.65-.7.54.14-2.99,9.84.03,20.45,6.89,27.98.38.42.76.8.52-.08-2.62-9.1,2.41-17.16,8.03-23.82,10.79-14.53,5.06-26.36-1.59-40.87-3.74-8.76-3.27-18.87.6-27.51.93-1.96,1.9-4.19,3.23-5.86-5.51,16.89-.98,26.3,7.48,36.92,1.9,2.48,4.01,5.12,5.97,7.72,7.77,8.88,9.32,21.64,5.19,32.6-1.01,2.79-2.38,5.43-3.99,7.87-.25.45.05.24.38,0,8.28-6.11,13.45-14.77,12.74-25.25,6.27,18.54,6.76,50.21-14.05,61.65-.71.38-.61.49.15.31,21.43-4.7,31.17-24.81,29.45-45.55-.01-.15-.03-.29-.03-.43-.02-.32,0-.45.08-.3,16.24,41.2-28.36,80-65.48,54.78-17.19-12.09-22.32-35.54-13.8-54.58v-.03Z"/>
        <path d="M521.6,535.92c-7.75,9.77-14.12,24.41-27.55,26.53-4,.55-7.05-2.98-7.31-6.78-1.69-12.44,13.76-24.49,12.46-11.62-.04.35-.29,1.47.22.95,4.74-5.54,8.12-11.99,11.71-18.29,7.8-12.32,12.44-26.25,14.85-40.58.05-.29.08-.52.06-.6-.02-.08-.09-.02-.19.15-.05.08-.11.19-.17.31-1.46,3.06-2.22,6.53-3.79,9.58-2.27,4.81-5.04,11.84-10.14,14.23-6.75,2.66-10.01-6.13-11.93-11.02-5.46-13.65-7.74-28.8-15.05-41.58,2.76,13.73,4.97,28,2.99,42.02-.48,2.83-1.03,7.05-4.49,7.55-5.32.49-9.25-3.6-12.27-7.94-1.21-1.74-2.31-3.56-3.34-5.19-.09-.15-.22-.34-.31-.44-.09-.1-.15-.08-.16.04-.01.1,0,.29.03.5,1.01,8.73,2.09,16.29,9.09,22.33,1.31,1.52,2.29,3.27,3.05,5.12,2.66,6.17,5.26,24.13-5.55,22.97-5.95-.72-9.54-8.14-11.18-13.31-.13-.48-.29-.8-.31-.04-.12,5.13,1.22,10.21,4.76,13.96.77.84,1.67,1.5,2.4,2.29,11.47,12.64-11.77,45.2-20.08,56.9.07.03.3-.06.59-.21,11.83-5.8,21.11-15.08,30.21-24.41,1.16-1.05,2.36-2.06,3.69-2.9,1.99-1.24,5.73-2.68,7.76-1.51,6.83,6.58-18.43,40.29-20.06,40.89-.08.07-.15.12-.1.11.05-.02.3-.16.63-.36,25.97-15.69,43.31-40.76,47.15-70.94.72-3.18,1.76-6.28,3.07-9.29.26-.81-.49.2-.74.55l-.02.02Z"/>
        <path d="M120.08,598.13c.7.59,1.48,1.08,2.41.56.3-.14.65-.36.73-.69-21.55-25.53-37.57-57.36-36.13-91.5.02-.08.06.08.11.39,0,.04.01.09.02.13,4.85,34.19,19.32,70,45.91,92.8,1.29.14,2.38-.81,3.33-1.58,2.01-1.65,4.15-3.07,6.04-4.84.48-.43.68-.94.17-1.46-6.46-6.83-13.11-13.55-18.23-21.46-.32-.49-.58-.95.09-.34,7.09,6.4,14.44,12.47,22.37,17.86.81.6,1.46.34,2.21-.26,20.04-14.92.74,4.48-24.77-39.23-.43-.8-.86-1.07-.54.07,1.37,4.87,3.07,9.7,4.27,14.6-.01.28-.18.37-.44.26-23.32-20.65-38.4-54.57-30.52-85.49.76-2.23-.4-4.47-2.49-5.48-2.51-1.18-5.56.37-7.17,2.5-10.88,15.65-7.85,37.08-6.34,55.11.66,4.17-3.66,2.63-5.66,1.15-7.43-5.11-12.23-13.02-17.01-20.49,10.95,31.96,35.85,63.52,61.63,87.35l.02.02Z"/>
        <path d="M168.72,226.08c-6.25,11.44-11.28,23.65-13.13,36.59.08.03.24-.12.44-.34,10.58-12.11,23.81-22.86,39.53-27.08.48-.14.94-.32,1.34-.59,14.58-16.51,35.51-25.22,55.8-32.71.4-.15.86-.34.12-.29-5.85.47-11.55,1.68-17.27,2.95-7.88,1.19-16.37,6.21-24.16,2.16-.86-.51-1.58-.73-2.62-.42-2.7.74-6.3,3.82-8.23,5.4-.45.33-.3-.39-.26-.71,1.64-10.58,11.3-20.35,18.84-27.64.45-.44.21-.42-.31-.21-20.88,8.11-39.33,23.03-50.08,42.85v.03Z"/>
        <path d="M458.33,200.41c7.72,7.97,17.43,15.51,20.39,26.61.63,2.36-.71,4.79-3.27,4.75-.44,0-.91-.09-1.35-.23-5.11-1.96-9.46-5.46-14.14-8.23-.2-.11-.7-.38-.78-.21,35.2,27.9,66.93,60.63,89.42,99.85-12.27-50.95-45.03-99.76-92.1-124.31,0,.14.45.51.79.82.35.31.69.62,1.02.94l.02.02Z"/>
        <path d="M234.16,177.47c8-2.37,19.7-6.59,26.9-.89,1.35,1.19,1.79,3.03,1.32,4.73-1.39,4.8-7.83,6.87-11.93,8.79-.56.26-.36.38.18.42,5.82.43,11.61-.92,17.35-1.68,12.07-1.95,24.32-2.6,36.49-3.56.06-.03.03-.06-.09-.1-.06-.02-.15-.05-.25-.07-6.25-1.44-14.37-2.33-20.01-5.91-1.57-1.07-3.11-2.35-3.64-4.17-2.52-9.99,24.43-14.59,31.9-16.12-26.8-.53-56.56,1.31-78.44,18.23-.34.34-.08.4.21.34h.02Z"/>
        <path d="M355.63,160.36c19.1,5.12,48.64,15.28,60.76,31.5,1.05,1.4,2.35,2.36,4.03,2.81,12.72,2.51,24.1,9.26,34.37,17.01.16.12.59.45.62.37-22.56-31.88-61.42-50.71-99.77-51.7h0Z"/>
        <path d="M170.88,405.6c.13-1.31.23-2.64.3-3.96,0-.14.01-.31.01-.43,0-.12-.01-.18-.04-.19-1.89,5.57-3.35,11.4-5.73,16.86-.27.63-.58,1.24-.98,1.79-4.09,5.22-4.61-2.75-4.96-6.42-.02.04-.05.29-.09.62-2.75,26.4-22.86,47.93-48.01,55.39,34.73-1.48,57.3-30.28,59.49-63.63v-.03Z"/>
        <path d="M138.9,242.31c5.32-7.56,11.08-19.4,20.78-21.35.45-.18.81-.45,1.06-.8.26-.35.42-.8.54-1.29,2.44-13.41,13.67-22.87,24.82-29.69.24-.17.42-.3.29-.36-34.62,9.76-36.76,21.85-47.81,53.19-.04.12-.06.21-.08.31-.07.46.24.16.38-.01l.02-.02Z"/>
        <path d="M71.13,510.31c.33-.03.22-.56.2-.81-.4-2.48-.68-4.99-.5-7.5.38-4.4,1.51-9.65-2.27-12.83-8.29-7.8-14.58-17.33-21.15-26.52,5.26,16.98,11.65,34.3,23.7,47.66h.02Z"/>
        <path d="M499.04,457.7c.25,0,.64-.19.91-.31,3.75-1.77,6-.58,7.29,2.09,2.8,5.78,1.05,17.73.35,22.85,10.79-15.74,4.96-37.23-6.41-51.07-.52-.64-.49-.3-.35.34,1.92,8.83.43,17.25-2.05,25.61-.06.3,0,.5.23.5h.02Z"/>
        <path d="M136.03,546.58c-8.36-10.29-15.56-21.61-21.78-33.22,7.89,25.22,23.92,52.42,50.13,61.09.1-.08-.02-.28-.27-.5-10.53-7.92-19.83-17.12-28.07-27.36l-.02-.02Z"/>
        <path d="M443.61,630.94c-.61.08-1.32.17-1.93.28-1.56.3-1.93.73-2.71,2.36-.94,2.09-2.11,4.11-3.56,5.87-3.84,4.76-9.24,8.25-14.34,11.59-.3.2-.88.57.04.27,15.96-5.07,29.89-13.59,40.51-26.7,0-.06-.12-.02-.32.09-.08.04-.16.09-.25.14-5.42,3.07-11.17,5.36-17.41,6.1h-.03Z"/>
        <path d="M84.17,248.52c.14.28.58,1.08.75.6,1.69-11.05,11.21-21,19.64-27.86.18-.15.28-.27.23-.31-14.39,2.5-28.44,11.53-20.63,27.54v.03Z"/>
        <path d="M377.26,276.73c3.08.87,6.29,2.1,9.43,2.61.38,0,.35-.24.21-.58-2.99-6.19-6.1-12.49-13.98-12.13-1.02.03-1.74.29-1.64,1.43.08,1.02.26,2.05.53,3.04.75,2.7,2.67,4.77,5.42,5.63h.03Z"/>
        <path d="M194.08,255.72c-7.36,1.57-10,8.21-11.84,14.71-.05.27-.02.47.11.54.2.1.6-.1.83-.22,5.88-3.03,13.79-7.06,12.25-14.71-.23-.48-.72-.44-1.33-.33h-.03Z"/>
        <path d="M153.94,338.86c0,.06.14,0,.34-.13.69-.44,1.47-.95,2.24-1.48,12.02-7.92,8.91-12.6,1.79-24.24-.08-.02-.1.14-.1.38.67,9.15,1.62,17.78-4.28,25.46h0Z"/>
        <path d="M35.89,378.94c.15-.08.09-.46.06-.67-.35-2.07-.49-4.17.19-6.12.12-.36.27-.73.38-1.1.25-.77.35-1.62.28-2.38-.27-3.06-2.92-5.14-2.19-9.93.05-.33.12-.65.17-.96.03-.18.03-.28,0-.3-4.41,6.08-7.06,16.94.34,21.22.21.13.62.34.77.24h.01Z"/>
        <path d="M57.2,458.04c6.17,5.64,13.91,8.98,21.99,10.89.71.16.02-.11-.27-.24-13.51-5.74-25.12-14.01-34.34-25.49-.05-.03,0,.08.12.28,3.29,5.54,7.56,10.37,12.47,14.53l.02.02Z"/>
      </g>
    </g>
  </g>
</svg>