<?xml version="1.0" encoding="UTF-8"?>
<svg xmlns="http://www.w3.org/2000/svg" version="1.1" viewBox="0 0 595.28 841.89">
  <!-- Generator: Adobe Illustrator 28.6.0, SVG Export Plug-In . SVG Version: 1.2.0 Build 709)  -->
  <g>
    <g id="Layer_1">
      <g>
        <path d="M163.51,628.04c19.99,1.17,41.15-.21,59.45-8.91,1.2-.59,2.38-.18,3.57.24,39.05,13.97,82.15,15.54,122.42,6.07,2.81-.69,5.6-1.46,8.37-2.36,1.13-.46,2.32-.48,3.4.17,39.1,23.27,100.36,1.4,104.97-46.66-.02-1.24.06-2.74,1.16-3.53l.02-.02c4.49-3.72,16.02-12.35,13.43-19.54-3.34-4.8-10.19-2.9-15.21-3.53-.89-.05-1.06-.39-.63-1.17,18.85-35.07,17.23-79.06.17-114.55-.93-1.63-.21-3.2.88-4.49,1.93-2.56,3.85-5.13,5.57-7.83,20.53-33.09,37.64-72.75,29.75-112.05,1.18-1.88,2.75-3.5,3.9-5.41.52-.79,1.1-1.71.95-2.68-.31-1.43-2.02-2.32-3.42-2.73-.9-.39-2.22-.24-2.97-.8-.51-.4-.53-1.13-.58-1.74-.22-3.73-.13-7.4-1.06-11.07-2.34-9.83-10.75-2.51-18.14,2.06-.41.21-.85.41-1.08-.06-1.98-4.95-4.56-21.03-11.89-14.62-4.77,3.86-7.51,9.7-9.93,15.21-.41,1.05-1.12,1.89-2.15,2.39-16.67,8.49-30.01,22.09-43.41,34.56-2.14-15.95-9.91-30.24-19.21-43.12-1.34-18.21-2.42-37.39-10.71-53.97-.54-.8-1.38-1.47-2.26-1.72-16.11-.36-40.34,19.35-53.06,28.98-.94.7-1.08.36-.31-.47.2-.22.41-.45.61-.67.32-.36.64-.67.54-.95-23.76-3.82-48.73,6.63-68.89,16.75,3.12-2.86,7.16-4.59,10.81-6.81.21-.14.64-.37.56-.59-.05-.14-.29-.25-.61-.35-15.61-4.52-31.27-10.1-47.72-10.06-3.52.31-4.57,3.68-4.91,6.68-2.6,15.53-1.35,31.55,2.94,46.66.3,1.04.24,2.07-.23,3.05-7.81,16.97-9.55,36.34-4.57,54.37.35.99-.13.97-.85.55-13.81-7.16-28.43-12.95-44.22-13.31-1.13-.02-2.15-.41-2.84-1.31-1.68-2.14-3.13-4.54-5.36-6.16-7.6-5.25-7.68,11.85-10.27,10.98-11.25-3.26-19.11-5.3-14.13,9.82.36,1-.26,1.38-1.13,1.66-6.77,2.46-3.21,6.83,1.28,10.39.9.7,1.46,1.57,1.5,2.72,1.12,21.06,13.04,39.62,24.86,56.35.15.75-.33,1.56-.71,2.24-.66,1.16-1.28,2.34-1.9,3.52-17.44,31.64-19.23,69.76-12.75,103.74-3.38.46-6.85.37-10.24.88-.75,0-1.35-.47-1.89-.94-5.31-4.53-10.27-10.27-17.14-12.21-1.04-.3-2.21-.49-3.21-.03-1.28.55-2.2,1.81-2.61,3.14-.71,3.99.46,8.06.45,12.09-.05.46-.38.62-.83.6-4.7-.42-9.28-1.69-14.01-1.3-9.63,1.01-2.25,12.73,1.3,16.32,1.62,1.7,3.3,3.36,5.09,4.9,1.07.77,1.95,1.86,1.8,3.24-1.57,30.98,28.45,54.26,57.3,57.37ZM340.63,614.3c-1.5.49-3.04.91-4.56,1.3h-.03c-48.39,11.89-114.73,3.28-150.27-34.21.02-.02.23.14.5.35,43.27,33.28,101.66,40.43,154.44,32.34.34.02.09.15-.08.22ZM456.73,585.65v.03c-9.65,24.62-37.33,40.91-63.55,38.27-5.34-.6-10.77-1.85-15.68-4.28-5.91-3.42-7.81-9.8-7.32-16.22.19-2.51.74-5.03,1.56-7.38,8.63-20.7,27.81-38.24,49.86-42.89.29.1.38.48.43.79.43,3.01,1.01,5.8,3.43,7.7,2.85,2.24,6.35,3.61,9.65,3.83,5.49.44,10.67-2.34,12.9-8.33.16-.29.37-.43.64-.37,9.89,5.31,12.17,19.03,8.06,28.85ZM445.03,540.6c.69-.41.45,1.46.42,1.83v.03c-.98,5.52-2.28,11.14-5.1,16.02-.6.96-1.57,1.67-2.65,1.91-3.15.68-6.75-1.29-8.74-3.68-4.38-4.89,11.43-13.64,16.07-16.12ZM472.93,556.77c.56.06.44.5.21.9-2.03,3.66-5.41,6.5-8.8,8.93h-.03c-.5.28-.84-.12-1.05-.53-1.3-2.33-2.58-4.63-3.85-6.91-.13-.24-.3-.59-.14-.79,2.54-1.37,10.32-2.08,13.65-1.6ZM482.26,295.34l.02-.03c2.23-3.13,5.24-6.01,8.83-7.51.2-.08.44-.13.61-.02.19.11.28.46.32.71.82,4.66.89,9.65-.71,14.16-.48,1.07-1.11,1.31-2.41.98-1.41-.37-2.58-.98-3.84-1.79-2.17-1.38-4.35-3.92-2.82-6.5ZM461.31,293.58v-.03c.81-3.4,2.33-6.52,4.13-9.48.77-1.27,1.58-2.52,2.39-3.77.25-.36.98-1.58,1.38-.85,1.6,3.25,4.97,15.82,1.61,17.36-.46.19-.89.26-1.45.4-.86.21-1.73.4-2.6.55-1.53.33-3.06.37-4.32-.71-1.06-.83-1.51-2.19-1.12-3.48ZM376.73,375.54l.02-.03c12.57-19.96,27.44-38.45,44.94-54.27,7.3-6.81,14.9-13.63,23.24-19.22,3.3-2.14,6.63-4.31,10.22-5.84.29-.04.53.12.73.42,3.91,7.89,13.46,7.35,20.14,2.92.59-.39.9-.12,1.11.48,2.85,6.63,12.39,12.21,18.3,6.9.36-.26.63-.35.6.05-.69,2.08-1.12,2.32-.43,4.6,1.42,5.35,2.17,10.83,2.25,16.37.13,6.15-.45,12.36-2.19,18.17-.08.26-.14.44-.17.45,1.37-11.1,1.97-22.62-1.53-33.42-.37-1.02-.62-2.57-2.03-2.47-6.02.89-11.01-2.64-14.73-7.1-.74-.82-1.35-1.72-2.54-1.06-6.5,3.6-14.81,3.01-19.12-3.46-.41-.67-.83-.92-1.51-.37-30.1,21.17-53.52,50.22-77.44,77.89-.07.04-.15.09-.21.02-.12-.12.2-.76.37-1.01ZM424.78,543.06c2.02.17,2.99-1.85,4.47-3.04,7.09-5.13,20.69-16.55,25.04-3.8,1.11,3.93-.5,8.03-.54,12.03.02.24.08.32.2.21,18.83-32.17,18.09-72.68,5.89-107.13-.15-.6-.22-1.22.04-1.72.09-.17.23-.35.41-.4.23-.06.45.15.61.47,15.84,31.94,14.9,80.23-5.44,110.23-.48.75-1.13,1.58-2.11,1.22-.99-.4-2.23-.54-2.1-1.79-.03-4.13,2.19-11.29-.61-14.55-5.79-5.35-17.49,6.11-22.3,9.54-.73.62-1.85,1.02-2.88.96-27.12-.3-52.06,18.26-65.14,41.33l-.02.03c-.36.65-.73,1.3-1.1,1.94-.2.36-.45.69-.58.68,7.38-28.34,37.21-47.98,66.15-46.2ZM224.77,313.59v-.03c5.5-11.23,13.75-21.12,24.52-27.57.7-.38,1.19-.45,1.83.1,4.98,4.85,9.72,9.93,14.64,14.83,1.75,1.73,5.32,6.83,8.05,4.67,10.43-11,21.27-21.82,34.6-29.33,1.07-.6,2.27-.67,3.47-.55,41.68,2.71,74.17,54.01,48.27,90.53-5.84,7.53-14.87,10.22-24.27,10.51-5.4.38-10.72-.31-16.23-.8-26.94-3.6-54.27-2.4-80.78,3.53-1.64.26-3.4.8-4.82,0-18.18-16.16-19.7-44.9-9.28-65.89ZM189.64,357.93h.03c8.45,2.95,16.28,6.73,23.6,12.1.46.34.18.22-.2.04-14.32-7.05-29.81-12.69-45.07-16.58,3.14-.57,14.48,2,21.64,4.44ZM156.41,356.78c.14-2.84.68-5.64,1.76-8.27v-.03c.27-.62.73-.52,1.12-.1,1.74,1.7,2.68,3.86,3.31,6.2.28,1.1.71,2.59-.6,3.18-.4.22-.83.36-1.26.5-1.24.41-3.1,1.1-3.9.4-.49-.45-.44-1.26-.42-1.89ZM141.31,356.2h.03c2.35.65,4.48,1.72,6.61,3.08.21.13.44.32.52.54.33.75-3.12,5.95-4.01,6.2-1.58,0-4.2-6.49-4.33-8.5-.11-1.13.31-1.57,1.19-1.31ZM141.77,373.34c-.51-.13-.96-.45-1.39-.71l-.03-.02c-.97-.6-2.7-1.45-2.89-2.68.02-.23.32-.26.53-.25,1.92.15,3.89,1.44,4.69,2.98.35.65-.3.85-.91.67ZM160.34,364.37h-.02c-.6.12-1.44.23-2.12.3-3.64.37-4.71-.34-6.18,1.62-.75,1-1.56,2.66-2.13,3.83-1.21,2.52-2.51,5-4.2,7.23-1.39,1.62-.95,3.08-.83,5.01.29,4.5,1.39,8.88,2.48,13.24.05.22.09.46.1.66.01.28-.04.42-.13.36-.06-.05-.13-.15-.17-.24-.39-.79-.84-1.89-1.3-3.17-1.74-4.81-3.63-12.15-2.85-15.04.11-.39.36-.74.62-1.1.5-.68,1.01-1.37,1.44-2.1,2.13-4.37,4.44-8.77,7.44-12.55.32-.42.71-.45,1.13-.15,1.83,1.21,4.3,1.18,6.63.45,2.09-.62,3.85-1.81,5.33-3.06.25-.12.3.13.28.34-.24,2.14-3.58,4.02-5.5,4.36ZM193.29,408.66c24.52-24.32,60.52-34.22,94.23-33.96,17.38.21,33.01,1.63,48.3,9.06,51.07,28.64,43.28,105.09,10.52,144.76l-.02.02c-30.94,40-87.5,60.06-135.91,42.35-31.53-11.16-50.01-36.22-53.65-67.44-3.96-34.8,10.53-71.3,36.53-94.8ZM118.37,538.83c.02-.21.07-.36.19-.41h.01c.16-.08.51.13.71.25,4.78,2.94,8.81,6.93,12.75,10.92.55.55,1.22,1.31,1.52,1.97.52.96.15,1.93-.42,2.76-1.55,2.6-6.4,4.94-8.83,3.85-.49-.24-.81-.7-1.07-1.18-2.6-4.86-5.14-12.59-4.87-18.18ZM117.27,559.46c.19-.23.37-.26.53-.09,1.76,3.57,5.35,4.83,9.28,4.1,5.53-1,11.13-5.09,12.03-10.08.13-.53.34-1.04.95-1.11.61-.09,1.26-.05,1.88-.03,2.68.12,5.31.57,7.93,1.12.55.12,1.13.27,1.6.58,1.16.8,1.75,2.26,2.46,3.46,7.39,13.82,18.44,24.92,29.47,35.84,3.96,4.55,20.36,17.69,11.94,23.19l-.03.02c-1.3.74-2.73,1.23-4.17,1.65-28.28,7.02-60.89-3.35-74.46-30.4-4.8-9.12-5.43-19.04.58-28.24ZM100.45,552.81h0c1.22-.92,13.89,2.1,12.71,3.43-1,1.98-2.09,3.97-3.2,5.97-.24.37-.6.36-.94.15-2.99-1.72-8.11-6.81-8.58-9.55Z"/>
        <path d="M59.45,279.29c.11-.19.22-.37.33-.56-.08.06-.19.25-.33.56Z"/>
        <path d="M324.01,670.06c-25.89,3.23-70.08,3.04-93.56-13.41,41.29,11.24,88.37,4.94,123.34-20.68-40.19,15.78-88.5,16.82-126.31-5.98-1.35-1-2.81-.76-4.19-.04-27.62,13.03-48.02-.22-13.73,18.71.22.18.18.32-.1.36-.53.06-1.17-.12-1.72-.26-9.57-2.04-18.35-6.07-27.09-10.21-19.77-.14-40.46-2.9-56.39-15.79-15.84-11.8-27.67-29.71-28.23-49.52-8.56-8.42-16.12-21.93-10.99-30.31,2.36-4.96,9.44-6.3,17.27-6.33.03-4.78.67-9.16,4.46-12.47-31.43-35.04-56.31-80.53-65.61-126.71-3.17,29.41,8.44,62.94,16.23,87.76-29.96-42.83-32.97-103.75-7.14-148.84-.41,3.93-1.03,7.79-1.09,11.59,10.62-23.03,25.76-55.79,42.82-72.6-3.48,6.66-6.07,13.6-8.47,20.64,22.71-36.47,52.72-69.7,91.01-90.13-30.18,25.96-68.51,59.63-88.18,98.61-34.33,63.51-16.7,157.23,45.66,197.33.86.52,1.25.41,1.27-.64.15-2.66.19-5.27.44-7.91.11-1.2.29-2.51-.39-3.59-75-91.77-23.16-244.19,75.74-296.89-1.11,2.45-3.13,4.49-4.64,6.9,61.63-28.81,143.76-40.96,209.82-9.68,11.61,1.85,22.59,6.25,34.32,7.74-21.06-21.32-64.54-31.19-97.37-33.98-18.13-2.27-36.44-4.07-54.62-4.49,24.25-3.12,50.07-3.03,74.43,1.28,1.09.1,1.44-1.15,1.95-1.91.52-1,1.52-1.49,2.62-1.4,2.97.19,5.92.65,8.89.78.23,0,.83.04.43-.19-130.07-46.58-278.52,29.97-333.4,152.25-5.04,9.11,5.61-25.8,7.96-30.76-26.36,44.04-38,97.01-27.8,147.69-.32,1.32,5.44,26.97,2.87,21.99-5.9-10.27-10.26-27.62-12.15-35.82-2.25,47.39,8.27,95.85,32.8,136.67,1.36,2.01-1.56,3.53-1.47,5.42,4.2,8.66,10.41,16.48,15.78,24.5,42.37,61.24,110.52,102.99,184.02,114.38,16.63,1.05,55.91-15.09,70.49-24.07h.02ZM91.36,516.85h.04c1.34-.02,2.69.71,3.4,1.7,2.03,2.67.83,7.34-2.79,7.8-6.37.67-7.03-9.13-.65-9.5ZM86.06,411.51h0c-5.13-19.72-3.76-39.64,1.5-59.11-1.64,19.64-1.94,39.41-1.5,59.11ZM96.64,451.56v.04c-.1,2.53-3.68,2.74-3.98.15-.18-1.3.88-2.45,2.18-2.34,1.11.05,1.9.99,1.8,2.15ZM112.75,287.91v.03c-6.97,16.02-13.6,32.23-18.99,48.85-.04-.02-.04-.23-.02-.51.2-3.15,1.06-6.22,1.78-9.29.36-1.62.74-3.24,1.18-4.84,3.26-12.33,9.49-23.56,15.61-34.65.52-.94.83-.49.43.41ZM328.02,153.75h.03c10.82-.28,21.84.08,32.33,2.81.22.04.78.24.71.39-.03.08-.25.12-.54.11-11.01-1.04-22.04-2.04-33.24-3.15-.34-.09.59-.15.7-.16ZM246.92,181.33h-.03c-.75-.04-1.34-.44-1.7-.99-.99-1.45-.34-4,1.61-4.14,3.45-.21,3.69,5.18.12,5.13ZM180.98,190.07v-.03c2.54-4.25,5.6-8.21,10.09-10.4,20.18-8.88,42.09-15.98,63.87-18.1.32-.03.53-.04.5,0-.02.03-.21.1-.48.18-22.1,6.89-45.9,12.37-64.81,26.17-.96,1.45,2.13,2.7-.09,6.65-.82,1.4-2.2,2.51-3.75,2.77-3.56.64-7.1-4.1-5.34-7.24ZM165.49,189.23c.84-1.1,2.36-1.88,3.97-1.85h.04c7.51.33,6.55,11.9-.93,10.79-4.24-.56-5.52-5.87-3.07-8.95ZM124.07,230.34h.04c1.01.03,1.99.65,2.48,1.44,1.44,2.13.29,5.66-2.47,5.9-4.84.14-4.92-7.28-.05-7.34ZM98.67,250.9c.02-.8.4-1.45.95-1.91,1.68-1.36,4.23-.52,4.22,1.82.06,4.03-4.98,3.94-5.17.12v-.04ZM51.95,319.08h.04c.94-.05,1.9.44,2.41,1.14,1.42,1.85.61,5.22-1.89,5.61-4.48.39-5.31-6.39-.55-6.76ZM48.06,498.73h0c10.08,22.95,24.56,44.69,33.73,68.28-18.36-18.98-29.38-42.43-33.73-68.28ZM81.02,509.15h-.03c-4.19,1.68-7.13,3.77-7.5,8.54-.08.51-.15,1.02-.3,1.52-.1.35-.26.73-.41.78-.26.08-.37-.54-.46-.79-1.53-6.05-4.31-8.51-10.51-9.14-.32-.06-.55-.16-.55-.28-.01-.1.15-.21.39-.31,5.64-1.52,8.91-5.34,9.09-11.24.1-.65.36-.59.55-.02,1.34,5.42,3.56,9.39,9.46,9.98.33.03.87.08,1.08.22.34.27-.48.59-.81.75ZM89.01,592.73h-.04c-.98.01-1.94-.56-2.48-1.29-1.58-2.06-.68-5.5,2.13-5.79,4.88-.39,5.21,6.67.38,7.08ZM218.96,670.36c-17.37-3.11-33.47-9.63-48.09-19.55h0c15.66,7.63,32.41,13.04,48.54,19.59,0,.03-.19,0-.46-.04ZM229.97,643.25c.02-.76.37-1.39.85-1.78,1.55-1.29,4.07-.28,3.72,1.88-.53,2.93-4.66,3.01-4.57-.07v-.04Z"/>
        <path d="M432.43,201.49c-.75-.18-1.98-.21-2.57-.2-.13.24.41.44.59.6,28.14,18.67,59.66,38.28,73.76,70.33.18.97-.98,1.39-1.07,2.28,2.17,4.3,4.23,8.66,4.43,13.66-.15,4.47,6.97,2.77,7.96,10.72,1.05,5.77-3.72,9.26-2.05,11.79,7.91,12.79,13.38,26.85,16.61,41.52.13.73-.06.89-.44.21-5-10.94-11.26-21.18-17.57-31.43-.46-.79-.69-.82-.55.19.67,4.46.87,9.05.88,13.57,15.95,26.81,22.42,59.52,18.15,90.34-2.24-25.36-7.25-52.47-20.18-74.67-.82,6.35-2.28,12.52-4.05,18.68,16.9,30.74,22.4,68.81,10.2,102.56.2-10.09.82-21.32-.71-31.78-3.58,22.67-9.21,55.46-22,78.3-.2.41-.5.95-.45.17,1.19-11.78,2.68-23.94,1.62-35.52-5.77,19.37-10.7,39.28-16.06,58.71.13.31.53.43.86.51,1.61.41,2.87.84,4.24,1.68,2.02,1.2,2.82,2.46,3.56,2.61,56.02-53.39,62.75-133.27,48.83-205.8-.04-.2-.07-.39-.09-.53-.04-.29,0-.36.12-.17,4,7.51,6.36,15.8,9.49,23.62.37-38.24-25-89.42-49.96-118.12,12.32,9.59,28.04,26.24,39.21,40.19-15.1-43.49-56.54-78.6-102.71-84.04h-.03ZM534.39,373.76h.03c.97-.02,1.91.8,2.37,1.62.79,1.34-.5,3.08-1.81,3.64-1.06.41-2.34-.3-2.73-1.33-.68-1.58.3-3.82,2.14-3.93Z"/>
        <path d="M512.65,531.14c16.73-19.91,28.12-43.49,36.82-67.8-8.5,47.84-42.5,85.48-74.9,118.65-1.55,12.97-8.78,24.35-17.16,34,89.05-35.91,123.42-130.88,114.4-221.3v-.03c-2.68-24.96-9.56-54.35-21.02-74.42,4.19,24.5,7.52,49.79,4.19,74.54-.24.36-.4-.34-.42-.61-.69-6.49-2.18-12.84-3.62-19.19.04,12.57,1.69,33.23-.21,48.5-3.97,37.55-18.37,77.67-38.07,107.66ZM482.69,594.4h-.04c-1.31.06-2.13-1-2.06-2.25.03-1.16.81-2.4,2.06-2.45,3.21-.21,3.18,4.61.03,4.7ZM489.95,589.41h-.03c-.8-.01-1.58-.49-2.02-1.09-1.28-1.66-.58-4.48,1.69-4.74,3.91-.38,4.25,5.66.37,5.83ZM506.37,568.32h-.03c-1.29-.04-2.27-1.19-2.34-2.41-.15-1.53,1.18-2.72,2.7-2.47,2.96.43,2.5,4.84-.33,4.88ZM518.41,553.19h-.04c-1.06,0-2.15-.64-2.61-1.45-1.32-2.15,0-5.68,2.65-6,4.6.29,5.2,7.29,0,7.45ZM540.85,523.39h-.04c-1.24.04-2.55-.59-3.19-1.48-1.86-2.41-.56-6.6,2.63-7.04,5.75-.44,6.57,8.28.6,8.52Z"/>
        <path d="M112.3,366.71c4.89-30.84,16.02-61.27,35.83-85.66.5-.31.17.48.04.72-3.11,5.78-5.04,12.1-6.58,18.47-.03.12-.06.24-.08.34-.15.7.1.33.36-.1,10.36-17.53,21.91-34.14,37.23-47.8.1-.12.86-.78.62-.26-2.7,5.32-5.67,10.98-7.53,16.5,11.93-13.7,23.5-28.3,38.46-38.87.79-.44.42.29.17.63-1.63,2.27-3.27,4.53-4.91,6.8-.06.1-.67.88-.23.62,17.23-12.99,36.62-21.53,55.8-30.94,56.56-28.2,123.55-17.59,177.99,10.32-40.1-36.3-100.28-36.5-150.94-27.18,12.57-5.73,36.1-8.23,52.88-9.34-65.86-11.42-143.38,27.9-188.49,77.63-43.18,48.07-62.23,118.81-41.94,180.82-1.71-24.01-2.7-48.67,1.32-72.66v-.03ZM185.44,238.22h.03c1.48.01,2.94,1.76,2.94,3.16-.05,1.35-1.4,3.03-2.78,3.21-3.91-.08-4.29-6.19-.19-6.36ZM170.72,248.92h.04c.88-.03,1.77.45,2.26,1.1,1.39,1.72.73,4.78-1.6,5.26-4.1.77-4.92-6.08-.7-6.36Z"/>
        <path d="M531.37,573.38c-8.19,7.84-16.49,15.23-24.98,22.69l-.02.02c-33.38,28.71-75.52,52.23-120.83,46.29-.6.13-1.18.43-1.73.76-6.98,4.33-14.45,7.52-22.2,10.06-7.31,2.3-14.67,4.77-21.56,8.11-.08.07,0,.09.21.08,3.77-.47,7.25-1.04,10.83-2.1.31-.08.9-.12.6.32-6.11,4.68-12.66,8.85-19.07,13.17-.53.38-.21.42.27.39,10.69-.59,21.8-1.96,32.24-2.61-.13.11-.29.17-.52.28-11.32,5.2-23.9,7.8-36.32,9.11-.57.06-1.18.11-1.7.39-.74.38-.94,1.22-1.56,1.84-.35.36-.81.61-1.26.82-7.52,3.26-15.75,4.46-23.67,6.11-.53.12-1,.37-1.41.72-1.99,1.84-4,3.66-5.9,5.59-1.06,1.16.19,1.91,1.36,2.35,92.95,2.58,187.34-45.95,237.59-124.68-.01-.05-.16.07-.38.28ZM388.41,658.02h-.04c-1.39.03-2.81-.68-3.56-1.67-2.18-2.77-.89-7.45,2.84-7.98,6.62-.83,7.32,9.34.75,9.65ZM408.26,657.08c-.04,1.2-.88,2.37-2.18,2.39h-.03c-2.84-.07-3.15-4.23-.35-4.82,1.49-.33,2.67.99,2.57,2.42ZM438.7,647.19h-.03c-1.35.47-2.83-.7-3.15-1.99-.36-1.46.81-3.23,2.2-3.64.61-.17,1.29.07,1.82.42,2.07,1.32,1.29,4.36-.84,5.21Z"/>
        <path d="M424.32,230.76h.03c23.88,6.35,46,21.19,60.4,41.26.31.17.75.02,1.07-.14,4.4-2.04,9.42-2.03,13.78.11.11.05.21.1.3.14.24.11.39.14.39.05-17.79-26.66-46.04-45-75.11-57.59-42.77-20.75-94.28-26.53-138.53-7.02-.04.06.21.03.57-.03,32.72-5.52,67.1-.46,98.18,10.64,2.05.99,3.83,2.3,5.22,4.04.85,1.02,1.49,2.32,2.09,3.58.72,1.48,2.47,1.75,3.9,2.18.59.18,1.16.39,1.74.58,9.78,3.14,18.89,8.06,26.45,15.06.37.32.69.53,1.02.54.48.02.98-.33,1.6-.77.56-.4,1.23-.88,2.07-1.24.48-.24,1.47-.39,1.08-1.13-1.88-3.45-4.14-6.56-6.76-9.55-.45-.55-.07-.78.5-.72ZM421.72,226.19h-.03c-5.26-1.2-9.48-1.6-13.38-5.69-.85-.68-1.81-1.24-2.54-2.05-.92-1.03,1.74.28,2,.34,3.7,1.66,7.5,3.44,11.19,5.06.49.18,5.71,3.02,2.76,2.34Z"/>
        <path d="M59.98,350.21c.14-2.09.43-4.19.54-6.28-21.55,42.66-9.44,95.97,27.58,126.41.08,0-.04-.21-.23-.52-22.55-35.26-30.49-78.13-27.89-119.58v-.03Z"/>
        <path d="M132.11,507.91l-.03-.02c-13.1-6.34-25.13-14.66-35.49-24.94-.25-.21-.45-.29-.49-.16,9.19,16.59,21.47,31.67,37.93,41.73.28-.08.3-.4.29-.67-.57-4.39-.88-8.79-.8-13.23.05-1.28-.2-2.11-1.42-2.72Z"/>
        <path d="M439.51,182.45c7.35,4.54,14.99,9.45,17.87,18.04v.03c.33.83,1.08,1.22,1.91,1.39,2.49.57,4.97,1.15,7.44,1.76,1.01.14,3.79,1.54,4.34.39.54-1.64-3.22-5.92-4.5-6.95-7.89-6.98-17.58-11.92-27.53-15.15-.14.1.34.41.48.5Z"/>
        <path d="M293.59,334.72h.03c12.59,4.15,33,.41,43.37-7.91.36-.38.48-.97.22-1.42-.25-.51-.91-.76-1.48-.63-13.07,4.98-26.71,8.28-40.77,7.89-.54-.01-1.19-.04-1.66.21-.91.52-.57,1.52.3,1.85Z"/>
        <path d="M256.86,360.78h.03c11.97-4,17.34-5.51,30.17-3.62,1.09.12,2.18.2,3.26.19.62.02,1.6-.3,1.65-.96.02-1.21-2.99-2.31-3.98-2.71-8.93-2.98-22.82-2.02-30.79,3.76-1.06.79-2.84,3.34-.35,3.34Z"/>
        <path d="M254.36,339.6c.14-.18.19-.35.07-.51-.44-.5-1.53-.49-2.2-.35-7.9,1.57-15.81,1.8-23.63-.27-.61-.08-1.23-.1-1.7.23-.72.5-.67,1.51.02,2.02l.02.02c6.53,4.84,22.58,4.17,27.42-1.13Z"/>
        <path d="M447.58,578.59l-.03-.02c-12.45-6.37-32.09,10.74-38.63,21.01-3.15,4.33-4.71,10.79-1.49,14.09.91.99,2.19,1.74,3.89,2.14.93.22,2.02.34,2.95.3,15.58-1.12,29.77-14.09,35.41-28.19,1.17-3.34,1.05-7.15-2.1-9.34Z"/>
        <path d="M137.97,608.37c2.16,1.61,6.33,4,8.81,2.19.69-.49,1.17-1.76,1.21-2.84.15-3.7-2.3-6.84-4.3-9.73l-.02-.02c-5.29-6.54-10.33-13.69-17.63-18.16-.78-.49-1.61-.92-2.54-1.23-1.9-.66-4.2-.53-4.75,1.83-.98,10.75,11.06,21.97,19.21,27.96Z"/>
      </g>
    </g>
  </g>
</svg>